<svg xmlns="http://www.w3.org/2000/svg" viewBox="0 0 24 24" fill="currentColor">
  <path d="M19.37 4.63A9.86 9.86 0 0 0 12.34 2a9.92 9.92 0 0 0-8.55 14.95L2 22l5.22-1.71A9.92 9.92 0 1 0 19.37 4.63ZM12.34 20a8 8 0 0 1-4.08-1.11l-.29-.17-3.1 1.02 1.01-3.02-.19-.31A8 8 0 1 1 12.34 20Zm4.39-6.02c-.24-.12-1.42-.7-1.64-.78-.22-.08-.38-.12-.54.12-.16.24-.62.78-.76.94-.14.16-.28.18-.52.06-.24-.12-1-.37-1.9-1.17-.7-.62-1.17-1.39-1.31-1.63-.14-.24-.01-.37.1-.49.11-.11.24-.28.36-.42.12-.14.16-.24.24-.4.08-.16.04-.3-.02-.42-.06-.12-.54-1.3-.74-1.78-.2-.48-.4-.41-.54-.42h-.46c-.16 0-.42.06-.64.3s-.84.82-.84 2 .86 2.31.98 2.47c.12.16 1.69 2.58 4.1 3.62.57.25 1.02.39 1.37.5.58.18 1.1.15 1.51.09.46-.07 1.42-.58 1.62-1.14.2-.56.2-1.04.14-1.14-.06-.1-.22-.16-.46-.28Z"/>
</svg>
