<?xml version="1.0" encoding="UTF-8"?>
<svg id="Layer_1" xmlns="http://www.w3.org/2000/svg" version="1.1" viewBox="0 0 128 128">
  <!-- Generator: Adobe Illustrator 30.2.1, SVG Export Plug-In . SVG Version: 2.1.1 Build 1)  -->
  <defs>
    <style>
      .st0 {
        fill: #94622a;
      }

      .st1 {
        fill: #8b8d8e;
      }

      .st2 {
        fill: #ce8c3d;
      }

      .st3 {
        fill: #fff;
      }

      .st4 {
        fill: #c1c3c2;
      }

      .st5 {
        fill: #060709;
      }

      .st6 {
        fill: none;
        stroke: #ce8c3d;
        stroke-miterlimit: 10;
        stroke-width: .2px;
      }

      .st7 {
        fill: #fafbfa;
      }
    </style>
  </defs>
  <polygon class="st3" points="15.2 14 72.8 0 111.3 12.1 111.3 55.7 120.9 59.8 120.9 93.1 111.3 97.4 111.3 116.1 64 128 15.2 116.1 15.2 97.4 7.1 95.2 7.1 61.1 15.2 54.8 15.2 14"/>
  <path class="st4" d="M63.3,13.2s0,0,0,0c0-.2-.2-.4-.4-.4s-.5.2-.4.4c.4,3.3-.6,6.6.3,9.8,0,.2.3.3.5.3.6.6,1.7,1.7,2.1,1.7.2,0,.6-.2.9,0v-11.1l-2.9-.6Z"/>
  <path class="st4" d="M67,24.8v-10.8c.2,0,2,.4,2.3.5s.2,0,.2.2l.2,6.6-1,3.5c-.2.2-1.4,0-1.7.2Z"/>
  <path class="st4" d="M61.6,12.5v14.1h-1.6c-.1-4.7.2-9.4,1-14.1h.6Z"/>
  <path class="st4" d="M72.5,8.3c-.2,0-.5,0-.5.3l-6.1,1.3h.7c0,0,5.2-.3,5.2-.3,0,0,0,.2,0,.3,0,.2,0,.4,0,.6,0,.2,0,.5,0,.7,0,0,0,.2.2.2-.3,4.3-.2,8.6-.3,12.8,0,.7,0,1.3,0,2,0,0,0,.2,0,.2,0,0-.2,0-.3,0-.3,0-.6,0-.9,0-.2,0-.5,0-.5.3,0,0,0,.1,0,.2,0,0,0,0,0,0,0,0,0,0,0,0,0,.1.1.2.3.2.6,0,1.3.1,1.9-.1.6-.3.5-1,.5-1.6,0-1.3,0-2.5,0-3.8,0-2.5,0-5.1.1-7.6,0-1.4.1-2.9.2-4.3,0,0,0-.2,0-.3,0-.2,0-.5.1-.7,0-.2,0-.5-.3-.5Z"/>
  <path class="st4" d="M82.1,18.3c-.2,0-.4,0-.6,0l-1.9.3c0,1.4,0,2.8,0,4.2.3,0,.6,0,1-.1.2.2.6.3.8,0,.4-.6.5-1.2.6-1.9,0-.3,0-.7,0-1,0-.2,0-.3,0-.5,0,0,0,0,0,0,0,0,0,0,.1,0,.2,0,.4-.2.4-.4s-.2-.4-.4-.4Z"/>
  <path class="st4" d="M74.2,19.6c-.1,0-.5,0-.6.1-.3,0-.4.1-1,.2,0,2,0,3.6,0,5.6,0,0,.5,0,.9-.1.1,0,.3.1.4,0,.2,0,.3-.3.3-.5-.2-.8,0-1.7,0-2.6,0-.4,0-.9.1-1.3,0-.2,0-.4,0-.6.4-.3.3-.9-.1-.8Z"/>
  <path class="st4" d="M60.4,12.1c-.1-.2-.4-.3-.6-.2,0,0-.1,0-.2.1,0,0,0,0,0,0-.2-.1-.5,0-.6.2-.5.9-1.1,2-.9,3,0,0,0,.1,0,.2,0,0,0,0,0,0,0,.2.1.2.3.3,0,0,.1,0,.2,0,0,0,0,0,.1,0,0,0,.1,0,.2,0,.2,0,.1,0,0,0,0,0,.1,0,.2,0,.1-.1.2-.3.2-.5,0-.5,0-1.1.2-1.6.1-.4.4-.8.7-1,.2-.1.3-.4.2-.6Z"/>
  <path class="st4" d="M38.7,31.3c-.9.5-1.8.7-2.6,1.2s-1.8,1.2-2.4,1.7c0-.4,1.9-1.9,2.1-1.9.5,0,.8-.3,1.3-.5s1.3-.5,1.7-.5Z"/>
  <path class="st4" d="M28.4,34.7c.5.7.9,1.7,1.1,2.5-.1,0-.2,0-.3,0-.2-.8-.7-1.7-1-2.4.2,0,.3,0,.3-.2Z"/>
  <path class="st4" d="M83.9,37.3c.2.4.3.6.3,1.1-.4-1.4-1.2-1.1-2.3-1.1s-.1,0-.1,0c.1-.1.3,0,.5,0,.2,0,.8,0,1,0s.5.3.7.2Z"/>
  <path class="st1" d="M92.2,30.2c-.8,0-1.6,0-2.4.2-.3,0-.7.1-1,.2-.1,0-1.2.4-1.2.5,0,0,0,0,0,0,0,0-.1,0-.2,0-.2,0-.3.1-.4.3-.3.1-1.2.8-1.2.9,0,0,0,0,0,0-.2.2-.4.4-.6.6-.2,0-.8.9-.8,1,0,0,0,0,0,.1-.4.7-.7,1.5-.5,2.2,0,.1.1.2.2.3,0,0,0,.2,0,.3,0,.3.1.6.2.9,0,.1.1.2.2.3,0,.1,0,.3.1.4,0,.6,0,1.4.2,1.5,0,0,.1,0,.2-.1.1.2.5.2.7,0,.6-.7,1.2-1.5,1.5-2.3,0,0,0-.1,0-.2.2-.2.4-.5.7-.7.1,0,.5-.3.5-.4,0,0,0,0,0,0,.1,0,.2-.1.3-.2.3-.2.4-.5.6-.8,0,0,0,.1,0,.2,0,0,.9-.7.9-.7,0,0,0,0,0,0,0,0,0,0,0,0,.2-.3.4-.6.6-.9,0,0,0-.2,0-.3,0-.1.1-.3.2-.4.1,0,.2-.1.3-.2,0,0,0-.1,0-.2.1-.2.2-.5.3-.7h0s0,0,0,0c0,0,0,0,0-.1,0-.2,0-.4-.2-.5,0,0,0,0,0,0,0,0,0,0,0,0,0,0,0,0,0,0,.1,0,.3,0,.4,0,0,0,0,0,.1,0,.4-.2.2-.8-.2-.8Z"/>
  <path class="st4" d="M75.6,15.1c0-.7,0-1.4,0-2.1.1.6.1,1.5,0,2.1Z"/>
  <path class="st4" d="M75.6,16.8c0-.5,0-1,0-1.5.1.4.1,1.1,0,1.5Z"/>
  <path class="st4" d="M79.2,19.6c.2-.3.2-.8-.2-.7,0,0,0,0,0,0,0,0-.3,0-.3,0h0s-2.9.4-2.9.4c0,0,0,.2,0,.4,0,.4,0,1.3,0,1.6l1.8,1.5c0,.2.1.4.3.4.3.1.7.1,1,0,.2,0,.3-.2.3-.4,0-.6,0-1.1,0-1.7,0-.3,0-.5,0-.8,0-.1,0-.3,0-.4,0,0,0-.2,0-.2,0,0,0,0,0,0,0,0,0,0,0,0Z"/>
  <path class="st4" d="M75.6,12.6s0,0,0,0h0Z"/>
  <path class="st4" d="M80.6,37.2c-.6,0-1.3,0-1.9-.2.5,0,1,0,1.5,0s.3,0,.4.2Z"/>
  <path class="st4" d="M27.4,34.9l-1,.5v2.6s-1.7.4-1.7.4c0,.9,0,1.8,0,2.7s0,.2,0,.2c.1-.6-.2-2.5,0-3s.5-.1.7-.2.6-.3,1-.2c0,0,0-2.2,0-2.5s.4-.2.5-.3,0-.1,0-.1c.2,0,.4,0,.5,0Z"/>
  <path class="st4" d="M24.5,41.7s0,0,0,0h0s0,0,0,0Z"/>
  <path class="st4" d="M27.9,34.9s0,0,0,0h0c0,0,0,0,0,0Z"/>
  <path class="st4" d="M40.3,30.9c-.3.2-.7.2-1,.3,0-.1.5-.3.7-.3s.3,0,.3,0Z"/>
  <path class="st4" d="M41.5,30.7c-.2.2-.6.2-.9.2,0-.3.6-.2.9-.2Z"/>
  <path class="st4" d="M39.1,31.2c0,.3,0,.2-.3.2,0-.3,0-.2.3-.2Z"/>
  <g>
    <path class="st2" d="M24.2,20.7l32.3-7.8h.1c-.3,1.6-.9,3,.2,4.4s.4.2.5.6c-.4,2.7-.5,5.4-.5,8.1l-2.8.2c-4.1.6-8.2.8-12.3,1.2-4,.5-7.6,1.6-10.2,4.8s-.4.7-.5.7c-.2,0-.8-1.3-1.1-1.3-1.7,0-4,.5-5.7.8v-11.6Z"/>
    <path class="st2" d="M100.5,29.5c-.2-.2-.7-.7-.9-.9-2.6-2.2-5.2-4.5-7.8-6.7-1.1-.9-2.2-1.8-3.3-2.7l-.3-5.2,14.8,3.9v20.1c-.2-.4-.3-.7-.5-1.2-.2-.5-.3-.9-.5-1.3-.5-2-1-4-1.5-6Z"/>
    <path class="st2" d="M102.1,59.8l-13.7.2c0-.2.2-.1.3-.2,1.2-.3,2.6-.4,3.8-.7,3.2-.7,6.3-1.7,9.4-2.8,0,0,.2,0,.2,0v3.4Z"/>
    <path class="st2" d="M24.8,51.9c0,0,.2-.2.3-.1,1,.2,2.1.7,3.1.8s1.4-.2,2.1,0c0,.4.8,1.3.8,1.5s0,.1-.1.1l-5.8.4c0,0-.3-.2-.3-.2,0-.5,0-2.1,0-2.4Z"/>
    <path class="st2" d="M102.9,51.9c-.1,0-1.6-.1-1.9-.1-.1,0-.8,0-1.2,0,0-.2.6-1.1.8-1.3.3-.5.6-1.1.8-1.6.3-.3.6-.8.9-1.3.3-.6.5-1.1.6-1.6v6Z"/>
    <path class="st2" d="M74.3,51.7c-.3.4-.7.8-1,1.2-.6-.2-1.1-.3-1.7-.6-.6-.3-1.2-.1-1.6.3-3.5.4-6.9.8-10.4.4-.7,0-1.3.7-1.3,1.3s.6,1.2,1.3,1.3c.4,0,.8,0,1.2.1,2.4,3,5.3,4.7,9.5,3.5,1.2-.4,3.6-2.1,4.2-3.4.6-.1,1.1-.5,1.4-1,.3-.5.3-1.2.5-1.7.5-1.2-1.4-2.2-2.2-1.3ZM61.8,55.6s0,0,0,0c.4,0,.7,0,1.1,0,.4.4.8.7,1.2,1,0,.6.2,1.1.9,1.3,1.1.3,2.2.2,3.3,0,1.1-.1,2.1-.3,3.1-.7.3-.1.6-.3.9-.4-3.1,2.6-7.1,2.6-10.5-1.3Z"/>
    <path class="st2" d="M99.8,34c-.7-1.4-1.2-3-2.2-4.2-.9-1.2-2.3-2-3.5-2.9-2.9-2-5.8-4.1-8.4-6.4,0,0-.1-.1-.2-.1-.2-2.3-.4-4.7-.6-7-.1-1.1,0-2.6-.9-3.5-.9-.9-2.2-1.4-3.4-1.9-1.2-.5-2.5-.9-3.7-1.2-1.2-.3-2.3-.7-3.5-.7,0,0,0-.1,0-.2h0c0-.1-.1-.2-.2-.2-.2,0-.3,0-.5,0,0,0-.1,0-.2,0,0,0-.1,0-.1,0,0,0,0,0,0,.1,0,0,0,0,0,.1,0,0-.1,0-.2,0-.8.2-1.5.4-2.3.6-1,.2-1.9.4-2.9.7-.4.1-.9.2-1.3.3-.1,0-.3,0-.4,0l-.6.2c-.9.2-1.8.5-2.7.8,0,.1-.2.2-.2.3-.1,0-.2,0-.4.1-1,.4-.6,2.1.5,1.7l2.6-1c.5,0,.9-.1,1.2-.3,2.2-.6,4.4-1.1,6.7-1.6.3,0,.6-.1.9-.2,0,.2,0,.4.1.6,0,0,0,0,0,0,0,.1,0,.3,0,.4.1.5.6.7,1.1.6,0,0,.2,0,.2,0,0,.1-.1.3-.2.5,0,.4,0,.9,0,1.3,0,0,0,0,0,0,0,.4,0,.8.4,1-.1,0-.2.2-.2.4,0,.4,0,.7,0,1.1,0,.4,0,.8,0,1.2,0,.4,0,.8,0,1.2,0,.4,0,.8,0,1.1,0,.8.2,1.6.2,2.4,0,.6,0,1.2,0,1.8-.2,0-.4.3-.4.6-.1.8,0,1.5,0,2.3,0,.4,0,.8,0,1.3,0,.2,0,.4,0,.6,0-.1,0-.1-.2,0,0,0-.2,0-.2,0-.5-.2-1.2,0-1.3.8,0,.4.1.9.5,1.2,0,0,0,0,0,0,0,0,0,0-.1,0-.3.2-.4.5-.4.8-.1-.1-.2-.3-.3-.3-.3-.3-.7-.5-1.2-.5-1.3-.8-2.8-1.2-4.4-1-.4,0-.8.2-1,.5-1.4,0-2.8,0-4.1.4-.1,0-.2,0-.3.1-.3-.3-.7-.5-1.2-.4-2.5.5-5,1.2-7.6,1.3-1.3,0-2.6,0-3.9.1-1.4.1-2.7.4-4.1.6-2.5.4-5,.4-7.4,1.6-1.1.5-2.2,1.1-3.1,1.9-.9.8-1.4,1.9-2.1,2.8-.4.5-.4,1.1-.2,1.5-.3,0-.6,0-.9.1,0,0,0,0,0,0,0,0,0,0,0,0,.2-.3.2-.7.1-1,0-.2-.1-.5-.2-.7,0,0,0-.1,0-.2-.1-.4-.3-.9-.5-1.3-.1-.3-.5-.5-.8-.6-.3,0-.7,0-1,.1,0,0-.1,0-.2.1,0-.6-.5-1.1-1.2-1.1s-.5,0-.7.2c-.1,0-.2,0-.3,0-1.3,0-1.6,1.5-.9,2.2-.5.3-.6,1-.4,1.6,0,.1,0,.2,0,.3-.5.1-.9.5-.9,1.2,0,1.7-.1,3.3-.1,5,0,.8,0,1.6,0,2.4,0,.5.1,1.1.2,1.7-.6,1.1,1,2.5,2.1,1.5,0,0,.1-.1.2-.2.2,0,.4,0,.6,0,.5.4,1.1.6,1.8.7,1.1.1,2.1.1,3.2.1,1.5,0,3,0,4.6,0,0,.4.2.7.6,1,.8.5,1.9.4,2.9.4,1.1,0,2.2,0,3.3,0,2.3,0,4.5,0,6.8,0,.5,0,.9-.2,1.1-.6.7.4,1.8.2,2-.7.1-.7.2-1.3.2-2,0-.5-.3-.9-.7-1.1,0-2.4.2-4.9.2-7.4.2-.3.2-.7.1-1,0,0,0-.1.1-.2,0,2.7.2,5.5.2,8.2,0,1.1-.2,2.7.3,3.8-.2.6,0,1.4.9,1.7,2.5.7,5.2,1,7.8,1,.5,0,.8-.2,1-.6,1.1,0,2.3,0,3.4-.1,3.1,0,6.2-.2,9.2-.3,1.7,0,3.4-.1,5.1-.3.7,0,1.4,0,2-.5.1,0,.2-.2.3-.3.4,0,.9,0,1.2-.4,0,0,.1,0,.2,0,0,0,0-.2,0-.3.2-.3.2-.6.1-1,0,0,0,0,0,0,.2-3.5-.1-7.2,0-10.7,0,0,0,0,0,0,.2-.4.1-.9-.3-1.3-.9-.9-2-1-3.1-1-1.3,0-2.6-.1-3.9-.2,0,0-.2,0-.2,0,.5-.4.8-1.3.2-2-.4-.4-.6-1.1-.9-1.6-.3-.5-.7-1-1.1-1.5-.3-.4-.7-.8-1.2-1.1,0,0,0,0,0,0,.1,0,.2-.1.3-.2,0,.1.2.3.4.4,1.1.6,1.4,2.1,2.2,3.1.1.1.2.2.4.3.1.2.3.3.5.4,1.3.3,2.6.4,3.9.1.5.3,1.4,0,1.4-.7,0-.8,0-1.6.3-2.5,0-.1,0-.3,0-.4.2-1,.3-1.9.5-2.9,0,.1.2.3.3.3-.5.4-.5,1.3.3,1.5,1.5.3,3,.5,4.5.6.7,0,1.5,0,2.2,0,.6,0,1.7-.4,2.2.3.4.6,1.2.5,1.5,0,.6.3,1.2.6,1.7,1,.8,1.2,1.4,2.6,2,3.9.5,1,2,.1,1.5-.9ZM27.3,37c-.3,0-.4-.5-.5-.7,0,0,0,0,0,0s0,0,0,0c0,0,0,.1,0,.2,0,0,0,.1,0,.2,0,0,0,.1,0,.1,0,0,.2.1.3.1.1,0,.2,0,.3-.1,0,0,.1-.2.1-.3,0-.1,0-.2,0-.4,0,0,0,.1,0,.2,0,0,0,.1,0,.2,0,.1,0,.2.1.4-.2.2-.4.2-.7.2ZM50,37.2c-1,0-2-.1-2.9-.2,1-.2,2.1-.3,3.2-.4-.1.2-.2.4-.2.5ZM52.4,36.9c0-.1-.1-.2-.2-.3,0,0,.2,0,.3,0,0,.1,0,.2,0,.3ZM62.1,31.6c.2-.2.3-.3.5-.5,0,0,0,0,0,0-.3.3-.5.5-.7.8,0,0,0,0,0-.1,0,.2.2-.1.3-.2ZM54.4,33.3c0,.7,0,1.3-.1,2,0,0,0,0,0-.1,0,0,0,0,0-.1,0,0,0,0-.1,0,0,0,0,0,0,0h0c0-.8,0-1.6,0-2.4.1,0,.3-.2.4-.3-.1.3-.1.7,0,1.1ZM58.3,36.1c-.7.7-1.2,0-1.3-.9,0-.3,0-.6,0-1,0-.1.1-.3.2-.3,0,0,0,.1,0,.2,0,0,0,.2,0,.3,0,.4,0,.9,0,1.4,0,.2.6.7.7.4.2-.4.3-.8.3-1.3,0,0,0,.2,0,.2,0,0,0,.1,0,.2,0,.1-.2.2-.2.4,0,0,0,.1,0,.2,0,0,.1.2.2.2,0,0,0,0,0,0,0,0,0,0,0,0ZM74.9,35.6s0,0,0,0c-2,0-4,0-6,0-1.3,0-2.5,0-3.8-.1-.6,0-1.2-.1-1.8-.2-.6,0-1.2-.3-1.7-.1-.1,0-.2,0-.4.2-.3,0-.6-.2-.9-.3-.3-.1-.6-.1-.8,0-.2-.5-.6-1.4-.8-1.9,0-.1-.2-.2-.2-.2.2-.4.2-.8,0-1.2,0,0,0,0,0,0,0,0,0,0,.1,0,0,0,0,0,0,.1,0,0,0,0,0,0,0,0,0,0,0,0,0,0,0,0,.1,0,0,0,0,0,0,0,0,0,0,0,0,0,0,0,0,0,0,0,0,0,0,0,.1,0,0,0,0,0,0,0,0,.3,0,.5,0,.8.1.7.7,1,1.2.9-.2.2-.2.6,0,.8.3.3.7.2,1.1.2.8,0,1.6,0,2.4.1,1.6,0,3.2.2,4.8.3.2,0,.4,0,.5-.2.3.1.6.2.9.4,1.3.8,2.5-1,1.6-2.1-.8-.9-1.6-2.1-2.7-2.6-.4-.2-.9-.2-1.4-.2-.1,0-.2-.1-.3-.2-.1-.2-.3-.4-.5-.5,0,0,0,0,0,0,1.2,0,2.3.2,3.2,1,.2.2.4.3.6.3,0,0,.1.1.2.2.3.2.6.4.9.4.7.4,1.2,1,1.7,1.6.5.8.8,1.7,1.5,2.5ZM82.4,15.6c0,2.4-.3,4.7-.6,7-1.1.5-2.5.6-3.7.8,0,0-.1,0-.2,0,0,0-.2-.2-.3-.2,0-.2-.2-.3-.3-.4,0,0-.2,0-.3,0,0-.6-.5-1-1.1-1,0-.1-.2-.2-.3-.3,0-.7,0-1.3,0-2,0-.8-.1-1.6-.2-2.4,0-.4,0-.8,0-1.1,0-.4,0-.8,0-1.2,0-.4,0-.8,0-1.2,0-.4,0-.8,0-1.2,0,0,0,0,0-.1.4,0,.6-.4.6-.7,0,0,0,0,0,0,0-.1,0-.2,0-.4,0-.4,0-.8,0-1.2.1,0,.3.1.5.1s.3,0,.4-.1c.5.3,1,.5,1.5.7.6.2,1.2.3,1.8.6.5.2,1,.5,1.6.6,0,0,.2,0,.3,0,.2,1,.3,2.1.5,3.1-.1.1-.2.3-.2.5ZM83.8,26.3s0,0,0,.1c0,0,0,0,0,0,0,0,0,0,0,0,0,0,0,0,0,0,0-.2,0-.4.1-.5,0,0,0,0,0,0,0,0,0,.1,0,.2Z"/>
    <path class="st2" d="M98,40.5c-.2-1.1-.5-2.2-1.2-3.1-1.5-2.1-3.4-.8-4.2,1.1-.2.4-.3.9-.4,1.3-.6.1-.9.7-1,1.3-.1,1.3.1,2.6.5,3.9.3,1.1.7,2.2,1.4,3,1.8,2.1,4.3.4,5-1.7.5-1.3,1.2-4.6-.1-5.8ZM92.5,39.8c.3-1.3,1-2.6,2.3-2.7.6,0,1.1.3,1.4.8-.6-.2-1.3,0-1.5.9,0,.2,0,.4-.2.6-.4,0-.7.3-1.1.8-.3-.3-.6-.5-1-.5Z"/>
  </g>
  <path class="st6" d="M24.2,39.7"/>
  <path class="st6" d="M23.8,39.4"/>
  <g>
    <path class="st0" d="M60.1,52.4l-1.5-.6c-1.2-.7-1.6-2-1.7-3.4h.2c8.8-.2,17.6-.9,26.4-1.7v3.7c-5.4.5-10.7.9-16.1,1.3s-5,.7-7.4.7Z"/>
    <path class="st0" d="M51.9,47.4c0,1,0,1.9,0,2.9-1,0-1.9,0-2.9,0-6.8-.4-13.6-.8-20.4-1.2l-2.2-2.3,25.5.7Z"/>
    <path class="st0" d="M75.5,8.4c.3.3.6.2,1,.5s.3.4.4.8c2,.6,3.9,1.4,5.9,1.9l.6,5.6-.9,5.8-4.7.8-2.4-2v4.5c-.3,0-.6.2-.9.2s-.7,0-.6.2c1.2,1,2.3,2.2,3.2,3.5,1.3.1,2.6,0,3.9,0s1.5.2,2.2,0c-.2,1.1-.5,2.1-.7,3.2-1.7,0-3.4-.2-5.1-.3-.2,0-.3,0-.4-.2-.3-.3-.7-1.4-1-1.9s-.9-1.5-1.4-2-1.8-1.6-1.8-1.7c0-.3,0-.8,0-1.2.3,0,2.1-.3,2.2-.5v-13.4c0,0,.5,0,.5,0v8.9c.9.7,1.7,1.6,2.7,2.2l4-.7c.2-1.1.4-2.3.6-3.5.3-2.5.2-4.8-.2-7.3s0-.3-.1-.5c-2-.5-3.8-1.2-5.8-1.9-.2-.1-.1-.5-.3-.7-.4-.4-.5.2-.7-.7Z"/>
    <path class="st0" d="M54.1,34.9c0,.2,0,.5,0,.7s-2,.8-2.1.8c-.6,0-1.5,0-2.2,0-4.5.2-9.1.5-13.7.6s-2.8,0-4.2,0c-.2-.1.7-1.2.8-1.4l21.5-.8Z"/>
    <path class="st0" d="M62,54.6c-.2-.3-.5-.7-.6-1.1l10.2-.9c0,.2,0,.4-.1.5-.9,2.4-2.9,4.8-5.8,4.4,1.7-.5,2.9-1.8,3.4-3.5l-7.1.6Z"/>
    <path class="st0" d="M62.8,31c.4-.4,1.1-1.1,1.7-1.2,2.9-.3,5,1.2,6.4,3.5s.6,1.1.7,1.4,0,.1-.1.1c-.6,0-1.7,0-2.4,0-.3-1.5-2-3.2-3.5-3.6s-1.9-.2-2.7,0Z"/>
    <path class="st0" d="M72.8,7.7c-1.8.2-4.2.9-6,1.4s-3.8,1.1-5.7,1.7c-.2,0-.1,0-.1-.1,0-.4.1-.7.3-1.1,3-.9,6.1-1.7,9.1-2.4.5-.1,1.8-.5,2.3-.3.1.1.1.6.1.8Z"/>
    <path class="st0" d="M35.7,51.5c0,0,0,.2.1.3,1.7,1.9,3.9,3,6.2,4l3.2,1c-2.8-.5-5.7-.6-8.2-2.1s-1.9-1.6-2.5-2.3-.8-.8-.8-1.2c.3.2,1.7,0,1.9.3Z"/>
    <path class="st0" d="M98.1,43.4c-.1,1.8-1.6,6.8-4.2,4.8s-1.9-3.7-2-5.5,0-.9,0-1.2c0,.2,0,.4,0,.6h0s0-.3,0-.3c0,1.7.1,4.1,1.3,5.4s1.9.9,2.6,0c1.3-1.7,1.4-4.7,1-6.8.2,0,.2.2.2.3.3.8.4,1.5.6,2.4s0,.3.2.4Z"/>
    <path class="st0" d="M93.4,29.6c-1.8-.4-2.9-.2-4.7,0s-3.8-.5-4.6-.8-.3,0-.3-.1c0-.3,0-.7,0-1,2,.2,3,.5,5.1.6s2.2.4,2.7.5,1.3.5,1.7.8Z"/>
    <path class="st0" d="M74.9,53.8c.1-.2.7-1.5.8-1.5s.8-.2.8,0c-.1.6-1.1,2.2-1.5,2.7s-.1.3-.3.2c.1-.5.5-.9.6-1.3s-.2-.1-.3-.1Z"/>
    <path class="st0" d="M83.4,31.5c.2.2,1.5.9,1.5,1.1s-.8.5-1,.5c-.8-.1-.4-1.1-.4-1.6Z"/>
    <path class="st0" d="M60.9,54.7c0,0-.6.1-.7.2,0,0-.2-.2-.4-.4s-.5-.8-.4-.8c1-.3,1.1.3,1.5,1Z"/>
    <path class="st0" d="M74.9,8.4c0,.7,0,.4-.6.7s-.3.3-.4.3,0-.2-.2-.2-.4,0-.5-.2,0-.3,0-.4c.2,0,.8.3,1,.2s.3-.5.7-.3Z"/>
    <path class="st0" d="M74.6,55.4c0,0,0-.1,0-.2,0,0,0,.1,0,.2Z"/>
    <path class="st0" d="M93.1,41.2c0,.9.3,3.2,1.3,3.4s.8-.1,1.1-.6c.4-.7.4-1.5.6-2.2,0,0,0,0,0,.2.1,1.1-.3,3.7-1.9,3.3s-1.4-3.1-1.1-4.2Z"/>
    <path class="st0" d="M93.5,46.6c.3,0,.7-.1.7-.4s-.5-.2-.4-.5c.5.3.9.2,1.3,0,0,.8-.9,1.6-1.6,1Z"/>
  </g>
  <g>
    <path class="st7" d="M68,27.2c-9.3,1.1-18.6,2-27.9,3.1-1.5.4-3.1,1-4.3,2.1,0,0,.1,0,.3,0,.4,0,.6-.1,1.1-.4.9-.6,3.5-1.1,3.8-1.1.6-.1,1.2-.2,2.3-.3.9,0,1.5-.1,1.7-.1,2.2-.2,5-.6,9.4-1,3-.3,3.5-.3,6.7-.7,1.3-.1,2.3-.3,3-.3-.2,0-.6.2-.9.5-.5.3-.9.7-1.3,1.1-.8.8-1.4,1.7-1.9,2.5,0,.1,0,.5.3.7.2.1.8-.9.9-1.1,4.2-5.4,10-5.2,13.6.6.2.3,1,2.1,1.1,2.2.2.1.8,0,1,0-1.6-3.8-4.4-7.3-8.8-7.7Z"/>
    <path class="st7" d="M99.3,35.2c-.2-1.5-.6-3-1.1-4.5,0-.2-.3-.4-.5-.3,0,0,0,0-.1,0-.7-.6-2-1.6-2.5-2-1.8-1.5-3.6-2.9-5.4-4.4-1.5-1.3-3-2.6-4.5-3.8-.2-2.8,0-5.8-.7-8.5,0-.4-.4-1.6-.6-1.9-.2-.2-1.2-.6-1.5-.7-.5-.2-1-.4-1.5-.6,0,0,.1,0,.2,0,.1,0,.3-.2,0-.3-1.2-.6-2.6-.8-3.8-1.2-.7-.2-1.4-.4-2-.6-.3-.1-.7-.2-1-.3-.3-.1-.6-.3-1-.3,0,0-.1,0-.2,0-.3,0-.6-.1-1-.1,0,0,0,0,0,0,0,0-.2,0-.2,0,0,0,0,0,0,.1.2.1.4.2.6.3,0,0,.1,0,.2,0,0,0,.1,0,.2,0,0,0,.1,0,.1,0,.5.4.8.9.8,1.5.3,0,.2-.6.5-.5l8.9,3.1c.7,1.4,1,3,1.1,4.5,0,.5,0,1.2,0,1.7,0,2,0,3.9,0,5.9.3-.2.4-.7.5-1,.1,0,.2,0,.3.1.7.4,1.7,1.3,2.3,1.9,3.1,2.5,6.3,5.1,9.3,7.7.2.2.4.4.7.5.4,1.2.7,2.5.9,3.8,0,.2.3.4.5.3.3,0,.3-.3.3-.5Z"/>
    <path class="st7" d="M58.6,33c-.4,0-1.9,0-2.1.4s0,3.1,0,3.7l-1.7.5c0,3.1,0,5.6,0,8.8s0,1,0,1.2c0,.6,0,1.9,0,2.4s1.3.9,1.4,1.4c-.3,0-2.7-.5-2.7-.7l.2-13.9,1.7-.5v-3.5c.5-.3,3-.6,3.3-.4s0,.3.1.4Z"/>
    <path class="st7" d="M78.9,20.5c0-.6,0-1.2,0-1.8h-.4v4.4c.1,0,.3,0,.4,0h.1c0-.8,0-1.4,0-2.1-.2,0-.1-.4-.1-.5Z"/>
    <path class="st7" d="M81.6,18.2c0,1.4-.5,2.8-.6,4.2,0,.2-.1.4.2.3,0,0,.3,0,.3,0l.6-4.5c-.2,0-.3,0-.4.1Z"/>
    <path class="st7" d="M26.7,38.5c1.6,0,3.1,0,4.7,0,5.4-.2,10.7-.4,16.1-.6,1.6,0,3.1,0,4.7,0,0,.3,0,.5,0,.8-1.6,0-3.3,0-4.9,0-6.7.1-13.5.3-20.2.4-.4,0-.5,0-1.1,0,.2-.2.5-.3.8-.5Z"/>
    <path class="st7" d="M81.2,37.2c.2,0,.3,0,.5,0,.6,0,1.3,0,1.9,0,0,0,0,0,0,0,.1,0,.2,0,.3,0,0,0,0-.1,0-.2v-.2c-.1,0-.2,0-.2-.1-.4-.4-1.7-.2-2.2-.2-5.8-.3-11.6-.6-17.4-.9-1.3,0-2.6,0-4,0,0,.9.5.6,1.1.6,5.4.4,11.4.6,16.9.9,0,0,0,0,0,0,.8,0,1.7,0,2.5,0h.6Z"/>
    <path class="st7" d="M73.8,25.5c.1,0,.2,0,.3-.1,0-2,0-3.9.1-5.9-.2,0-.4,0-.7.1l.2,5.9Z"/>
    <path class="st7" d="M74.8,12.1c0-.1.2-.1.4-.3.3-.3.3-1.4.2-1.9s-.2-.4-.3-.6c.3,0,.7,0,.8.3s0,1.6,0,1.8c0,.4-.6.6-1,.6Z"/>
  </g>
  <path d="M96.4,27.6c1,.8,2.1,1.5,3,2.4.3,1.6.8,3.3,1.1,4.9s0,.8.2,1.2c.1.6.4,2.2.6,2.6s.8.5,1,.9.2,1.4.2,1.8c0,1.3,0,2.6-.1,3.9,0,.1-.9.7-1,.8s-.4,0-.4.2c-.2.3-.3,1.3-.4,1.8-.5,1.7-1.3,3.4-2.5,4.7.8,0,5.8.2,6.1.6s-1,1-1.3,1.1c-.9.3-2,.6-3,.9-8.4,2.3-16.9,4-25.5,5l-8.9,1.1h17.9c8.3.4,16.6.3,24.8.7,1.5,0,4.1.1,5.5.5s-.2.5-.7.6c-3.9.5-8.6.3-12.6.4-24.7.7-49.5.7-74.2,0-4-.1-8.6,0-12.5-.4s-1.1-.2-1.2-.3c-.1-.1,0-.2.1-.2.3-.1.8-.2,1.1-.2,2.1-.3,4.3-.3,6.4-.4,4.3-.2,8.6-.3,13-.4s3.9,0,5.8,0l-6.6-1c-2.6-.5-5.3-.9-7.9-1.5s-6.9-1.4-7.3-2-.1-.2,0-.3c.8-.3,1.6-.4,2.4-.5,2.9-.4,6.1-.7,9-1s3.7-.3,5.6-.4l-.9-.6c-.6-.5-1.1-1.2-1.6-1.8s-.3-.9-.6-1c-.4-.2-2,0-2.6,0-1.1-.1-3-.6-4.3-.9s-1.8-.4-2.6-.7v-13.1c0,0,2.1-.4,2.1-.4v-2.6c1.8-.6,3.7-.8,5.7-1,.3.2,1.5,2.1,1.7,2.1.4-.4.5-1,.9-1.4,1.9-2.4,4.6-4.1,7.6-4.6l18.3-1.8v-5.4c.2-.8.2-1.6.3-2.4s.3-1.5.3-2-.3-.3-.6-.4-.4-.5-.4-.9c0-.7.5-3.2.8-3.8s1.3-.8,1.4-.9,0-1.1.1-1.3c.1-.8.5-2,1.4-2.4s2-.5,2.8-.7c2.9-.8,5.8-1.7,8.7-2.4,1,0,1.7.3,2.5.6,2.2.8,4.5,1.5,6.9,2.2s2.8.9,3.3,1.6c.7,1.4,1.1,3.6,1.4,6,.1,1.5.4,3.5.6,5s0,.2,0,.3c1.7,1.4,3.4,2.8,5.1,4.2s2.8,2.2,4.2,3.4ZM72.9,5.9c-.3,0-.7,0-1,0-3.4,1-6.9,1.6-10.2,2.7-.2.3-.3.5-.5.8s-.3.7-.3,1.1,0,.1.1.1c1.9-.6,3.8-1.2,5.7-1.7s4.2-1.2,6-1.4.3,0,.4,0c0,.3,0,.4,0,.6s0,.3,0,.3c0,.1,0,.3,0,.4s.3.1.5.2.1.3.2.2c0,0,.3-.2.4-.3.5-.2.7,0,.6-.7s0-.4-.2-.7c.8,0,.7,0,.8.7.2.9.2.3.7.7s.2.5.3.7c1.9.6,3.8,1.4,5.8,1.9,0,.1,0,.3.1.5.3,2.5.5,4.8.2,7.3s-.4,2.3-.6,3.5l-4,.7c-1-.6-1.7-1.5-2.7-2.2v-8.9h-.6c0,0,0,13.4,0,13.4,0,.2-1.8.5-2.2.5,0,.3,0,.9,0,1.2s1.5,1.3,1.8,1.7c.4.5,1,1.4,1.4,2s.7,1.5,1,1.9.2.2.4.2c1.7,0,3.4.2,5.1.3.2-1.1.5-2.1.7-3.2.4-2,.6-4.1,1.1-6.1.2,0,0,.2,0,.3,0,1-.2,2.1-.3,3.1s-.1.7,0,1c0,.1.2.1.3.1.8.2,3.8.9,4.6.8,1.8-.2,2.8-.4,4.7,0s4,2,5,4.1.4.9.5,1.3c.2,0,0-.2,0-.3,0-.2-.1-.7-.2-1-.2-.6-.3-1.2-.5-1.7s-.3-.8-.4-1.1c-.2-.5-2.3-2-2.8-2.4-1.8-1.5-3.6-2.9-5.4-4.4s-3-2.6-4.5-3.8c-.2-2.8,0-5.8-.7-8.5s-.4-1.6-.6-1.9-1.2-.6-1.5-.7c-2.5-1-4.7-1.7-7.2-2.5-.8-.3-1.4-.5-2.2-.7ZM72.7,8.4l-6.8,1.5h.7c0,0,5.3-.4,5.3-.4h.2c-.4,4.3-.6,8.4-.6,12.6,0,1.1,0,1.9,0,2.8s0,1.1,0,1.6-1.6.4-2,.4c.4.5,1.8.3,2.2.1s.3-.3.3-.5c0-1.2,0-3.2,0-4.3,0-1.8,0-3.6,0-5.5l.5-8.3ZM74.8,12.1c.4,0,.9-.2,1-.6s0-1.5,0-1.8c0-.4-.5-.3-.8-.3.1.2.3.3.3.6,0,.4,0,1.6-.2,1.9s-.3.1-.4.3ZM72.6,19.6c0,2,0,3.9,0,5.9,0,0,1.1-.1,1.2-.2s.2,0,.2-.1c0-4.2.2-8.5,0-12.7-.8-.5-.2-2-.4-2.7s-.4-.2-.6-.2c-.2,1.6-.2,3.2-.3,4.7s-.2,3.5-.3,5.3ZM75.7,19.2,78.9,18.6c0-1.8,0-3.5,0-5.3s0-1.5-.1-1.8-1.7-.5-2-.7-.1-.4-.3-.4v1.4c0,.3-.6.5-.7.6s0,.1,0,.2v8.7s2.1,1.8,2.1,1.8c.3.1.5,0,.7,0s.2,0,.3,0,0,0,0,0c0-.6,0-1.2,0-1.8v-2.5ZM79.6,18.6c0,1.4,0,2.8,0,4.2.5,0,1-.1,1.5-.3s.3-.1.3-.3l.7-5.4-.5-4.7-2.2-.6c0,2.3,0,4.7,0,7.1ZM59.9,12.2c-1.1,0-1.2.7-1.4,1.6s-.3,1.4-.3,1.7.5.4.7.5c.4,0-.2-.2-.2-.2-.2-.3.3-2.6.6-2.9s.6,0,.6-.6ZM61.6,12.5h-.6c-.7,4.7-1.1,9.4-1,14.2h1.6v-14.2ZM66.3,13.7l-3.2-.6c-.1.8-.2,1.7-.2,2.6,0,1.4-.1,2.8-.1,4.2s0,2.1.2,3.1c.4.4,1.7,1.7,2.2,1.9.2,0,.8,0,1.1,0v-11.1ZM67,24.8c.3-.2,1.5,0,1.7-.2l1-3.5-.2-6.6c0,0-.1-.1-.2-.2-.3-.1-2.1-.5-2.3-.5v10.8ZM35.7,32.4c-.2,0-2,1.5-2.1,1.9-.5.5-.7.8-1,1.4s-.9,1.3-.8,1.4c1.4,0,2.8,0,4.2,0,4.5-.2,9.1-.4,13.7-.6s1.5,0,2.2,0,2-.7,2.1-.8c.2-.1,0-.5,0-.7,0-.8,0-1.6,0-2.4,1.5-1,3.6-1.1,5.3-.8.1.2.3.5.4.7s0,.5.3.7.8-.9.9-1.1c4.2-5.4,10-5.2,13.6.6.2.3,1,2.1,1.1,2.2.2.1.8,0,1,0-1.6-3.8-4.4-7.3-8.8-7.7-9.3,1.1-18.6,2-27.9,3.1-1.5.4-3.1,1-4.3,2.1ZM62.8,31c-.7.7-1.4,1.4-1.9,2.2s-.5.7-.2,1.1c1.7.2,3.5.1,5.2.2s2.1.1,3.2.2,1.8.2,2.4,0,.2,0,.1-.1c0-.3-.5-1.1-.7-1.4-1.4-2.4-3.5-3.9-6.4-3.5s-1.3.8-1.7,1.2ZM91.6,31c.1.1.8-.4,1-.5,0-.1-.9-.2-1-.2v.7ZM90.8,30.4c-.1,0-1.1,0-1.3,0,0,.4.2.8.3,1.2,0,0,1.1-.5,1.2-.6s-.1-.7-.1-.7ZM88.9,30.6c0,0-1.2.4-1.2.5-.1.4.3,1.2.4,1.6,0,0,1.1-.7,1.1-.8,0-.3-.3-1-.3-1.3ZM87.2,31.4c0,0-1.3.8-1.3.9,0,.3.5,1.1.4,1.5.6-.3.8-.6,1.2-.9l-.4-1.6ZM83.4,31.5c0,.5-.3,1.4.4,1.6s1-.3,1-.5-1.2-.9-1.4-1.1ZM91.3,32c0,0-.9.3-1,.4-.1.2.3.8.2,1,0,0,1.1-.5,1.1-.5,0-.1-.3-.8-.3-.9ZM58.6,33c0,0,0-.3-.1-.4-.2-.3-2.8,0-3.3.4v3.5s-1.8.5-1.8.5l-.2,13.9c0,.1,2.4.6,2.7.7,1.2.3,2.9.9,4.1.9,2.3,0,5-.5,7.4-.7,5.3-.5,10.7-.8,16-1.3s.4,0,.6,0c0-.3,0-.5,0-.7.2-3.6,0-7.6,0-11.3,0-.5,0-.7-.3-1.1s0-.3-.3-.5c-.4-.4-1.7-.2-2.2-.2-5.8-.3-11.6-.6-17.4-.9s-2.6,0-4,0c-.1,0-.2,0-.3-.1-.3-.4-.7-1.7-1-2.2s-.2-.2-.2-.3ZM89.9,33.5c.1-.2-.3-1-.4-1l-1.1.6.3,1s1.1-.5,1.1-.5ZM85,35.3c0,0,.8-1,.9-1.1,0-.2-.3-1-.4-1.2-.1,0-.8.8-.9,1,0,.4.4.9.4,1.3ZM87.2,35.4c.1,0,1-.8,1-.9s-.5-1.2-.6-1.2l-1,.9.5,1.2ZM89.6,35.5c0,0,.9-.7.9-.7,0,0-.3-.9-.4-.9-.2.1-1,.5-1,.7,0,.3.4.7.4,1ZM28.4,34.7s0-.2,0-.2c-.5,0-2.4,0-2.6.5s0,2.5,0,2.7l-2,.4-.2,10.3c0,.1.7.1.9.1,1.5.3,2.7.3,4.2.4,6.8.5,13.6.9,20.4,1.2s1.9,0,2.9,0c0-1,0-1.9,0-2.9,0-3,.3-6,.3-9s0-.5,0-.8c-1.6,0-3.1,0-4.7,0-5.4.2-10.7.4-16.1.6s-3.1,0-4.7,0c.8-.5,1.5-.8,2.4-1.1s.2,0,.3,0c-.3-.8-.7-1.8-1.1-2.5ZM86.3,34.7c-.2.1-.2.2-.2.2s-.6.9-.7,1c0,.3.3.8.3,1.1,0,0,1-1,1-1.1,0-.3-.4-.9-.4-1.3ZM88.6,36.3c.1-.1.4-.2.4-.4s-.4-.9-.5-.9c-.2.3-.8.7-.8,1s.3.5.4.7c.1,0,.5-.3.6-.4ZM84.8,37.4s.2-.4.2-.5c0-.1-.5-1.2-.7-1.1-.3.5,0,.4.1.7s.1.5.2.7,0,.3.2.1ZM92,41.5c-.1.3-.1.8,0,1.2,0,1.8.4,4.3,2,5.5,2.6,2,4.1-2.9,4.2-4.8s-.1-4.4-1.3-6-3.4-.8-4.2,1.1-.6,1.9-.6,3ZM87.1,36.6c-.1,0-.9.8-.9.9s.4,1.1.5,1.1c.1-.3.8-.9.8-1.1s-.3-.7-.3-.9ZM85,40c.1,0,.9-1,.9-1.1s-.7-1.2-.7-1.2c-.5-.1-.5,2.1-.2,2.3ZM35.7,51.5c-.2-.2-1.5-.1-1.9-.3,0,.4.5.9.8,1.2.6.7,1.7,1.8,2.5,2.3,2.5,1.5,5.4,1.6,8.2,2.1l-3.2-1c-2.3-.9-4.5-2.1-6.2-4s0-.3-.1-.3ZM84.9,53c-.3-.2-.7-.9-1-1l-4.4.3c-.7.5-.8.7.2.6s3.1-.3,4.4-.2.6.2.9.3ZM74.7,55.2c.2,0,.2-.1.3-.2.4-.5,1.4-2.1,1.5-2.7s-.7,0-.8,0-.7,1.3-.8,1.5c-3.2,5.4-8.7,7-13.1,1.9s-.5-1-.9-1c-.3-.8-.5-1.4-1.5-1,0,0,.4.7.4.8.1.2.3.3.4.4,2.4,3.5,5.6,5.6,10,4.2s3.9-2.3,4.3-3.6c0,0,0-.1,0-.2s0,0,0,0ZM65.6,57.5c2.9.5,4.9-1.9,5.8-4.4s.1-.3.1-.5l-10.2.9c0,.4.4.8.6,1.1.8,1.1,2.3,2.6,3.7,2.9Z"/>
  <path d="M18.7,17L60.1,6.6c-1,.7-1.4,1.6-1.6,2.8s0,.9-.2,1l-36.2,8.7v16c0,.1,0,.2-.2.2-.4.2-1.2.2-1.7.3v14.9c0,0,1.8.5,1.8.5v3.6s-.1.2-.1.2c-.9,0-2.1.4-3,.5s-.3,0-.3-.1V17Z"/>
  <path d="M108.1,14.2v45.9l-3.2-.3v-4.8c1.3-.3,2.2-1.5.8-2.3-.3-.2-.8-.2-.8-.6V16.3s-17.2-4.5-17.2-4.5c0-.5-.2-1.1-.4-1.7-.2-.6-.4-1.1-.7-1.5,7.1,1.8,14.3,3.7,21.4,5.5Z"/>
  <path d="M57.5,33.7c1.1-.3,1.4,1.7.8,2.4-1.2,1.3-1.9-2.1-.8-2.4ZM57.6,34.1c-.5-.3-.6,1.6-.1,1.8s.3-.6.3-.7c0-.2-.1-1.1-.2-1.2Z"/>
  <path d="M27,35.8c-.1.3,0,1.1.4,1,.1-.3.2-1-.1-1.1s-.3,0-.3,0c0-.1-.1-.3.2-.3,1.4-.3,1.3,1.9,0,1.6s-.5-.6-.5-.9.1-.3.2-.4Z"/>
  <path d="M97.2,40.3c.4,2.1.3,5-1,6.8s-1.8.9-2.6,0c-1.2-1.3-1.4-3.7-1.3-5.4s.7-4.5,2.6-4.6,2.1,2,2.4,3.1ZM93.2,41.2c-.3,1-.2,3.9,1.1,4.2s2.1-2.2,1.9-3.3,0-.2,0-.2c-.3-2.4-2.2-3.4-3-.6ZM93.5,46.6c.7.7,1.6-.2,1.6-1-.4.3-.8.4-1.3,0,0,.3.4.2.4.5s-.4.5-.7.4Z"/>
  <polygon points="102.6 93.7 64 93.7 64 93.7 25.4 93.7 25.4 109.3 64 118.3 64 118.3 64 118.3 64 118.3 64 118.3 102.6 109.3 102.6 93.7"/>
  <polygon points="105.5 93.7 105.5 111.4 64 121.3 22.5 111.4 22.5 93.7 12.5 93.7 19.3 95.8 19.4 113.6 64 124.4 108.6 113.6 108.7 95.8 115.5 93.7 105.5 93.7"/>
  <g>
    <path class="st5" d="M53.6,68.4l2,13.9,2-13.9h4.4v19.8h-3v-14.5l-2.2,14.3c0,.1-.1.1-.2.1-.7.1-1.7,0-2.4,0l-2.3-14.5v14.5h-2.8v-19.8h4.5Z"/>
    <polygon class="st5" points="78.4 68.4 81.5 80.2 81.5 68.4 84.2 68.4 84.2 88.2 81 88.2 77.3 73.8 77.3 88.2 74.5 88.2 74.5 68.4 78.4 68.4"/>
    <path class="st5" d="M97.8,87.3c-.9-.9-1.2-2.1-1.3-3.3.2-3.7-.2-7.6,0-11.2s1.5-4.4,4-4.6,4.9.9,5.3,3.7c0,3.9.3,8.1.1,12s-.6,3-1.9,3.9-4.8,1-6.3-.5ZM101,71c-1,0-1.4.8-1.5,1.8-.1,3.5,0,7.5,0,11.1,0,1,.5,1.9,1.6,1.9s1.6-.7,1.6-1.7c.2-3.6,0-7.6,0-11.1,0-1.1-.5-1.9-1.8-1.8Z"/>
    <path class="st5" d="M21.6,88.2l3.1-19.6h0c0-.1,4.1-.2,4.1-.2l3.3,19.8h-3.1l-.5-3.8h-3.5s-.6,3.8-.6,3.8h-2.9ZM28.2,81.7l-1.3-9.7-1.3,9.7h2.7Z"/>
    <path class="st5" d="M116.6,73.9h-3v-1.6c0-.3-.4-.9-.7-1.1-1.1-.6-2.2,0-2.3,1.3-.3,3.3,4.1,5,5.4,7.8s.9,7.1-2.5,8-6.2-.7-6.2-4.2v-1.8h3v1.6c0,.1.2.7.2.9.5,1.1,2.4,1,2.8-.2,1.3-4.1-5-6-5.8-10.1-.8-4,1.2-6.9,5.5-6.3,1.9.2,3.5,2,3.5,3.9v1.8Z"/>
    <path class="st5" d="M35.3,68.4l1.9,14.9c.2,0,.2-.3.3-.5.7-4,1.1-8.4,1.6-12.5s.2-1.3.2-1.9h3l-3,19.8h-4.2s-3-19.8-3-19.8h3.2Z"/>
    <path class="st5" d="M15.6,80.2v8h-3.1v-19.8h5.4c1.2,0,2.7,1,3.3,2.1s.8,5.2.3,6.8-2,2.9-3.7,2.9h-2.1ZM15.6,77.3h1.9c.4,0,.9-.6,1-1,.1-.5.1-3.3,0-3.9s-.2-.6-.3-.7-.6-.4-.7-.4h-2v6Z"/>
    <path class="st5" d="M72.7,68.4v2.9h-5.3v5.1h4.1s.1.1.1.1v2.6s-.1.1-.1.1h-4.1v6h5.3v2.9h-8.4v-19.8h8.4Z"/>
    <path class="st5" d="M95.4,68.4v2.7s-.1.1-.1.1h-3.2v16.9h-3.1v-16.9h-3.2v-2.9h9.7Z"/>
    <rect class="st5" x="43.7" y="68.4" width="3.1" height="19.8"/>
  </g>
  <g>
    <path class="st3" d="M37.9,95.8c0,.3,0,.6,0,.9,0,.3,0,.6,0,.9,0,.3,0,.6,0,.8,0,.3,0,.5,0,.8,0,.3,0,.5,0,.8,0,.2,0,.5,0,.7,0,.2,0,.5,0,.7,0,.2,0,.5,0,.7,0,.2,0,.5,0,.7s0,.5,0,.8,0,.5,0,.8,0,.5,0,.8c0,.3,0,.6,0,.9,0,.3,0,.6,0,.9,0,.2,0,.5,0,.7,0,.2-.1.4-.2.6,0,.2-.2.3-.4.5s-.3.3-.5.4c-.2.1-.4.2-.6.3-.2,0-.4.1-.7.2-.2,0-.5,0-.7,0-.3,0-.5,0-.8-.1-.3,0-.5-.1-.8-.2-.2,0-.5-.2-.7-.3-.2-.1-.5-.3-.7-.4-.2-.2-.4-.3-.6-.5-.2-.2-.3-.4-.5-.6-.1-.2-.3-.4-.4-.6-.1-.2-.2-.4-.2-.6,0-.2,0-.4,0-.6v-10c.3,0,.6,0,.8,0s.5,0,.7,0c.2,0,.5,0,.8,0v1c0,.3,0,.6,0,.9v1.7c0,.3,0,.5,0,.8v1.5c0,.3,0,.5,0,.8v1.7c0,.3,0,.6,0,.9v1c0,.2,0,.5.1.6,0,.2.2.4.3.5.1.1.3.3.5.3s.4.2.6.2c.2,0,.4,0,.6,0,.2,0,.3,0,.5-.2.1,0,.2-.2.3-.4,0-.2.1-.4.1-.6s0-.6,0-1,0-.6,0-.9v-.8c0-.3,0-.5,0-.8s0-.5,0-.8,0-.5,0-.7v-.7c0-.2,0-.5,0-.7s0-.5,0-.8v-.8c0-.3,0-.5,0-.8s0-.6,0-.9,0-.6,0-1c.3,0,.6,0,.8,0,.2,0,.5,0,.7,0,.2,0,.5,0,.8,0Z"/>
    <path class="st3" d="M40.2,110.9c0-.3,0-.7,0-1,0-.3,0-.6,0-.9,0-.3,0-.6,0-.9s0-.6,0-.9c0-.3,0-.6,0-.8,0-.3,0-.5,0-.8s0-.5,0-.8c0-.3,0-.5,0-.8,0-.3,0-.5,0-.8,0-.3,0-.5,0-.8,0-.3,0-.5,0-.8s0-.5,0-.8c0-.3,0-.5,0-.8,0-.3,0-.5,0-.8,0-.3,0-.6,0-.9,0-.3,0-.6,0-.9,0-.3,0-.6,0-.9,0-.3,0-.6,0-1,.3,0,.6,0,.8,0,.3,0,.5,0,.7,0,.2,0,.5,0,.7,0s.5,0,.7,0c.3,0,.5,0,.8,0,.3,0,.6,0,.9,0s.5,0,.8.2c.2,0,.5.2.7.3.2.1.4.3.6.4.2.2.3.3.5.6.1.2.3.4.4.7.1.2.2.5.3.8,0,.3.1.6.2.9,0,.3,0,.7,0,1,0,.3,0,.6,0,.9,0,.3,0,.6-.2.8,0,.3-.2.5-.3.7-.1.2-.2.4-.4.6-.2.2-.3.3-.5.5-.2.1-.4.3-.7.4.1.3.2.6.3.9s.2.6.3.8c0,.3.2.5.3.8,0,.3.2.5.2.7,0,.2.2.5.2.7,0,.2.2.5.2.7,0,.2.2.5.2.8,0,.3.2.5.3.8,0,.3.2.6.3.9s.2.6.3,1c-.3,0-.6-.1-.9-.2-.3,0-.5-.1-.8-.2-.3,0-.5-.1-.9-.2,0-.3-.2-.7-.3-1,0-.3-.2-.6-.3-.9,0-.3-.2-.5-.2-.8,0-.3-.2-.5-.2-.8,0-.2-.1-.5-.2-.7s-.2-.5-.2-.7c0-.3-.2-.5-.2-.8,0-.3-.2-.5-.3-.8,0-.3-.2-.6-.3-.9-.3,0-.5,0-.7,0-.2,0-.4,0-.7,0,0,.3,0,.6,0,.9,0,.3,0,.6,0,.9,0,.3,0,.5,0,.8,0,.3,0,.5,0,.8,0,.3,0,.5,0,.8,0,.3,0,.5,0,.8,0,.3,0,.6,0,.9,0,.3,0,.6,0,.9-.3,0-.6-.1-.8-.2-.2,0-.5-.1-.7-.2-.2,0-.5-.1-.8-.2ZM42.6,97.9c0,.3,0,.6,0,.9,0,.3,0,.5,0,.8,0,.3,0,.5,0,.7,0,.2,0,.5,0,.7,0,.3,0,.5,0,.8,0,.3,0,.6,0,.9.3,0,.5,0,.7,0,.2,0,.4,0,.7,0,.2,0,.4,0,.6,0,.2,0,.3,0,.4,0,.3,0,.5-.2.6-.4.1-.2.2-.5.3-.8,0-.2,0-.3,0-.5s0-.4,0-.6c0-.2,0-.4,0-.6,0-.2,0-.4,0-.5,0-.2,0-.3-.1-.4s-.1-.3-.2-.4c0-.1-.2-.3-.4-.4-.2-.1-.3-.2-.6-.2-.2,0-.5,0-.7,0-.3,0-.4,0-.6,0-.2,0-.4,0-.6,0Z"/>
    <path class="st3" d="M50.2,113.1c0-.3,0-.7,0-1,0-.3,0-.7,0-1s0-.6,0-.9c0-.3,0-.6,0-.9s0-.6,0-.9c0-.3,0-.6,0-.8s0-.5,0-.8c0-.3,0-.5,0-.8,0-.3,0-.5,0-.8,0-.3,0-.5,0-.8,0-.3,0-.5,0-.8,0-.3,0-.5,0-.8,0-.3,0-.5,0-.8,0-.3,0-.5,0-.8,0-.3,0-.6,0-.8,0-.3,0-.6,0-.9s0-.6,0-.9c0-.3,0-.6,0-.9s0-.6,0-1c0-.3,0-.7,0-1,.3,0,.5,0,.8,0,.2,0,.5,0,.7,0s.4,0,.6,0c.2,0,.4,0,.7,0s.5,0,.8,0c.3,0,.5,0,.7,0,.2,0,.5,0,.7.1.2,0,.4.1.6.2.3.1.5.3.7.5.2.2.4.4.6.6.2.2.3.5.4.7.1.3.2.5.3.8,0,.2,0,.4.1.6,0,.2,0,.4,0,.6s0,.4,0,.6c0,.3,0,.4,0,.7,0,.3,0,.5,0,.7,0,.2,0,.4,0,.6,0,.2,0,.3-.1.5,0,.2-.1.3-.2.4-.1.2-.3.5-.5.6-.2.2-.4.4-.7.5.2.1.4.3.5.4.2.1.3.3.4.5s.2.4.3.6c0,.2.2.4.2.7,0,.3.1.5.1.8,0,.3,0,.6,0,1,0,.2,0,.4,0,.5,0,.2,0,.3,0,.5,0,.3,0,.7,0,1,0,.3,0,.6-.1.8,0,.3-.1.5-.2.7s-.2.4-.3.6-.2.4-.4.5c-.1.1-.3.3-.5.4-.2.1-.4.2-.6.2s-.4,0-.7.1c-.2,0-.5,0-.8,0-.3,0-.6,0-.9-.1-.3,0-.6-.1-.9-.2s-.5-.1-.8-.2c-.2,0-.5-.1-.8-.2s-.6-.1-.9-.2ZM52.6,98.2c0,.3,0,.6,0,.9,0,.3,0,.5,0,.8s0,.5,0,.7c0,.2,0,.5,0,.7,0,.3,0,.5,0,.8s0,.6,0,.9c.2,0,.4,0,.5,0,.2,0,.3,0,.5,0,.3,0,.5,0,.7,0,.2,0,.4,0,.5-.2.2,0,.3-.2.4-.3,0-.1.2-.3.2-.5,0-.2.1-.4.1-.6s0-.5,0-.8c0-.3,0-.5,0-.8,0-.2,0-.4-.2-.6s-.2-.4-.3-.5c-.1-.1-.2-.3-.4-.4-.2,0-.3-.2-.6-.2-.2,0-.5,0-.7,0-.2,0-.3,0-.5,0s-.3,0-.5,0ZM52.6,105.4c0,.3,0,.6,0,.9,0,.3,0,.6,0,.8,0,.3,0,.5,0,.8,0,.2,0,.5,0,.7s0,.5,0,.8,0,.5,0,.8c0,.3,0,.6,0,.9.2,0,.4,0,.5,0s.3,0,.5,0c.2,0,.5,0,.7,0s.4,0,.5,0c.3-.1.5-.3.6-.5,0-.1.1-.3.2-.4,0-.2,0-.3,0-.5,0-.2,0-.4,0-.6,0-.2,0-.4,0-.7,0-.2,0-.5,0-.7,0-.2,0-.4,0-.6,0-.2,0-.3-.1-.5,0-.2-.1-.3-.2-.4,0-.1-.2-.2-.3-.3s-.2-.2-.4-.3c-.1,0-.3-.1-.5-.2-.2,0-.4,0-.6-.1-.2,0-.4,0-.5,0s-.3,0-.5,0Z"/>
    <path class="st3" d="M58.9,115.1c0-.3.1-.6.2-.9,0-.3.1-.6.2-.9s.1-.6.2-.9c0-.3.1-.6.2-.9,0-.3.1-.6.2-.8,0-.3.1-.5.2-.8,0-.3.1-.5.2-.8s.1-.5.2-.8c0-.3.1-.5.2-.8,0-.3,0-.5.1-.8,0-.3,0-.5.1-.8,0-.3,0-.5.1-.8,0-.3,0-.5.1-.8,0-.3,0-.5.1-.8,0-.3,0-.5.2-.8,0-.3.1-.5.2-.8s.1-.5.2-.8c0-.3.1-.6.2-.8s.1-.6.2-.9c0-.3.1-.6.2-.9,0-.3.1-.6.2-.9,0-.3.1-.6.2-1,0-.3.1-.7.2-1,.3,0,.5,0,.7,0s.4,0,.6,0c.2,0,.4,0,.7,0,0,.4.1.7.2,1,0,.3.1.7.2,1,0,.3.1.6.2.9s.1.6.2.9c0,.3.1.6.2.9,0,.3.1.6.2.8,0,.3.1.6.2.8,0,.3.1.5.2.8,0,.3.1.5.2.8,0,.3,0,.5.1.8,0,.3,0,.5.1.8,0,.3,0,.5.1.8,0,.3,0,.5.1.8s0,.5.1.8c0,.3,0,.5.2.8,0,.3.1.5.2.8,0,.3.1.5.2.8s.1.5.2.8c0,.3.1.6.2.8,0,.3.1.6.2.9,0,.3.1.6.2.9,0,.3.1.6.2.9,0,.3.1.6.2,1-.3,0-.6.1-.8.2-.2,0-.5.1-.7.2-.2,0-.5.1-.8.2,0-.3-.1-.6-.2-.9s0-.5-.1-.8c0-.3,0-.5-.1-.8,0-.3,0-.5-.1-.8s0-.6-.2-.9c-.3,0-.6.1-.9.2s-.5,0-.8,0c-.2,0-.5,0-.8-.1-.3,0-.6,0-.9-.2,0,.3-.1.6-.2.9s0,.5-.1.8c0,.3,0,.5-.1.7,0,.3,0,.5-.1.8s0,.6-.2.9c-.3,0-.6-.1-.8-.2-.2,0-.5-.1-.7-.2-.2,0-.5-.1-.8-.2ZM64.8,109c0-.3-.1-.6-.1-.9,0-.3,0-.6-.1-.8,0-.3,0-.5-.1-.8,0-.2,0-.5-.1-.7,0-.2,0-.5-.1-.7,0-.2,0-.5-.1-.7s0-.5-.1-.8c0-.3,0-.6-.1-.9,0-.3,0-.6-.1-.9,0,0,0,0,0,0,0,.3-.1.6-.1.9,0,.3,0,.6-.1.8s0,.5-.1.8c0,.2,0,.5-.1.7,0,.2,0,.5-.1.7,0,.2,0,.5-.1.7,0,.2,0,.5-.1.8,0,.3,0,.5-.1.8,0,.3,0,.6-.1.9.3,0,.6,0,.8.1s.5,0,.7.1c.2,0,.5,0,.8-.1Z"/>
    <path class="st3" d="M69.5,115c0-.3,0-.7,0-1,0-.3,0-.6,0-.9,0-.3,0-.6,0-.9s0-.6,0-.9,0-.6,0-.8c0-.3,0-.6,0-.8s0-.5,0-.8,0-.5,0-.8c0-.3,0-.5,0-.8,0-.3,0-.5,0-.8,0-.3,0-.5,0-.8,0-.3,0-.5,0-.8,0-.3,0-.5,0-.8s0-.5,0-.8c0-.3,0-.5,0-.8s0-.5,0-.8,0-.5,0-.8,0-.5,0-.8,0-.6,0-.8c0-.3,0-.6,0-.9,0-.3,0-.6,0-.9,0-.3,0-.6,0-.9,0-.3,0-.6,0-1,.3,0,.6,0,.8,0,.2,0,.5,0,.7,0s.5,0,.8,0c.1.3.2.6.3.9s.2.6.3.9.2.5.3.8.2.5.3.8c0,.2.2.5.2.7,0,.2.2.5.2.7,0,.2.2.5.2.7,0,.2.2.5.2.7s.2.5.2.7.2.5.2.7c0,.2.2.5.3.7,0,.2.2.5.3.8s.2.5.3.8.2.6.3.9c0,0,0,0,0,0,0-.3,0-.7,0-1,0-.3,0-.6,0-.9s0-.6,0-.8c0-.3,0-.5,0-.8,0-.3,0-.5,0-.8,0-.3,0-.5,0-.8,0-.2,0-.5,0-.7,0-.2,0-.5,0-.8,0-.3,0-.5,0-.8,0-.3,0-.5,0-.8,0-.3,0-.6,0-.8s0-.6,0-.9,0-.6,0-1c.3,0,.6,0,.8,0,.2,0,.5,0,.7,0,.2,0,.5,0,.8,0,0,.3,0,.7,0,1,0,.3,0,.7,0,1s0,.6,0,.9c0,.3,0,.6,0,.9,0,.3,0,.6,0,.9,0,.3,0,.6,0,.8s0,.5,0,.8c0,.3,0,.5,0,.8,0,.3,0,.5,0,.8,0,.3,0,.5,0,.8,0,.3,0,.5,0,.8,0,.3,0,.5,0,.8,0,.3,0,.5,0,.8s0,.5,0,.8c0,.3,0,.6,0,.8,0,.3,0,.6,0,.9,0,.3,0,.6,0,.9,0,.3,0,.6,0,.9,0,.3,0,.6,0,1s0,.7,0,1c-.3,0-.6.1-.8.2-.2,0-.5.1-.7.2-.2,0-.5.1-.8.2-.1-.3-.2-.6-.3-.9-.1-.3-.2-.6-.3-.8,0-.3-.2-.5-.3-.8,0-.3-.2-.5-.3-.8,0-.2-.2-.5-.3-.7s-.2-.5-.3-.7c0-.2-.2-.5-.3-.7,0-.2-.2-.5-.3-.7,0-.2-.2-.5-.3-.8s-.2-.5-.3-.8-.2-.5-.3-.8-.2-.6-.3-.9c-.1-.3-.2-.6-.3-1,0,0,0,0,0,0,0,.3,0,.7,0,1,0,.3,0,.6,0,.9,0,.3,0,.6,0,.9s0,.6,0,.8c0,.3,0,.5,0,.8,0,.3,0,.5,0,.8,0,.3,0,.5,0,.8s0,.5,0,.8c0,.3,0,.5,0,.8,0,.3,0,.5,0,.8s0,.6,0,.9,0,.6,0,.9,0,.7,0,1c-.3,0-.6.1-.8.2s-.5.1-.7.2-.5.1-.8.2Z"/>
    <path class="st3" d="M79.9,99.8c0-.2,0-.4,0-.7s0-.4.1-.6c0-.2.1-.4.2-.6.1-.3.3-.5.4-.7.2-.2.3-.4.5-.6.2-.2.4-.3.6-.4s.4-.2.7-.3c.2,0,.5-.1.7-.2.2,0,.5,0,.7,0s.5,0,.7,0,.5.1.7.2c.2,0,.5.2.7.3.2.1.4.2.6.4.2.1.4.3.5.5.2.2.3.4.4.6.1.2.2.5.3.7,0,.3,0,.6,0,.9,0,.3,0,.6,0,.9,0,.3,0,.6,0,.8s0,.5,0,.8,0,.5,0,.7,0,.5,0,.7c0,.2,0,.5,0,.7,0,.2,0,.5,0,.7,0,.3,0,.5,0,.8,0,.3,0,.5,0,.8,0,.3,0,.6,0,.9,0,.2,0,.4,0,.6,0,.2,0,.4-.1.6,0,.2-.1.4-.2.5-.1.3-.3.5-.4.7s-.3.4-.5.6c-.2.2-.4.4-.6.6s-.4.3-.7.5c-.2.1-.5.2-.7.3-.2,0-.5.2-.7.2-.2,0-.5,0-.7.1s-.5,0-.7,0c-.2,0-.5,0-.7-.2s-.4-.2-.6-.3c-.2-.1-.4-.3-.5-.4s-.3-.4-.4-.6c0-.2-.1-.3-.2-.5,0-.2,0-.4-.1-.6,0-.2,0-.4,0-.7,0-.3,0-.6,0-.9,0-.3,0-.6,0-.9,0-.3,0-.5,0-.8,0-.3,0-.5,0-.8s0-.5,0-.7c0-.2,0-.5,0-.7,0-.2,0-.5,0-.7,0-.2,0-.5,0-.8,0-.3,0-.5,0-.8,0-.3,0-.6,0-.9,0-.3,0-.6,0-.9ZM82.3,108.3c0,.3,0,.5.1.7s.2.3.4.4c.2.1.3.2.5.2.2,0,.4,0,.6,0,.2,0,.4-.1.6-.2.2-.1.4-.2.5-.4.2-.2.3-.3.4-.6s.1-.5.1-.7c0-.3,0-.6,0-.9,0-.3,0-.6,0-.9,0-.3,0-.5,0-.8,0-.3,0-.5,0-.8,0-.3,0-.5,0-.7,0-.2,0-.5,0-.7,0-.3,0-.5,0-.8,0-.3,0-.5,0-.8,0-.3,0-.6,0-.9,0-.3,0-.6,0-.9,0-.3,0-.5-.1-.7,0-.2-.2-.4-.4-.5-.2-.1-.3-.2-.5-.3-.2,0-.4,0-.6,0-.2,0-.4,0-.6.1-.2,0-.4.2-.5.3-.2.1-.3.3-.4.5,0,.2-.1.5-.1.7,0,.3,0,.7,0,1,0,.3,0,.6,0,.9,0,.3,0,.6,0,.8,0,.3,0,.5,0,.8,0,.3,0,.5,0,.8,0,.3,0,.5,0,.8s0,.5,0,.8c0,.3,0,.6,0,.8,0,.3,0,.6,0,.9,0,.3,0,.6,0,1Z"/>
    <path class="st3" d="M97.9,99.5c-.3,0-.6,0-.8,0s-.5,0-.7,0-.5,0-.8,0c0-.2,0-.3,0-.4s0-.4,0-.6c0-.2-.2-.4-.3-.5-.1-.2-.3-.3-.5-.3s-.5-.1-.8,0c-.3,0-.6,0-.8.2-.2.1-.4.3-.5.4-.1.2-.2.4-.3.6,0,.2,0,.5,0,.7,0,.3,0,.5,0,.7,0,.2,0,.3.2.5,0,.1.2.3.4.3.2,0,.4.2.7.2.2,0,.4.1.6.2.2,0,.4,0,.6.1s.4,0,.6.1c.3,0,.5.1.7.2.2,0,.4.2.6.2.2,0,.3.2.4.3s.2.2.3.4c0,.1.2.3.2.4,0,.2.1.3.1.5,0,.2,0,.4,0,.6,0,.2,0,.4,0,.7s0,.5,0,.8c0,.3,0,.5-.2.8,0,.2-.2.5-.3.7-.1.2-.2.4-.4.6-.2.2-.4.4-.6.6s-.5.4-.7.5c-.2.1-.4.2-.6.3s-.4.2-.7.2c-.2,0-.5.1-.7.2-.3,0-.6.1-.8.1-.3,0-.5,0-.8,0-.3,0-.5,0-.7-.2s-.4-.2-.6-.3c-.2-.1-.3-.3-.5-.4s-.3-.3-.4-.5c-.1-.2-.2-.4-.2-.6s0-.5,0-.7c0-.3,0-.5,0-.8.3,0,.6,0,.8-.1s.5,0,.7-.1.5,0,.8-.1c0,.3,0,.4,0,.6,0,.2,0,.4,0,.5,0,.2.2.3.3.4.1.1.3.2.5.2s.5,0,.8,0c.2,0,.4,0,.5-.1s.3-.1.4-.2c.2-.1.4-.3.5-.5.1-.2.2-.4.2-.7,0-.2,0-.5,0-.8,0-.4,0-.6,0-.9,0-.2,0-.4-.2-.5-.1-.1-.3-.2-.4-.3-.2,0-.4-.1-.7-.2-.2,0-.4,0-.6-.1-.2,0-.3,0-.5-.1-.2,0-.4,0-.6-.1-.3,0-.7-.2-.9-.3s-.5-.3-.7-.4c-.2-.2-.4-.3-.5-.5-.1-.2-.2-.4-.3-.6,0-.2-.1-.5-.2-.8,0-.3,0-.6,0-.9,0-.3,0-.5,0-.8,0-.3.1-.5.2-.8,0-.2.2-.5.3-.7.1-.2.3-.4.5-.6.2-.2.4-.3.6-.5.2-.1.4-.3.7-.4.2,0,.4-.1.5-.2s.4,0,.6-.1c.2,0,.4,0,.7,0s.6,0,.9,0,.5.1.8.2c.2,0,.5.2.7.3s.4.2.6.4c.2.2.4.4.6.6.2.2.3.4.4.7,0,.2.1.5.1.7v.9Z"/>
  </g>
</svg>