<?xml version="1.0" encoding="UTF-8"?>
<svg id="uuid-2859b8c4-3991-438c-a4f6-a3fae07aff91" data-name="Layer 2" xmlns="http://www.w3.org/2000/svg" viewBox="0 0 690 406.26">
  <g id="uuid-b010ccb0-7c14-4876-aa73-78fb8d46249c" data-name="Output">
    <g>
      <g>
        <path d="M193.37,202.68c0,1.86,0,3.65,0,5.39,0,1.74,0,3.42,0,5.05,0,1.63,0,3.22,0,4.76s0,3.06,0,4.54c0,1.48,0,2.93,0,4.36s0,2.85,0,4.25,0,2.8,0,4.19,0,2.79,0,4.19c0,1.4,0,2.82,0,4.25,0,1.43,0,2.88,0,4.36,0,1.48,0,2.99,0,4.54s0,3.13,0,4.76c0,1.63,0,3.31,0,5.05,0,1.74,0,3.53,0,5.39,0,1.38-.14,2.67-.42,3.89-.28,1.21-.7,2.35-1.27,3.39-.56,1.04-1.25,2-2.05,2.86-.8.86-1.72,1.62-2.76,2.29-1.04.67-2.16,1.22-3.35,1.65-1.2.43-2.47.74-3.83.93-1.36.19-2.76.24-4.2.16-1.45-.08-2.94-.3-4.47-.64-1.54-.35-3.02-.8-4.45-1.36-1.43-.56-2.82-1.22-4.15-1.99-1.33-.76-2.59-1.6-3.78-2.5-1.19-.9-2.3-1.87-3.33-2.9-1.04-1.03-1.97-2.09-2.78-3.17-.81-1.09-1.51-2.2-2.1-3.34-.59-1.14-1.03-2.3-1.32-3.47-.29-1.17-.44-2.36-.44-3.58v-57.39c1.84,0,3.38,0,4.81,0,1.43,0,2.76,0,4.2,0,1.43,0,2.97,0,4.81,0,0,1.96,0,3.83,0,5.64,0,1.81,0,3.55,0,5.23,0,1.68,0,3.31,0,4.9,0,1.59,0,3.14,0,4.66,0,1.52,0,3.02,0,4.5,0,1.48,0,2.95,0,4.41s0,2.93,0,4.41,0,2.98,0,4.5c0,1.52,0,3.07,0,4.66s0,3.22,0,4.9,0,3.42,0,5.23c0,1.81,0,3.68,0,5.64,0,1.37.2,2.6.61,3.68.41,1.09,1.02,2.03,1.83,2.84.81.81,1.73,1.48,2.74,2,1.02.53,2.13.91,3.35,1.15,1.22.24,2.34.29,3.35.15s1.93-.47,2.74-.99c.81-.52,1.42-1.28,1.83-2.26s.61-2.2.61-3.64c0-1.89,0-3.72,0-5.48,0-1.76,0-3.46,0-5.11,0-1.65,0-3.25,0-4.8,0-1.56,0-3.08,0-4.57s0-2.95,0-4.4c0-1.45,0-2.88,0-4.3,0-1.42,0-2.84,0-4.27,0-1.42,0-2.85,0-4.3,0-1.45,0-2.91,0-4.4,0-1.49,0-3.01,0-4.57,0-1.56,0-3.16,0-4.8,0-1.65,0-3.35,0-5.11,0-1.76,0-3.58,0-5.48,1.84,0,3.38,0,4.81,0,1.43,0,2.76,0,4.2,0,1.43,0,2.97,0,4.81,0Z"/>
        <path d="M206.38,289.55c0-1.93,0-3.81,0-5.63s0-3.61,0-5.35c0-1.74,0-3.44,0-5.1,0-1.66,0-3.29,0-4.88s0-3.16,0-4.71c0-1.54,0-3.06,0-4.56,0-1.5,0-2.98,0-4.46,0-1.47,0-2.93,0-4.38,0-1.45,0-2.9,0-4.35,0-1.45,0-2.89,0-4.35,0-1.45,0-2.91,0-4.38,0-1.47,0-2.95,0-4.46,0-1.5,0-3.02,0-4.56s0-3.11,0-4.71c0-1.6,0-3.22,0-4.88,0-1.66,0-3.36,0-5.1,0-1.74,0-3.52,0-5.35s0-3.7,0-5.63c1.78,0,3.38,0,4.87,0,1.49,0,2.88,0,4.23,0,1.35,0,2.67,0,4.02,0,1.35,0,2.74,0,4.23,0,1.49,0,3.09,0,4.87,0,1.81,0,3.51.12,5.12.35,1.61.23,3.11.57,4.52,1.03,1.4.46,2.71,1.04,3.91,1.74,1.2.7,2.31,1.52,3.31,2.45s1.91,2,2.71,3.18,1.51,2.48,2.11,3.9,1.1,2.96,1.51,4.61c.4,1.66.7,3.43.9,5.32.2,1.89.3,3.89.3,6,0,1.91-.1,3.72-.29,5.42s-.49,3.3-.88,4.79c-.39,1.49-.88,2.87-1.47,4.13-.59,1.27-1.32,2.43-2.21,3.48-.88,1.05-1.91,2-3.09,2.83-1.18.84-2.51,1.56-3.98,2.18.6,1.8,1.16,3.52,1.71,5.17.54,1.65,1.06,3.23,1.56,4.77.5,1.53.98,3.02,1.45,4.47s.93,2.87,1.38,4.28c.45,1.41.9,2.8,1.35,4.19.45,1.4.89,2.79,1.35,4.22s.91,2.87,1.38,4.35c.47,1.49.95,3.02,1.45,4.61.5,1.59,1.02,3.24,1.56,4.98.54,1.73,1.11,3.55,1.71,5.47-1.95-.44-3.58-.8-5.09-1.14-1.52-.34-2.93-.66-4.44-1-1.52-.34-3.14-.7-5.09-1.14-.57-1.92-1.11-3.73-1.63-5.45-.52-1.72-1.01-3.35-1.48-4.92-.47-1.57-.93-3.08-1.37-4.54-.44-1.47-.88-2.89-1.31-4.31-.43-1.41-.86-2.81-1.29-4.21-.43-1.4-.87-2.81-1.31-4.26-.44-1.44-.9-2.91-1.37-4.44-.47-1.52-.96-3.1-1.48-4.75-.52-1.65-1.06-3.37-1.63-5.18-1.65-.21-2.89-.37-4.13-.53-1.24-.16-2.48-.32-4.13-.53,0,1.92,0,3.72,0,5.43,0,1.71,0,3.33,0,4.89,0,1.56,0,3.06,0,4.53,0,1.47,0,2.91,0,4.35,0,1.44,0,2.88,0,4.35,0,1.47,0,2.97,0,4.53,0,1.56,0,3.18,0,4.89s0,3.51,0,5.43c-1.84-.41-3.38-.76-4.81-1.08-1.43-.32-2.76-.62-4.2-.94-1.43-.32-2.97-.67-4.81-1.08ZM220.2,214.86c0,1.87,0,3.58,0,5.19,0,1.61,0,3.11,0,4.57s0,2.86,0,4.26c0,1.4,0,2.8,0,4.26s0,2.96,0,4.57c0,1.61,0,3.32,0,5.19,1.57.16,2.75.28,3.93.4,1.18.12,2.36.24,3.93.4,1.22.12,2.32.15,3.29.09.97-.06,1.82-.22,2.54-.48,1.44-.51,2.63-1.35,3.39-2.49.73-1.11,1.22-2.64,1.49-4.42.13-.89.24-1.86.3-2.9.07-1.04.1-2.16.1-3.35,0-1.19-.03-2.31-.1-3.36-.07-1.05-.17-2.03-.3-2.94-.14-.91-.34-1.76-.61-2.55-.27-.79-.61-1.53-1.02-2.2-.57-.84-1.31-1.55-2.23-2.13-.91-.58-2-1.02-3.25-1.33-1.25-.31-2.68-.49-4.27-.54-1.44-.05-2.51-.08-3.59-.11s-2.15-.07-3.59-.11Z"/>
        <path d="M264.09,302.48c0-1.99,0-3.94,0-5.84,0-1.9,0-3.75,0-5.57s0-3.59,0-5.33c0-1.74,0-3.44,0-5.12,0-1.67,0-3.32,0-4.94,0-1.62,0-3.21,0-4.79,0-1.57,0-3.13,0-4.67,0-1.54,0-3.06,0-4.58,0-1.52,0-3.02,0-4.52,0-1.5,0-3,0-4.49,0-1.5,0-2.99,0-4.49,0-1.5,0-3.01,0-4.52,0-1.51,0-3.04,0-4.58s0-3.09,0-4.67c0-1.57,0-3.17,0-4.79,0-1.62,0-3.26,0-4.94s0-3.38,0-5.12c0-1.74,0-3.51,0-5.33,0-1.81,0-3.67,0-5.57,0-1.9,0-3.84,0-5.84,1.61,0,3.07,0,4.42,0,1.36,0,2.62,0,3.84,0,1.23,0,2.42,0,3.65,0,1.23,0,2.49,0,3.84,0,1.36,0,2.81,0,4.42,0,1.47,0,2.88.09,4.21.25,1.33.17,2.59.42,3.77.75,1.18.34,2.3.76,3.33,1.26,1.56.76,2.97,1.65,4.25,2.67s2.41,2.18,3.4,3.46c.99,1.29,1.85,2.68,2.56,4.16.71,1.49,1.28,3.07,1.71,4.75.29,1.12.52,2.25.71,3.4s.33,2.31.43,3.48c.1,1.17.14,2.36.14,3.56,0,1.6,0,2.4,0,4,0,1.49-.05,2.86-.15,4.11-.1,1.25-.25,2.38-.46,3.38-.2,1.01-.46,1.95-.76,2.82s-.66,1.67-1.07,2.4c-.77,1.36-1.74,2.59-2.91,3.69-1.17,1.1-2.55,2.07-4.13,2.91,1.08.69,2.07,1.46,2.97,2.31.89.85,1.69,1.79,2.39,2.81.7,1.02,1.31,2.12,1.82,3.31.51,1.19.94,2.5,1.28,3.95.34,1.44.6,3.02.77,4.72.17,1.7.26,3.53.26,5.48,0,1.23,0,2.16,0,3.08,0,.92,0,1.85,0,3.08,0,1.93-.08,3.75-.25,5.47-.16,1.72-.41,3.33-.74,4.84-.33,1.5-.74,2.9-1.23,4.19-.49,1.29-1.07,2.46-1.73,3.53-.66,1.06-1.4,2.02-2.22,2.86-.82.84-1.74,1.56-2.76,2.15-1.02.59-2.14,1.05-3.35,1.38-1.22.33-2.53.54-3.94.63-1.41.08-2.92.04-4.53-.12-1.61-.16-3.32-.45-5.12-.85-1.88-.42-3.53-.79-5.06-1.13-1.53-.34-2.94-.66-4.35-.98-1.41-.32-2.82-.63-4.35-.98-1.53-.34-3.18-.71-5.06-1.13ZM277.9,216.69c0,1.89,0,3.61,0,5.24,0,1.62,0,3.14,0,4.61s0,2.88,0,4.29,0,2.83,0,4.29,0,2.99,0,4.61c0,1.62,0,3.35,0,5.24,1.25.12,2.18.2,3.12.29.93.09,1.87.17,3.12.29,1.53.14,2.9.13,4.1-.04,1.2-.17,2.23-.49,3.09-.98.86-.48,1.56-1.13,2.08-1.93.53-.8.96-1.74,1.32-2.82.35-1.08.61-2.3.79-3.66.18-1.36.26-2.85.26-4.49,0-1.6-.1-3.07-.29-4.41-.2-1.34-.49-2.55-.88-3.63-.39-1.08-.88-2.03-1.47-2.85-.59-.82-1.33-1.51-2.24-2.07-.9-.56-1.96-.99-3.18-1.29-1.22-.3-2.6-.48-4.13-.52-1.14-.04-1.99-.06-2.84-.09-.85-.03-1.71-.05-2.84-.09ZM277.9,257.96c0,1.88,0,3.63,0,5.28,0,1.65,0,3.2,0,4.7,0,1.5,0,2.94,0,4.35s0,2.82,0,4.24,0,2.86,0,4.35,0,3.05,0,4.7c0,1.65,0,3.4,0,5.28,1.19.23,2.09.4,2.98.57.89.17,1.79.34,2.98.57,1.4.27,2.65.4,3.74.39,1.09-.01,2.04-.16,2.83-.46,1.58-.59,2.78-1.61,3.59-3.05.41-.72.73-1.54.98-2.44s.42-1.9.51-2.98c.09-1.08.16-2.22.2-3.41.04-1.19.07-2.44.07-3.74,0-1.35-.03-2.61-.1-3.8-.07-1.18-.17-2.28-.31-3.3-.14-1.02-.34-1.97-.61-2.85-.27-.88-.6-1.73-1.02-2.45-.43-.75-.98-1.42-1.59-2.01-.61-.58-1.3-1.09-2.06-1.5-.77-.42-1.66-.76-2.68-1.05-1.02-.28-2.16-.5-3.42-.65-1.22-.15-2.13-.26-3.05-.37s-1.83-.22-3.05-.37Z"/>
        <path d="M313.94,313.65c.37-1.84.74-3.65,1.1-5.42.36-1.77.71-3.51,1.06-5.23s.68-3.39,1.01-5.05c.33-1.65.66-3.28.98-4.89s.64-3.19.95-4.75c.31-1.56.62-3.1.92-4.63s.6-3.03.9-4.53c.3-1.49.59-2.97.88-4.45.29-1.47.58-2.93.86-4.39.29-1.45.57-2.9.85-4.35s.56-2.89.84-4.33c.28-1.44.56-2.89.84-4.33s.56-2.9.84-4.36c.28-1.46.57-2.93.85-4.41s.57-2.97.86-4.48c.29-1.51.58-3.03.88-4.57.3-1.54.59-3.1.9-4.69s.61-3.19.92-4.82c.31-1.63.63-3.3.95-4.99.32-1.69.65-3.42.98-5.18.33-1.76.67-3.55,1.01-5.39.34-1.83.7-3.71,1.05-5.62.36-1.92.73-3.88,1.1-5.89,1.54,0,2.81,0,4.01,0,1.19,0,2.3,0,3.5,0s2.47,0,4.01,0c.37,2.02.74,4,1.1,5.93.36,1.93.71,3.82,1.05,5.67s.68,3.66,1.01,5.43c.33,1.77.66,3.51.98,5.22.32,1.71.64,3.38.95,5.03s.62,3.27.92,4.86c.3,1.6.6,3.17.9,4.72s.59,3.09.88,4.61.58,3.02.86,4.51.57,2.97.85,4.44c.28,1.47.56,2.93.84,4.39.28,1.46.56,2.91.84,4.37.28,1.45.56,2.91.84,4.36.28,1.46.57,2.92.85,4.38.29,1.47.57,2.94.86,4.42.29,1.48.58,2.98.88,4.48.3,1.51.59,3.03.9,4.56s.61,3.09.92,4.67c.31,1.57.63,3.17.95,4.79.32,1.62.65,3.26.98,4.93.33,1.67.67,3.36,1.01,5.09.34,1.73.7,3.48,1.06,5.27.36,1.79.73,3.61,1.1,5.47-1.84.41-3.38.76-4.81,1.08-1.43.32-2.76.62-4.2.94-1.43.32-2.97.67-4.81,1.08-.32-1.9-.62-3.61-.89-5.21s-.53-3.09-.77-4.54c-.25-1.45-.49-2.87-.73-4.33-.25-1.46-.5-2.96-.77-4.57-.27-1.62-.57-3.35-.89-5.28-1.88.33-3.53.62-5.06.89-1.53.27-2.93.3-4.34.05-1.41-.25-2.82-.5-4.35-.77-1.53-.27-3.18-.56-5.06-.89-.32,1.91-.62,3.63-.89,5.24-.27,1.6-.53,3.09-.77,4.53-.25,1.45-.49,2.85-.73,4.29-.25,1.44-.5,2.92-.77,4.51-.27,1.59-.57,3.29-.89,5.17-1.84-.41-3.38-.76-4.81-1.08-1.43-.32-2.76-.62-4.2-.94-1.43-.32-2.97-.67-4.81-1.08ZM348.06,278.51c-.3-1.83-.58-3.56-.86-5.21-.27-1.65-.53-3.23-.78-4.75-.25-1.52-.49-2.99-.72-4.42-.23-1.43-.46-2.84-.69-4.23s-.45-2.78-.68-4.17c-.23-1.4-.45-2.81-.69-4.25-.23-1.45-.47-2.94-.71-4.53s-.51-3.22-.78-4.94c-.27-1.72-.56-3.52-.86-5.42-.11,0-.16-.01-.27-.02-.3,1.86-.58,3.61-.86,5.29-.27,1.67-.53,3.26-.78,4.79-.25,1.53-.49,3-.72,4.43s-.46,2.83-.69,4.22c-.23,1.38-.45,2.76-.68,4.14-.23,1.38-.45,2.77-.69,4.19-.23,1.42-.47,2.88-.72,4.39s-.51,3.07-.78,4.71c-.27,1.64-.56,3.35-.86,5.17,1.84.27,3.38.49,4.81.7,1.43.21,2.76.4,4.19.61,1.43.21,2.96-.43,4.8-.7Z"/>
        <path d="M374.74,313.17c0-1.92,0-3.79,0-5.63,0-1.84,0-3.64,0-5.4,0-1.77,0-3.5,0-5.2s0-3.37,0-5.01c0-1.64,0-3.26,0-4.85,0-1.59,0-3.16,0-4.71,0-1.55,0-3.08,0-4.59,0-1.51,0-3.01,0-4.49,0-1.48,0-2.95,0-4.41s0-2.91,0-4.36,0-2.89,0-4.33c0-1.44,0-2.88,0-4.32s0-2.88,0-4.33c0-1.45,0-2.9,0-4.36s0-2.93,0-4.41c0-1.48,0-2.98,0-4.49,0-1.51,0-3.04,0-4.59,0-1.55,0-3.12,0-4.71,0-1.59,0-3.21,0-4.85,0-1.64,0-3.31,0-5.01,0-1.7,0-3.43,0-5.2,0-1.77,0-3.57,0-5.4s0-3.71,0-5.63c1.77,0,3.24,0,4.62,0,1.38,0,2.65,0,4.03,0s2.85,0,4.62,0c.6,1.85,1.17,3.62,1.73,5.33.56,1.71,1.09,3.36,1.62,4.96.52,1.6,1.03,3.14,1.53,4.65.5,1.5.98,2.97,1.45,4.4.47,1.43.94,2.83,1.4,4.21.46,1.38.91,2.73,1.36,4.07s.9,2.67,1.34,4c.45,1.32.89,2.65,1.34,3.97.45,1.33.9,2.66,1.36,4,.46,1.35.92,2.7,1.4,4.08s.96,2.78,1.45,4.22,1,2.9,1.53,4.4c.52,1.5,1.06,3.04,1.62,4.63.56,1.59,1.13,3.22,1.73,4.91.11-.01.16-.02.27-.04,0-1.9,0-3.73,0-5.5,0-1.77,0-3.47,0-5.13,0-1.65,0-3.26,0-4.82,0-1.56,0-3.09,0-4.59s0-2.97,0-4.42c0-1.45,0-2.89,0-4.32s0-2.85,0-4.28c0-1.43,0-2.86,0-4.32,0-1.45,0-2.92,0-4.42,0-1.5,0-3.02,0-4.59s0-3.17,0-4.82c0-1.65,0-3.36,0-5.13,0-1.77,0-3.6,0-5.5,1.84,0,3.38,0,4.81,0,1.43,0,2.76,0,4.2,0,1.43,0,2.97,0,4.81,0,0,1.99,0,3.93,0,5.83,0,1.9,0,3.75,0,5.56,0,1.81,0,3.58,0,5.32,0,1.74,0,3.44,0,5.11,0,1.67,0,3.31,0,4.93s0,3.21,0,4.78,0,3.13,0,4.66c0,1.54,0,3.06,0,4.57s0,3.02,0,4.51c0,1.5,0,2.99,0,4.48,0,1.49,0,2.99,0,4.48,0,1.5,0,3,0,4.51,0,1.51,0,3.04,0,4.57,0,1.54,0,3.09,0,4.66s0,3.17,0,4.78,0,3.26,0,4.93c0,1.67,0,3.37,0,5.11,0,1.74,0,3.51,0,5.32,0,1.81,0,3.66,0,5.56,0,1.9,0,3.84,0,5.83-1.73.39-3.18.71-4.53,1.01s-2.6.58-3.95.89-2.79.63-4.53,1.01c-.65-1.75-1.28-3.44-1.88-5.08-.6-1.64-1.19-3.23-1.75-4.77-.57-1.55-1.11-3.05-1.65-4.53-.53-1.47-1.06-2.92-1.57-4.34-.51-1.42-1.01-2.82-1.51-4.21-.5-1.39-.99-2.76-1.48-4.14-.49-1.38-.98-2.75-1.46-4.13s-.98-2.78-1.48-4.19c-.5-1.42-1-2.85-1.51-4.32-.51-1.47-1.03-2.97-1.57-4.52s-1.08-3.14-1.65-4.78-1.15-3.35-1.75-5.12c-.6-1.77-1.23-3.61-1.88-5.54-.11,0-.16.01-.27.02,0,1.98,0,3.89,0,5.73,0,1.84,0,3.62,0,5.34,0,1.72,0,3.4,0,5.03,0,1.63,0,3.22,0,4.78s0,3.09,0,4.6c0,1.51,0,3.01,0,4.5s0,2.97,0,4.46c0,1.49,0,2.99,0,4.5s0,3.04,0,4.6c0,1.56,0,3.15,0,4.78,0,1.63,0,3.3,0,5.03,0,1.72,0,3.5,0,5.34,0,1.84,0,3.75,0,5.73-1.84.41-3.38.76-4.81,1.08-1.43.32-2.76.62-4.2.94-1.43.32-2.97.67-4.81,1.08Z"/>
        <path d="M434.62,225.67c0-1.3.08-2.56.23-3.76s.38-2.36.68-3.47c.3-1.11.68-2.17,1.13-3.18.68-1.51,1.47-2.9,2.37-4.15.9-1.25,1.92-2.38,3.05-3.38,1.08-.95,2.24-1.79,3.47-2.5,1.23-.72,2.53-1.32,3.91-1.81,1.38-.49,2.76-.85,4.15-1.09,1.39-.24,2.78-.36,4.18-.36s2.79.12,4.18.35c1.39.23,2.77.58,4.15,1.04s2.69,1.02,3.95,1.68c1.25.66,2.49,1.41,3.57,2.27,1.08.85,2.07,1.9,2.95,3.01s1.66,2.33,2.34,3.65c.68,1.32,1.18,2.75,1.52,4.28.34,1.53.51,3.16.51,4.91,0,1.83,0,3.57,0,5.24s0,3.26,0,4.8c0,1.54,0,3.02,0,4.47,0,1.45,0,2.86,0,4.25,0,1.39,0,2.76,0,4.14,0,1.37,0,2.75,0,4.14,0,1.39,0,2.8,0,4.25,0,1.45,0,2.93,0,4.47,0,1.54,0,3.13,0,4.8,0,1.67,0,3.41,0,5.24,0,1.22-.08,2.39-.23,3.52-.15,1.13-.38,2.21-.68,3.25-.3,1.04-.68,2.04-1.13,3-.68,1.44-1.46,2.79-2.34,4.06-.88,1.27-1.87,2.45-2.95,3.55-1.13,1.15-2.32,2.21-3.57,3.17-1.25.96-2.57,1.83-3.95,2.6-1.38.77-2.76,1.43-4.15,1.98-1.39.55-2.78.98-4.18,1.3-1.4.32-2.79.51-4.18.59-1.39.07-2.77.02-4.15-.15-1.38-.18-2.68-.49-3.91-.95-1.23-.46-2.4-1.12-3.47-1.82-1.08-.71-2.15-1.55-3.05-2.55-.9-1.01-1.69-2.17-2.37-3.48-.45-.88-.83-1.83-1.13-2.87s-.53-2.16-.68-3.37-.23-2.49-.23-3.85c0-1.86,0-3.64,0-5.35,0-1.71,0-3.35,0-4.93s0-3.12,0-4.61c0-1.49,0-2.95,0-4.38,0-1.43,0-2.84,0-4.24,0-1.4,0-2.79,0-4.19,0-1.4,0-2.81,0-4.24,0-1.43,0-2.89,0-4.38,0-1.49,0-3.02,0-4.61,0-1.59,0-3.22,0-4.93s0-3.49,0-5.35ZM448.44,274.5c0,1.63.23,3,.69,4.11.46,1.11,1.16,1.96,2.08,2.55.93.59,1.94.97,3.03,1.13,1.1.17,2.28.13,3.54-.12,1.26-.25,2.44-.66,3.54-1.25,1.1-.58,2.11-1.33,3.03-2.25.93-.91,1.62-1.99,2.08-3.22.46-1.23.69-2.62.69-4.17,0-1.9,0-3.7,0-5.42,0-1.72,0-3.37,0-4.97,0-1.59,0-3.13,0-4.63,0-1.5,0-2.96,0-4.4,0-1.44,0-2.86,0-4.28,0-1.42,0-2.84,0-4.28s0-2.9,0-4.4c0-1.5,0-3.03,0-4.63s0-3.24,0-4.97c0-1.72,0-3.53,0-5.42,0-1.55-.23-2.89-.69-4.02s-1.16-2.04-2.08-2.75c-.93-.71-1.94-1.23-3.03-1.56-1.1-.34-2.27-.49-3.54-.45-1.26.04-2.45.27-3.54.68-1.1.42-2.11,1.02-3.03,1.82-.93.8-1.62,1.81-2.08,3.02-.46,1.22-.69,2.64-.69,4.27,0,1.98,0,3.87,0,5.67s0,3.53,0,5.2c0,1.67,0,3.27,0,4.84,0,1.57,0,3.09,0,4.6,0,1.51,0,2.99,0,4.48,0,1.49,0,2.97,0,4.48,0,1.51,0,3.03,0,4.6,0,1.57,0,3.17,0,4.84,0,1.67,0,3.39,0,5.2,0,1.8,0,3.69,0,5.67Z"/>
        <path d="M537.84,223.91c-1.84.12-3.38.22-4.81.32-1.43.09-2.76.18-4.2.28-1.43.09-2.97.2-4.81.32,0-1,0-1.49,0-2.49,0-1.26-.19-2.43-.56-3.5-.37-1.08-.93-2.06-1.68-2.96-.74-.9-1.74-1.56-3-1.98-1.25-.42-2.76-.61-4.52-.56-1.9.06-3.43.41-4.61,1.05-1.18.64-2.15,1.44-2.85,2.37-.73.98-1.22,2.16-1.49,3.43-.27,1.27-.41,2.59-.41,3.96,0,1.6.07,2.93.2,3.98.14,1.06.48,1.98,1.02,2.77.54.79,1.33,1.45,2.37,1.96,1.04.51,2.46.99,4.27,1.43,1.41.33,2.58.61,3.68.86,1.1.25,2.11.49,3.21.73,1.1.25,2.27.51,3.68.82,1.54.32,2.92.68,4.17,1.1,1.24.42,2.34.88,3.28,1.39.95.52,1.8,1.09,2.54,1.71.75.63,1.43,1.31,1.93,2.04.5.74.91,1.62,1.25,2.52s.6,1.87.78,2.91c.18,1.03.32,2.15.41,3.34.09,1.19.14,2.46.14,3.81,0,1.56-.1,3.08-.3,4.56-.2,1.48-.51,2.93-.91,4.35-.41,1.41-.94,2.76-1.59,4.03s-1.43,2.48-2.34,3.62c-.94,1.18-2.04,2.3-3.29,3.35-1.24,1.05-2.63,2.03-4.17,2.95-1.02.61-2.12,1.17-3.3,1.7-1.17.52-2.42,1-3.75,1.43s-2.72.81-4.2,1.14c-1.67.38-3.29.62-4.84.73-1.56.11-3.06.07-4.5-.1-1.45-.17-2.79-.47-4.03-.9-1.24-.42-2.38-.97-3.42-1.65-1.04-.68-1.97-1.45-2.79-2.33-.82-.88-1.54-1.86-2.15-2.95-.61-1.08-1.07-2.26-1.37-3.51-.3-1.26-.46-2.6-.46-4.03,0-1.8,0-2.71,0-4.51,1.84-.3,3.38-.55,4.81-.78,1.43-.23,2.76-.45,4.2-.68,1.43-.23,2.97-.48,4.81-.78,0,1.46,0,2.2,0,3.66,0,1.07.19,2.05.56,2.95.37.89.93,1.7,1.68,2.41.74.71,1.74,1.16,3,1.34,1.25.18,2.76.1,4.52-.24,1.17-.23,2.22-.5,3.13-.81.91-.31,1.7-.67,2.35-1.07,1.31-.8,2.32-1.77,3.05-2.92.72-1.15,1.15-2.44,1.29-3.87.13-1.43.2-3.01.2-4.75,0-2.02-.09-3.67-.27-4.94-.18-1.27-.53-2.32-1.08-2.99-.58-.7-1.47-1.25-2.51-1.63-1.04-.37-2.42-.74-4.13-1.12-1.32-.28-2.42-.51-3.44-.73-1.03-.22-1.98-.43-3-.65s-2.12-.47-3.44-.77c-1.99-.45-3.75-1.01-5.31-1.68-1.55-.67-2.88-1.45-4-2.34-1.11-.89-2.01-1.88-2.69-2.98-.68-1.1-1.24-2.31-1.69-3.64s-.79-2.77-1.02-4.32c-.23-1.55-.34-3.21-.34-4.97,0-1.58.12-3.13.37-4.64.25-1.51.62-2.99,1.12-4.42.5-1.43,1.12-2.77,1.86-4,.74-1.23,1.64-2.37,2.61-3.4.95-1.01,2.03-1.95,3.23-2.76,1.21-.81,2.55-1.52,4.01-2.12.98-.4,2.02-.73,3.12-.99s2.27-.46,3.5-.59c1.23-.13,2.52-.19,3.87-.19,1.72,0,3.36.13,4.93.38,1.57.25,3.07.63,4.49,1.13,1.42.5,2.75,1.07,3.98,1.72s2.36,1.37,3.4,2.16c1.38,1.11,2.54,2.26,3.46,3.46s1.62,2.46,2.08,3.77c.46,1.31.69,2.68.69,4.11v5.2Z"/>
      </g>
      <g>
        <path d="M16.56,18.39l-.12,181.16,46.53,12.41v107.31l280.29,68.49,271.66-68.1v-107.41l55.16-24.71-.09-169.14H16.56ZM592.35,125.72h16.99v9.24c0,.82.99,4.14,1.41,5.09,2.77,6.34,13.99,5.86,16.24-1.43,7.18-23.29-28.75-34.45-33.41-57.86-4.55-22.88,7.1-39.41,31.37-36.37,10.74,1.35,20.37,11.66,20.37,22.61v10.24h-16.99v-9.24c0-1.93-2.36-5.37-4.14-6.35-6.28-3.45-12.64.36-13.34,7.36-1.9,19.07,23.32,28.93,31.07,44.88,7.56,15.56,5.33,41.02-14.19,45.96-17.48,4.42-35.37-4.24-35.37-23.88v-10.24ZM529.36,70.49c.89-14.06,8.4-25.06,23.24-26.23,15.78-1.24,27.86,4.98,30.69,21.32-.08,22.35,2,46.67.58,68.92-.53,8.34-3.57,17.45-10.85,22.13-9.8,6.29-27.46,5.81-35.96-2.58-5.06-5-6.95-12.18-7.66-19.07,1.01-21.12-1.36-43.51-.03-64.48ZM467.92,45.77h55.47v15.74c0,.05-.7.75-.75.75h-18.24v96.94h-17.99V62.26h-18.49v-16.49ZM403.46,45.77h22.24l17.74,67.46V45.77h15.99v113.43h-18.49l-21.49-82.45v82.45h-15.99V45.77ZM345,45.77h48.47v16.49h-30.48v29.48h23.74c.05,0,.75.7.75.75v14.99c0,.05-.7.75-.75.75h-23.74v34.48h30.48v16.49h-48.47V45.77ZM343.37,190.99h221.48v89.2l-221.56,52.1h0s-.03,0-.03,0h-.03s0,0,0,0l-221.56-52.1v-89.2h221.7ZM257.56,45.77h25.98l11.24,79.96,11.24-79.96h25.48v113.43h-16.99v-82.95l-12.57,82.13c-.16.66-.61.72-1.18.82-3.91.73-9.8-.56-13.95.03l-13.28-83.48v83.45h-15.99V45.77ZM226.58,45.77h17.99v113.43h-17.99V45.77ZM178.61,45.77l11,85.45c1.05-.36,1.29-1.86,1.45-2.79,4.04-23.1,6.23-48.05,9.47-71.48.51-3.69.93-7.45,1.07-11.17h16.99l-16.99,113.44-24.02-.22-17.45-113.22h18.49ZM118.61,45.99l23.71-.25,18.79,113.46h-17.99l-3-21.99-20.02.22-3.46,21.77h-16.49l18.07-112.6.38-.62ZM47.69,45.77h31.23c7.09,0,15.71,5.89,18.83,12.15,4.2,8.42,4.45,29.91,1.66,38.82-2.9,9.26-11.5,16.49-21.49,16.49h-12.24v45.97h-17.99V45.77ZM599.83,202.81l-.49,102.35-256.08,61.72-256.08-61.72-.49-102.35-39-11.82h57.46v101.44l238.11,57,238.11-57v-101.44h57.46l-39,11.82Z"/>
        <polygon points="129.89 66.25 122.14 121.73 137.63 121.73 129.89 66.25"/>
        <path d="M82.32,91.15c.78-3.01.78-19.19.22-22.53-.18-1.05-1.15-3.36-1.87-4.13-.37-.39-3.54-2.24-3.76-2.24h-11.24v34.48h10.74c2.11,0,5.36-3.51,5.9-5.59Z"/>
        <path d="M547.36,133.99c.46,5.86,2.61,10.72,9.26,10.72,6.17,0,8.94-4.2,9.18-9.8.89-20.55-.18-43.66.08-63.92-.5-6.35-2.92-11.12-10.1-10.61-5.88.41-8.19,4.8-8.4,10.14-.76,20.24.21,43.21-.03,63.47Z"/>
      </g>
      <path d="M345.06,406.26l-.96-.24L46.53,333.31v-107.61L0,213.29.14,0h689.76l.1,199.08-55.17,24.71v109.82l-289.77,72.65ZM54.53,327.03l290.5,70.98,281.8-70.65v-108.76l55.17-24.71-.1-185.9H8.13l-.13,199.15,46.53,12.41v107.48Z"/>
    </g>
  </g>
</svg>