<?xml version="1.0" encoding="UTF-8"?>
<svg id="uuid-e7101826-e089-4da0-b3c8-5f73941bb88e" data-name="Layer 2" xmlns="http://www.w3.org/2000/svg" viewBox="0 0 653.64 740.92">
  <defs>
    <style>
      .uuid-d4af0ff9-fb69-4dbd-a34e-51bab32e80fe {
        fill: #94622a;
      }

      .uuid-8568d937-009a-4029-a9c1-0360fd8c5682 {
        fill: #8b8d8e;
      }

      .uuid-78f7b227-debc-4597-bfcf-4991080f573b {
        fill: #ce8c3d;
      }

      .uuid-d92d161f-6635-450e-a0a4-3e0234a3d80a {
        fill: #fff;
      }

      .uuid-53587111-836c-4852-802a-825017cf3e54 {
        fill: #c1c3c2;
      }

      .uuid-5a47895d-7c20-4809-8051-ef2047336e33 {
        fill: #060709;
      }

      .uuid-336d3a28-f136-4394-b327-ce0d9639c9ce {
        fill: #fafbfa;
      }
    </style>
  </defs>
  <g id="uuid-0c28a7bd-71a4-4cc3-8d9c-d176cc5387c3" data-name="Output">
    <g>
      <polygon class="uuid-d92d161f-6635-450e-a0a4-3e0234a3d80a" points="46.55 86.84 371.63 0 598.48 75.59 598.48 325.87 653.54 349.72 653.64 540.7 598.48 565.4 598.48 672.82 326.82 740.92 46.53 672.43 46.53 565.13 0 552.72 .14 356.74 46.51 320.53 46.55 86.84"/>
      <path class="uuid-53587111-836c-4852-802a-825017cf3e54" d="M323.07,81.95c-.01-.14-.03-.27-.04-.41-.15-1.34-1.04-2.5-2.5-2.5-1.23,0-2.65,1.15-2.5,2.5,2.1,18.72-3.35,37.84,1.89,56.27.39,1.38,1.58,1.88,2.68,1.73,3.34,3.27,9.72,9.51,11.94,9.57,1.43.04,3.54-1.03,5.27-.53v-63.46l-16.75-3.17Z"/>
      <path class="uuid-53587111-836c-4852-802a-825017cf3e54" d="M344.31,148.58l-.25-61.98c1.57-.02,11.89,2.05,13.36,2.64.48.19.89.38,1.13.87l1.12,37.61-5.62,19.87c-1.04,1.26-7.76-.18-9.75.99Z"/>
      <path class="uuid-53587111-836c-4852-802a-825017cf3e54" d="M313.33,78.13v80.95l-9,.5c-.67-27.31,1.39-54.53,5.5-81.46h3.5Z"/>
      <path class="uuid-53587111-836c-4852-802a-825017cf3e54" d="M375.82,53.96c-1.18-.27-2.63.32-3.01,1.54l-35,7.63,4.24.49,29.68-2.44c-.09.48-.18.97-.27,1.45-.19,1.14-.38,2.27-.56,3.41-.21,1.36-.44,2.65-.08,4,.14.51.46.95.88,1.27-1.54,24.52-1.43,49.13-1.68,73.68-.04,3.79-.08,7.57-.12,11.36,0,.38.08.92-.01,1.3-.56.26-1.35.33-1.92.41-1.72.26-3.56.27-5.28.01-1.33-.2-2.69.33-3.08,1.75-.1.37-.09.8,0,1.21-.12.01-.24.02-.33.03.14.19.32.36.51.51.3.66.83,1.21,1.56,1.32,3.4.5,7.39.66,10.62-.73,3.63-1.56,2.92-5.79,2.95-9.04.08-7.31.15-14.62.23-21.93.15-14.55.24-29.1.75-43.64.29-8.29.72-16.58,1.38-24.85.04-.56-.17-1.08-.52-1.51.25-1.4.5-2.8.78-4.19.25-1.28-.36-2.76-1.75-3.08Z"/>
      <path class="uuid-53587111-836c-4852-802a-825017cf3e54" d="M430.74,111.32c-1.1-.11-2.31-.02-3.38.34l-11.1,1.45c.14,8,.24,15.99.5,23.99,1.85,0,3.68-.29,5.47-.7.87,1.41,3.22,1.98,4.36.11,2.05-3.35,2.94-7.16,3.32-11.03.19-1.92.23-3.84.25-5.77.01-.98.05-1.95-.12-2.92-.03-.17-.08-.33-.12-.5.28,0,.55,0,.82.03,1.35.13,2.5-1.24,2.5-2.5,0-1.46-1.15-2.37-2.5-2.5Z"/>
      <path class="uuid-53587111-836c-4852-802a-825017cf3e54" d="M385.59,118.87c-.77.13-2.94.54-3.72.67-1.81.37-2.09.58-5.62.89-.25,11.31.22,20.84.03,32.15.18.17,3.1-.27,5.14-.63.64.51,1.56.72,2.31.52,1.4-.39,1.98-1.74,1.75-3.08-.86-4.85-.28-9.84.25-14.69.27-2.5.55-4.99.65-7.5.05-1.15.23-2.51-.05-3.65,2.14-1.65,1.89-5.12-.75-4.69Z"/>
      <path class="uuid-53587111-836c-4852-802a-825017cf3e54" d="M306.37,75.38c-.68-1.16-2.26-1.59-3.42-.9-.39.23-.76.48-1.12.75-.02-.01-.03-.03-.05-.04-1.15-.67-2.76-.29-3.42.9-2.87,5.15-6.23,11.37-4.91,17.49.08.38.21.76.37,1.11,0,.05,0,.1.01.14.13.87.76,1.42,1.53,1.81.33.24.7.43,1.11.57.23.07.47.11.72.12.32.1.63.19.9.28.9-.11.82-.31.42-.53.33-.14.64-.31.88-.56.73-.73.93-1.69.96-2.68.08-3.06.04-6.11.91-9.07.72-2.45,2.07-4.7,4.22-5.99,1.16-.69,1.58-2.25.9-3.42Z"/>
      <path class="uuid-53587111-836c-4852-802a-825017cf3e54" d="M181.41,186.06c-4.95,2.6-10.3,4.26-15.16,7.08-4.1,2.37-10.37,6.85-13.82,9.91.32-2.21,11.09-11.05,11.99-10.99,2.77.17,4.57-1.73,7.39-2.96,2.62-1.14,7.21-2.91,9.6-3.04Z"/>
      <path class="uuid-53587111-836c-4852-802a-825017cf3e54" d="M122.45,205.55c2.6,4.29,4.95,9.79,6.48,14.47-.65.2-1.35.29-1.99.52-1.18-4.83-3.74-9.58-6-13.99,1.12-.1,1.73.48,1.5-1Z"/>
      <path class="uuid-53587111-836c-4852-802a-825017cf3e54" d="M441.25,220.04c1.15,2.31,1.96,3.61,1.5,6.5-2.3-7.81-6.74-6.13-13.25-6.51-.8-.05-.7-.48-.74-.49.78-.74,1.78-.51,2.73-.52,1.43-.01,4.61-.06,5.89.14s2.85,1.73,3.87.87Z"/>
      <path class="uuid-8568d937-009a-4029-a9c1-0360fd8c5682" d="M488.88,179.75c-4.56.07-9.12.19-13.64.92-1.92.31-3.78.79-5.6,1.39-.73-.02-6.84,2.45-6.94,2.84,0,.04-.01.08-.02.12-.29-.07-.6-.09-.91-.05-.96.13-1.73.79-2.03,1.67-1.65.72-6.8,4.74-6.96,5.25-.03.09-.03.2-.03.31-1.16,1.06-2.26,2.18-3.3,3.35-1.15.39-4.46,4.91-4.63,5.86-.04.19-.04.4-.03.61-2.21,3.88-3.84,8.38-2.8,12.83.18.79.7,1.3,1.33,1.56-.15.42-.2.9-.1,1.46.33,1.81.65,3.61.98,5.42.15.84.71,1.36,1.4,1.6.23.75.45,1.51.65,2.26-.36,3.65.07,8.21,1.01,8.87.2.14.63-.15,1.16-.66.86,1.12,2.78,1.38,3.77.27,3.56-4,7-8.35,8.54-13.45.22-.35.35-.65.39-.9,1.25-1.39,2.51-2.78,3.75-4.19.75.17,2.6-1.9,3.07-2.35.06-.06.13-.11.2-.16.65-.28,1.26-.62,1.81-1.06,1.44-1.15,2.56-2.79,3.58-4.4.13.32.21.63.21.92.36.26,5.34-3.96,5.42-4.3,0-.03,0-.08,0-.14.11-.12.22-.26.32-.42,1.09-1.73,2.18-3.45,3.28-5.18.35-.55.41-1.22.26-1.83.39-.77.78-1.55,1.17-2.32.82-.43,1.43-.78,1.5-.87.14-.19-.01-.71-.27-1.36.67-1.28,1.3-2.59,1.88-3.93l.14-.28s0,0-.01,0c.09-.2.18-.39.27-.59.54-1.29-.27-2.39-1.37-2.87,0-.05,0-.1-.01-.15.15-.19.29-.37.43-.57.1-.14.18-.29.24-.44.72.35,1.6.3,2.4-.05.26-.11.52-.23.78-.34,2.34-1.03,1.07-4.69-1.26-4.66Z"/>
      <path class="uuid-53587111-836c-4852-802a-825017cf3e54" d="M393.28,92.62c.03-3.96-.2-8.05,0-11.99.84,3.58.84,8.42,0,11.99Z"/>
      <path class="uuid-53587111-836c-4852-802a-825017cf3e54" d="M393.28,102.61c-.01-2.83,0-5.67,0-8.5.84,2.32.84,6.14,0,8.5Z"/>
      <path class="uuid-53587111-836c-4852-802a-825017cf3e54" d="M414.23,118.54c1.26-1.84.95-4.83-1.43-4.21-.28.07-.07.06-.37,0-.19-.03-1.79.26-1.98.26h-.18s-16.49,2.01-16.49,2.01c0,.31-.51,1.28-.52,2.21-.02,2.14-.38,7.54.49,9.06l10.1,8.76c-.02,1.12.74,2.08,1.83,2.45,1.94.67,4.06.68,6.01.07,1.04-.32,1.86-1.29,1.84-2.41-.06-3.23-.03-6.46.11-9.69.06-1.55.15-3.1.26-4.64.06-.77.12-1.55.18-2.32.04-.45.06-.9.12-1.35,0-.05,0-.09.01-.12.01-.04.02-.06.02-.09Z"/>
      <path class="uuid-53587111-836c-4852-802a-825017cf3e54" d="M393.28,78.63c.02-.15.41-.33.5-.5l-.5.5Z"/>
      <path class="uuid-53587111-836c-4852-802a-825017cf3e54" d="M422.26,219.54c-3.66-.15-7.48.37-10.99-1,2.84.01,6-.22,8.77-.03.93.06,1.87-.12,2.22,1.03Z"/>
      <path class="uuid-53587111-836c-4852-802a-825017cf3e54" d="M116.45,206.55l-5.52,2.83-.21,14.68-9.7,2.55c-.07,5.07-.3,10.15-.55,15.21-.03.65-.52,1.14-.52,1.21.71-3.58-1.05-14.34.25-16.99.69-1.42,2.91-.84,4.28-1.21,1.84-.5,3.29-1.78,5.47-1.28.53-.5-.42-12.4.02-14.63.2-1,2.15-1.29,2.81-1.54.17-.06.18-.73.52-.81.87-.22,2.16.03,3.14-.02Z"/>
      <path class="uuid-53587111-836c-4852-802a-825017cf3e54" d="M99.96,245.53c0-.17,0-.33,0-.5l.49.25-.49.25Z"/>
      <path class="uuid-53587111-836c-4852-802a-825017cf3e54" d="M119.45,206.55c.17,0,.33,0,.5,0l-.25.49-.25-.49Z"/>
      <path class="uuid-53587111-836c-4852-802a-825017cf3e54" d="M190.91,183.57c-1.68.98-3.75,1.32-5.5,1.5.37-.78,3.04-1.77,3.9-1.92,1.12-.2,1.51.43,1.59.43Z"/>
      <path class="uuid-53587111-836c-4852-802a-825017cf3e54" d="M197.9,182.57c-1.33,1.26-3.31.99-5,1-.49-1.69,3.36-.95,5-1Z"/>
      <path class="uuid-53587111-836c-4852-802a-825017cf3e54" d="M183.91,185.06c.23,1.45-.36.92-1.5,1-.23-1.46.37-.91,1.5-1Z"/>
      <g>
        <path class="uuid-78f7b227-debc-4597-bfcf-4991080f573b" d="M98.14,125.21l185.52-44.71.76.27c-1.96,9.12-5.03,17.06,1.29,25.18.81,1.04,2.57,1.22,2.63,3.27-2.27,15.32-3.13,30.77-2.93,46.25l-16.24,1c-23.41,3.24-47.02,4.32-70.46,6.99-22.71,2.58-43.85,8.99-58.7,27.36-.53.66-2.13,3.96-2.77,4.12-1.22.31-4.49-7.35-6.5-7.48-9.54.11-23.23,2.62-32.58,4.36l-.04-66.61Z"/>
        <path class="uuid-78f7b227-debc-4597-bfcf-4991080f573b" d="M536.12,175.6c-.96-1.07-4.02-4.23-5.11-5.14-15.05-12.54-29.79-25.66-44.71-38.24-6.25-5.27-12.72-10.24-19-15.48l-1.97-30.06,84.97,22.36v115.34c-.99-2.03-1.99-4.25-2.93-6.66-1.06-2.7-1.92-5.27-2.61-7.66-2.88-11.49-5.76-22.97-8.63-34.46Z"/>
        <path class="uuid-78f7b227-debc-4597-bfcf-4991080f573b" d="M545.25,349.36l-78.45.99c.19-1.01,1.06-.81,1.75-.99,7.17-1.88,14.71-2.55,21.86-4.12,18.26-4.01,36.42-9.5,53.83-16.15.3-.45,1.01.47,1.01.53v19.74Z"/>
        <path class="uuid-78f7b227-debc-4597-bfcf-4991080f573b" d="M102.03,304.14c.16-.52,1.09-.9,1.67-.72,5.63.89,12.08,3.76,17.61,4.43,3.96.48,7.9-.89,11.87-.48.49,2.1,4.78,7.23,4.85,8.75.05,1.06-.02.66-.75.76l-33.53,2.45c-.53.1-1.71-1-1.71-1.21,0-2.77-.56-12.17,0-13.99Z"/>
        <path class="uuid-78f7b227-debc-4597-bfcf-4991080f573b" d="M550.3,303.87c-.83.12-9.41-.74-11.08-.75-.71,0-4.85-.05-6.74-.23.46-.95,3.68-6.28,4.49-7.53,1.67-2.58,3.41-6.16,4.38-9.11,1.65-1.91,3.56-4.46,5.31-7.68,1.81-3.33,2.93-6.42,3.64-8.91v34.22Z"/>
        <path class="uuid-78f7b227-debc-4597-bfcf-4991080f573b" d="M386.01,302.7c-1.94,2.33-3.91,4.74-6,7.06-3.22-1.22-6.54-1.96-9.68-3.73-3.55-2-6.95-.84-9.06,1.51-19.81,2.31-39.71,4.36-59.63,2.06-4.03-.46-7.5,3.78-7.5,7.5,0,4.44,3.46,7.03,7.5,7.5,2.32.27,4.65.47,6.97.62,13.54,17.37,30.63,26.96,54.36,20,7.11-2.08,20.88-12.2,24.39-19.63,3.4-.66,6.34-2.59,8.13-5.66,1.82-3.12,1.72-6.67,3.05-9.94,2.8-6.88-7.89-12.88-12.54-7.3ZM314.4,325.63s-.06-.08-.1-.12c2.09.07,4.19.1,6.28.1,2.04,2.17,4.31,4.27,6.69,6.02-.37,3.18,1.19,6.42,5.26,7.59,6.33,1.83,12.52,1.18,18.95.31,6.1-.83,12.21-1.7,17.98-3.92,1.83-.71,3.57-1.53,5.25-2.44-17.89,14.9-40.82,14.93-60.32-7.53Z"/>
        <path class="uuid-78f7b227-debc-4597-bfcf-4991080f573b" d="M532.29,201.49c-3.79-8.16-7.06-17.09-12.44-24.37-5.24-7.1-13.15-11.66-20.26-16.67-16.54-11.67-33.07-23.36-48.34-36.68-.41-.36-.83-.63-1.26-.83-.97-13.38-2.13-26.75-3.56-40.09-.7-6.52-.22-14.94-5.13-19.98-4.94-5.07-12.9-8.15-19.28-10.93-6.96-3.03-14.07-5.36-21.46-7.1-6.71-1.58-13.17-4.29-20-4.3-.04-.32-.13-.63-.3-.91l-.39-.51c-.31-.31-.68-.52-1.1-.64-.96-.15-1.91-.25-2.88-.22-.34-.01-.67.06-.96.22-.31.1-.58.27-.8.52-.24.23-.42.49-.52.8-.11.21-.16.43-.19.66-.38.03-.76.09-1.17.22-4.38,1.25-8.79,2.4-13.22,3.52-5.55,1.22-11.09,2.58-16.57,4.07-2.44.6-4.88,1.2-7.32,1.82-.74-.15-1.57-.11-2.47.23l-3.46,1.31c-5.26,1.4-10.48,2.9-15.65,4.58-.55.62-.96,1.22-1.31,1.83-.67.25-1.35.51-2.02.76-5.96,2.25-3.38,11.93,2.66,9.64l15.04-5.69c2.66.07,5.05-.6,7.13-1.97,12.6-3.67,25.42-6.45,38.26-9.11,1.78-.37,3.51-.77,5.25-1.01-.11,1.22.18,2.49.85,3.49.02.14.07.26.12.37-.21.83-.25,1.7-.02,2.53.74,2.68,3.52,4.13,6.15,3.49.44-.11.87-.17,1.31-.23-.5.77-.81,1.69-.88,2.72-.16,2.54-.19,5.07-.1,7.61,0,.09.02.19.03.28-.42,2.05.31,4.37,2.17,5.48-.74.53-1.23,1.43-.97,2.58.45,2.02.15,4.12.02,6.16-.14,2.22-.04,4.43.09,6.65.14,2.22.27,4.44.21,6.66-.06,2.19-.22,4.37-.11,6.57.23,4.53.88,9.01,1,13.56.09,3.4.06,6.79,0,10.19-1.21.44-2.17,1.47-2.44,3.29-.69,4.55.01,8.85.02,13.41,0,2.4-.18,4.8-.38,7.2-.1,1.1-.21,2.19-.32,3.29,0-.61-.48-.71-1.43-.29-.47.01-.9.08-1.31.19-2.85-1.14-7.06.34-7.4,4.42-.21,2.56.79,5.04,2.86,6.64.04.03.09.06.14.09-.26.16-.53.32-.79.49-1.73,1.1-2.4,2.72-2.34,4.31-.58-.72-1.3-1.44-1.81-1.93-1.96-1.88-4.26-2.91-6.9-3.13-7.5-4.56-16.17-6.77-25.14-5.73-2.24.26-4.31,1.2-5.7,2.73-7.87.43-16.07.47-23.69,2.26-.75.18-1.41.44-2,.78-1.64-1.81-4.11-2.88-7.16-2.24-14.41,3.05-28.78,6.84-43.55,7.47-7.52.32-15.07.22-22.58.78-7.84.59-15.57,2.03-23.31,3.34-14.62,2.47-28.92,2.4-42.48,9.17-6.19,3.09-12.79,6.6-18.02,11.16-5.21,4.54-7.84,11.01-12.3,16.14-2.46,2.82-2.35,6.15-.94,8.74-1.63.22-3.26.44-4.9.69-.01,0-.02,0-.03,0,.08-.12.16-.24.22-.36.93-1.76,1.36-3.83.76-5.78-.41-1.33-.82-2.67-1.23-4-.05-.37-.12-.73-.24-1.1-.82-2.53-1.81-4.97-2.86-7.42-.69-1.6-2.89-3.01-4.48-3.45-1.8-.49-4.19-.27-5.78.76-.35.23-.69.48-1.01.75-.48-3.29-2.86-6.25-7.15-6.25-1.65,0-3.02.44-4.11,1.17-.59-.14-1.22-.22-1.91-.22-7.23,0-9.05,8.41-5.45,12.64-2.85,1.97-3.7,5.94-2.56,9.11-.21.58-.35,1.19-.43,1.81-2.82.82-5.18,3.11-5.3,6.88-.3,9.54-.61,19.07-.64,28.62-.01,4.6.03,9.21.18,13.81.1,3.14.69,6.36.93,9.52-3.39,6.24,5.81,14.11,12.34,8.5.38-.32.69-.66.97-1,1.15.14,2.29.27,3.42.38,2.79,2.56,6.46,3.37,10.54,3.76,6.13.58,12.32.76,18.47.84,8.72.11,17.43-.13,26.14-.4.12,2.14,1.15,4.25,3.43,5.75,4.72,3.1,11,2.26,16.38,2.3,6.29.06,12.59.11,18.88.17,12.92.11,25.83.23,38.75.34,3.1.03,5.18-1.38,6.28-3.35,3.99,2.57,10.5,1.12,11.47-4.13.69-3.74,1.08-7.42.95-11.24-.11-3.01-1.66-5.24-3.98-6.47.36-14.01,1.43-28.33,1.43-42.25.99-1.75,1.22-3.9.71-5.86.27-.4.49-.84.67-1.29.44,15.66.87,31.31,1.31,46.97.18,6.52-1.03,15.56,1.53,22.1-1.21,3.71.22,8.3,4.92,9.62,14.52,4.06,29.57,5.98,44.65,5.67,2.82-.06,4.82-1.39,5.99-3.24,6.49-.21,12.96-.53,19.37-.72,17.66-.51,35.31-1.15,52.96-1.79,9.73-.35,19.48-.62,29.17-1.65,3.88-.41,8.29-.47,11.7-2.6.64-.4,1.23-.9,1.77-1.44,2.41.35,5.03-.44,6.83-2.1.42.02.85.03,1.26,0-.1-.52-.08-1.03,0-1.53.92-1.5,1.29-3.4.72-5.6-.02-.06-.03-.12-.05-.19,1.06-20.05-.69-41.59.33-61.65-.04-.14-.09-.26-.13-.39.99-2.42.75-5.29-1.63-7.71-4.9-4.97-11.28-5.6-17.93-5.96-7.54-.41-15.08-.79-22.62-1.03-.45-.01-.89-.02-1.34-.03,3.08-2.55,4.53-7.4,1.08-11.24-2.26-2.52-3.29-6.11-4.96-9.02-1.75-3.05-3.92-5.95-6.29-8.55-1.93-2.12-4.2-4.42-6.72-6.27.05-.03.1-.05.15-.08.68-.41,1.29-.72,1.91-.95.38.82,1.06,1.57,2.1,2.13,6.58,3.55,8.18,12.22,12.49,17.87.6.79,1.41,1.36,2.3,1.74.66,1.11,1.79,1.98,3,2.29,7.5,1.92,15.07,2.17,22.58.76,2.93,1.78,8.16,0,7.95-4.21-.24-4.88.3-9.41,1.71-14.09.24-.79.24-1.6.07-2.36,1.02-5.48,1.88-11,2.81-16.51.19.84.92,1.55,1.75,1.81-2.75,2.42-2.86,7.62,1.67,8.5,8.58,1.67,17.3,3.07,26.03,3.7,4.23.3,8.42.29,12.64-.18,3.67-.41,9.98-2.21,12.48,1.59,2.33,3.54,6.76,3,8.57.36,3.65,1.49,6.81,3.23,9.76,5.57,4.78,6.75,7.99,15,11.42,22.37,2.71,5.83,11.33.76,8.63-5.05ZM116.39,218.84c-1.55-.34-2.54-2.59-2.81-4.3.1.01.2.03.31.03.08,0,.14-.02.21-.02,0,.37.02.73.07,1.09-.01.34.06.67.22.96.1.31.27.58.52.8.43.43,1.15.76,1.77.73.65-.03,1.32-.24,1.77-.73.42-.45.81-1.12.73-1.77-.08-.69-.07-1.38-.01-2.07.14.41.29.81.42,1.22.05.33.11.66.21.99.21.68.42,1.35.62,2.03-.9.93-2.24,1.42-4.02,1.03ZM246.62,219.94c-5.61-.32-11.22-.63-16.83-.89,6.01-.96,12.03-1.7,18.09-2.25-.65.93-1.06,2.01-1.25,3.14ZM260.19,217.86c-.32-.67-.7-1.3-1.21-1.84.52-.03,1.05-.05,1.57-.07-.21.6-.33,1.24-.36,1.91ZM315.95,187.6c.9-.94,1.9-1.76,2.8-2.69-.06.13-.13.25-.18.38-1.45,1.45-2.83,2.97-4.17,4.52-.02-.28-.06-.56-.11-.85.17.95.98-.65,1.65-1.35ZM271.87,197.44c.27,3.88.07,7.64-.58,11.29-.05-.24-.15-.46-.29-.66-.14-.26-.32-.49-.53-.7-.18-.19-.4-.35-.61-.5-.01-.14-.01-.29-.03-.43h.1c.16-4.53-.12-9.11,0-13.64.81-.56,1.65-1.05,2.51-1.51-.58,1.93-.7,4.05-.55,6.14ZM294.17,213.45c-3.82,4.28-6.94-.33-7.6-5.39.22-1.83.36-3.65.4-5.48.27-.77.64-1.44,1.12-1.97-.05.38-.1.76-.13,1.14-.05.56-.07,1.12-.09,1.68-.38,2.57-.47,5.19-.24,7.78.11,1.25,3.3,4.17,4.1,2.24.98-2.36,1.55-4.85,2-7.36.06.44.1.89.11,1.37,0,.31.2.68.42,1-.44.69-.9,1.38-1.37,2.06-.2.29-.03.68.1.95.25.51.68,1.03,1.1,1.41.1.09.2.18.3.27-.07.1-.14.21-.22.29ZM389.64,210.67c.16.18.32.34.49.49-11.56-.05-23.09.34-34.66.45-7.21.07-14.42-.04-21.61-.64-3.38-.28-6.75-.68-10.09-1.27-3.19-.56-6.62-1.64-9.85-.73-.76.21-1.43.52-2.04.88-1.78-.47-3.55-1.01-5.32-1.66-1.82-.67-3.43-.61-4.77-.08-1.42-3.06-3.16-8.32-4.61-11.19-.35-.69-.89-1.07-1.14-1.33,1.03-2.09,1.09-4.71.17-6.91.13,0,.25.01.38,0,.2,0,.4-.02.61-.04.14.23.28.46.44.68.09.1.17.21.26.31.08.13.2.2.35.21.27-.05.53-.09.8-.14.06-.08.08-.17.05-.27,0-.18-.05-.35-.11-.52-.06-.18-.13-.35-.2-.52.25-.06.49-.11.73-.18.02,0,.04-.01.06-.02-.11,1.52-.01,3.09.27,4.75.72,4.11,3.83,5.68,7.01,5.38-1.22,1.43-1.25,3.27.24,4.57,1.66,1.45,4.14,1.28,6.2,1.36,4.53.17,9.06.38,13.58.62,9.14.48,18.26,1.11,27.38,1.88.93.08,2.2-.28,2.72-1.14,1.71.69,3.49,1.19,5.14,2.17,7.73,4.58,14.29-5.49,9.09-11.78-4.35-5.27-9.11-11.89-15.59-14.65-2.45-1.04-5.07-1.34-7.75-1.35-.62-.39-1.25-.71-1.88-.98-.65-1.27-1.61-2.21-2.74-2.85.08-.1.15-.21.23-.31,6.71-.33,13.1,1.41,18.35,5.93,1.12.96,2.29,1.54,3.46,1.82.38.42.76.83,1.2,1.22,1.55,1.35,3.18,2.07,4.94,2.36,3.81,2.49,7.16,5.59,9.7,9.42,3.09,4.68,4.74,9.85,8.55,14.09ZM432.72,95.59c-.53,13.53-1.68,27.02-3.52,40.43-6.34,2.73-14.52,3.31-21.23,4.39-.36.06-.69.15-1,.26-.52-.55-1.16-.96-1.91-1.12-.42-.87-1.08-1.62-1.93-2.07-.54-.29-1.1-.46-1.65-.55-.53-3.22-3.15-5.55-6.31-5.69-.45-.66-1.06-1.22-1.75-1.66.08-3.83.12-7.66,0-11.49-.14-4.54-.84-9.02-1.01-13.55-.08-2.19.1-4.37.14-6.56.05-2.23-.11-4.45-.25-6.67-.13-2.22-.19-4.41-.03-6.63.17-2.38.29-4.68-.23-7.03-.06-.26-.15-.48-.27-.68,2.2-.42,3.44-2.16,3.72-4.07.02-.07.06-.14.08-.22.29-.62.44-1.3.42-2.04-.09-2.24-.05-4.48.06-6.73.73.49,1.64.8,2.76.8,1.02,0,1.87-.25,2.57-.67,2.79,1.6,5.69,2.99,8.8,3.99,3.49,1.12,6.85,1.89,10.23,3.38,3.03,1.34,5.9,2.69,9.17,3.35.5.1.98.13,1.44.1.98,5.9,1.96,11.79,2.81,17.71-.64.76-1.06,1.77-1.11,3.01ZM440.61,157.22s-.14.54-.16.62c-.03.09-.06.18-.09.27,0,.02-.04.09-.11.23-.07.15-.14.31-.21.46.19-1.05.39-2.11.59-3.16,0,.18.03.36.03.54,0,.34,0,.7-.04,1.04Z"/>
        <path class="uuid-78f7b227-debc-4597-bfcf-4991080f573b" d="M521.98,238.87c-1.07-6.47-3.15-12.75-6.71-17.69-8.84-12.26-19.54-4.84-24.22,6.27-1.08,2.56-1.86,5.02-2.4,7.51-3.38.77-5.42,3.82-5.79,7.31-.8,7.56.79,15.04,3.02,22.24,1.88,6.07,3.74,12.56,7.99,17.45,10.61,12.21,24.5,2.56,28.93-9.74,2.68-7.45,6.67-26.48-.82-33.34ZM490.57,234.78c2.01-7.51,5.93-14.92,13.03-15.32,3.45-.19,6.19,1.89,8.32,4.83-3.61-.98-7.74.37-8.81,5.07-.26,1.13-.57,2.25-.9,3.35-2.14-.02-4.3,1.45-6.04,4.78-1.44-1.6-3.56-2.65-5.58-2.71Z"/>
      </g>
      <g>
        <path class="uuid-d4af0ff9-fb69-4dbd-a34e-51bab32e80fe" d="M304.23,306.97l-8.57-3.67c-7.03-4.06-9.32-11.71-9.71-19.34l1.04-.47c50.63-.96,101.22-4.42,151.65-9l-.5,20.99c-30.45,3.1-61.17,4.89-91.69,7.5-13.57,1.16-28.78,3.74-42.23,4Z"/>
        <path class="uuid-d4af0ff9-fb69-4dbd-a34e-51bab32e80fe" d="M257.26,278.48c-.07,5.49.05,11,0,16.49-5.56-.18-11.18-.22-16.74-.51-39.03-2.02-78.21-4.35-117.18-6.99l-12.49-12.99,146.41,3.99Z"/>
        <path class="uuid-d4af0ff9-fb69-4dbd-a34e-51bab32e80fe" d="M392.67,54.61c1.52,1.73,3.5,1.06,5.51,2.73,1.61,1.34,1.74,2.43,2.29,4.32,11.4,3.39,22.44,7.97,33.96,10.9l3.23,32.24-5.3,33.32-26.85,4.85-13.84-11.41v25.99c-1.94-.12-3.58.91-5.37,1.38-.93.24-3.97-.26-3.63,1.36,6.88,5.98,13.47,12.36,18.48,20,7.4.61,14.85.04,22.26.23,3.98.1,8.7,1.4,12.72.02-1.16,6.1-2.6,12.21-3.96,18.27-9.75-.12-19.69-1.12-29.55-1.5-.95-.23-1.56-.54-2.2-1.29-1.68-1.99-4.14-7.93-5.85-10.64-2.22-3.51-5.34-8.44-7.91-11.58-1.54-1.87-10.18-8.92-10.39-9.6-.53-1.74.18-4.72-.09-6.65,1.95-.22,11.98-1.51,12.42-2.82l-.44-76.64,3.5-.5v51.22c5.27,4.01,9.67,9.24,15.28,12.74l22.89-3.94c1.11-6.58,2.36-13.25,3.23-19.86,1.84-14.09.93-27.77-.93-41.9-.12-.9-.27-1.79-.61-2.63-11.26-2.79-22.04-7.1-33.07-10.65-1.07-.8-.84-2.79-1.94-3.8-2.42-2.22-2.95.9-3.84-4.16Z"/>
        <path class="uuid-d4af0ff9-fb69-4dbd-a34e-51bab32e80fe" d="M269.75,206.53c-.04,1.09.37,3.02-.5,3.75-.57.48-11.21,4.56-12.27,4.71-3.68.53-8.59-.17-12.48,0-26.11,1.23-52.29,2.65-78.41,3.54-8.07.27-16.19.18-24.25.48-.87-.81,3.91-7.09,4.49-7.99l123.42-4.5Z"/>
        <path class="uuid-d4af0ff9-fb69-4dbd-a34e-51bab32e80fe" d="M315.22,319.46c-1.43-1.94-3.14-3.93-3.5-6.49l58.46-5c.09,1.08-.4,2.01-.76,2.98-5.16,14.04-16.7,27.71-33.22,25,9.76-2.83,16.83-10.23,19.49-19.99l-40.47,3.5Z"/>
        <path class="uuid-d4af0ff9-fb69-4dbd-a34e-51bab32e80fe" d="M319.72,184.04c2.4-2.28,6.25-6.59,9.73-7.01,16.66-2,28.67,6.74,36.66,20.33.92,1.57,3.64,6.48,4.07,7.93.28.93-.15.66-.73.74-3.47.46-9.84-.38-13.75-.5-1.72-8.88-11.61-18.57-20.29-20.93-4.88-1.33-10.7-1.32-15.69-.55Z"/>
        <path class="uuid-d4af0ff9-fb69-4dbd-a34e-51bab32e80fe" d="M377.18,50.12c-10.19,1.23-24.39,5.41-34.59,8.14-10.96,2.93-21.82,6.45-32.64,9.84-1,.12-.65-.01-.74-.74-.3-2.29.7-4.23,1.51-6.25,17.21-4.91,34.98-9.54,52.34-13.87,3.01-.62,10.38-2.74,13.41-1.73.74.74.7,3.7.7,4.6Z"/>
        <path class="uuid-d4af0ff9-fb69-4dbd-a34e-51bab32e80fe" d="M164.18,301.61c.28.31.27,1.23.85,1.88,9.67,10.92,22.35,17.49,35.77,22.7l18.47,5.75c-16.15-2.68-32.54-3.2-46.91-11.79-4.72-2.82-10.62-8.96-14.3-13.18-1.57-1.8-4.6-4.86-4.5-6.99,1.89,1.01,9.5.36,10.62,1.63Z"/>
        <path class="uuid-d4af0ff9-fb69-4dbd-a34e-51bab32e80fe" d="M522.59,255.5c-.65,10.58-9.24,38.82-24.22,27.47-9.09-6.88-10.79-21.25-11.28-31.7-.09-2.01-.3-4.93.52-6.77.03,1.16-.02,2.33,0,3.5h.49s.5-2,.5-2c-.56,9.9.61,23.43,7.73,30.99,4.56,4.84,10.89,4.93,14.96-.55,7.42-10.02,8.31-27.11,5.79-38.93.96.32.98,1.22,1.26,1.99,1.78,4.79,2.28,8.84,3.24,13.75.17.86.07,1.75.99,2.26Z"/>
        <path class="uuid-d4af0ff9-fb69-4dbd-a34e-51bab32e80fe" d="M495.61,176.04c-10.58-2.52-16.58-1-26.79-.06-4.31.4-21.53-3.15-26.37-4.51-.51-.14-1.68-.16-1.83-.76-.2-1.93.37-3.77.52-5.67,11.65,1.19,17.32,2.97,29.03,3.71,3.15.2,12.64,2.38,15.66,2.82,2.73.39,7.51,2.78,9.77,4.47Z"/>
        <path class="uuid-d4af0ff9-fb69-4dbd-a34e-51bab32e80fe" d="M389.67,314.96c.8-1.35,4.1-8.43,4.63-8.87.5-.41,4.63-1.36,4.31.06-.76,3.43-6.27,12.51-8.62,15.37-.53.65-.69,1.51-1.82,1.43.65-2.75,2.86-5.03,3.48-7.26.35-1.26-1.39-.6-1.98-.73Z"/>
        <path class="uuid-d4af0ff9-fb69-4dbd-a34e-51bab32e80fe" d="M438.17,187.04c1.32.87,8.68,5.39,8.39,6.55-.22.9-4.62,3.14-6.01,2.9-4.41-.75-2.28-6.54-2.38-9.45Z"/>
        <path class="uuid-d4af0ff9-fb69-4dbd-a34e-51bab32e80fe" d="M309.22,319.96c-.33,0-3.44.69-4,1-.39-.55-1.34-1.22-2.01-2.24-.42-.63-2.84-4.42-2.49-4.75,5.62-1.93,6.51,1.59,8.49,5.99Z"/>
        <path class="uuid-d4af0ff9-fb69-4dbd-a34e-51bab32e80fe" d="M389.17,54.61c.48,4.21-.53,2.53-3.45,3.8-.84.37-1.85,1.53-2.3,1.69-.26.09-.36-1.01-1.07-1.41s-2.51-.4-2.97-1.07c-.36-.52.31-1.71.3-2.52,1.43-.2,4.68,1.69,5.72,1.43.25-.06,1.91-2.64,3.78-1.93Z"/>
        <path class="uuid-d4af0ff9-fb69-4dbd-a34e-51bab32e80fe" d="M387.67,324.46c.12-.36-.02-.81.5-1-.06.39-.19.73-.5,1Z"/>
        <path class="uuid-d4af0ff9-fb69-4dbd-a34e-51bab32e80fe" d="M494.11,242.51c-.01,4.9,1.66,18.1,7.35,19.38,3.15.71,4.54-.86,6.04-3.25,2.41-3.84,2.53-8.35,3.6-12.64.02.12.45.53.52,1.21.65,6.49-1.91,21.27-11.16,19.18-7.57-1.71-7.95-18.05-6.35-23.88Z"/>
        <path class="uuid-d4af0ff9-fb69-4dbd-a34e-51bab32e80fe" d="M496.11,273.49c1.48.24,3.81-.72,3.94-2.34.14-1.68-2.86-.93-2.44-2.66,2.65,1.6,4.98.97,7.49-.5.08,4.33-5.14,9.32-8.99,5.5Z"/>
      </g>
      <g>
        <path class="uuid-336d3a28-f136-4394-b327-ce0d9639c9ce" d="M349.54,162.54c-53.4,6.34-106.88,11.38-160.28,17.66-8.69,2.56-18.07,5.67-24.86,11.86-.15.14.7.06,1.56-.12,2.41-.51,3.61-.77,6.07-2.34,5.42-3.44,19.99-6.17,21.77-6.5,3.42-.63,6.69-.96,13.25-1.64,4.9-.5,8.53-.77,9.61-.85,12.89-.96,28.95-3.24,53.87-5.78,17.01-1.73,20-1.74,38.52-3.77,7.26-.8,13.24-1.5,17.24-1.99-1.36.53-3.24,1.37-5.33,2.67-2.91,1.82-5.05,3.83-7.47,6.5-4.4,4.85-7.98,9.95-10.69,14.31.37.74.41,3.11,1.49,3.78,1.1.68,4.4-5.07,5.31-6.22,24.14-30.71,57.4-30.13,78.15,3.69,1.14,1.87,5.89,12.12,6.47,12.52,1.04.7,4.58-.03,6.02.22-9.26-21.6-25.46-42.19-50.71-44.01Z"/>
        <path class="uuid-336d3a28-f136-4394-b327-ce0d9639c9ce" d="M529.34,208.28c-1.27-8.77-3.38-17.39-6.3-25.76-.44-1.27-1.71-2.12-3.08-1.75-.23.06-.44.17-.64.3-3.87-3.69-11.7-9.32-14.1-11.3-10.23-8.43-20.59-16.77-30.76-25.21-8.73-7.25-17.19-14.81-25.99-21.98-1.06-16.1-.21-33.23-4-48.97-.53-2.2-2.4-9.4-3.72-10.77-1.11-1.15-7.03-3.33-8.9-4.1-2.86-1.18-5.69-2.24-8.5-3.24.43-.09.85-.24,1.21-.45.62-.35,1.59-1.4.52-1.92-6.97-3.35-14.73-4.53-22.09-6.75-3.89-1.17-7.76-2.44-11.63-3.68-1.87-.6-3.76-1.17-5.61-1.87-1.88-.7-3.64-1.45-5.66-1.7-.33-.04-.74-.02-1.15.04-1.78-.47-3.62-.73-5.46-.62-.02,0-.05,0-.07,0-.43-.06-.93-.09-1.25.09-.32.17-.36.4-.03.65,1.03.79,2.27,1.22,3.51,1.53.35.09.7.15,1.05.23.28.1.59.23.92.39.31.15.59.31.84.46,2.9,2.1,4.46,4.92,4.8,8.7,1.58-.56,1.41-3.52,3.11-2.91l51.35,17.66c4.15,8.09,5.76,16.97,6.5,25.99.25,3.06.42,6.88.53,9.97.39,11.21-.06,22.58-.52,33.75,1.7-1.33,2.45-3.98,3-6,.65-.08,1.14.27,1.67.57,3.74,2.21,9.57,7.72,13.27,10.72,17.9,14.54,35.88,29.42,53.51,44.43,1.25,1.06,2.57,2.13,3.91,3.16,2.22,7.07,3.87,14.29,4.94,21.63.19,1.34,1.89,2.07,3.08,1.75,1.44-.39,1.94-1.73,1.75-3.08Z"/>
        <path class="uuid-336d3a28-f136-4394-b327-ce0d9639c9ce" d="M295.82,195.56c-2.32-.46-11.03.48-12.25,2.49-1.34,2.22.56,17.76-.32,21.42l-9.94,2.9c-.16,17.96-.26,32.36-.5,50.32-.02,1.18.03,5.87,0,7.05-.06,3.55-.55,10.93.03,14,.45,2.4,7.44,5.12,7.98,8.26-1.97-.49-15.24-3.08-15.5-3.84l.98-79.81,9.96-2.87.15-20.34c2.49-1.88,17.31-3.7,18.66-2.09.5.6.43,1.94.74,2.5Z"/>
        <path class="uuid-336d3a28-f136-4394-b327-ce0d9639c9ce" d="M412.51,123.73c-.06-3.47-.01-6.95,0-10.41h-2.27v25.28c.67-.1,1.61.1,2.28,0l.76-.54c.04-3.78-.05-7.58,0-11.36-1.26-.56-.76-2.05-.77-2.97Z"/>
        <path class="uuid-336d3a28-f136-4394-b327-ce0d9639c9ce" d="M428.01,110.81c-.53,8.02-3,15.85-3.7,23.83-.09,1.04-.62,2.08,1.01,1.8.45-.13,1.44.4,1.64-.33l3.62-25.95c-1.14.21-1.69.5-2.57.65Z"/>
        <path class="uuid-336d3a28-f136-4394-b327-ce0d9639c9ce" d="M112.93,227.04c8.9-.22,17.85-.2,26.75-.48,30.74-.96,61.59-2.56,92.4-3.54,8.92-.28,17.84-.25,26.76-.48.02,1.49-.03,3.01,0,4.5-9.41.23-18.84.27-28.25.48-38.64.86-77.27,1.91-115.93,2.5-2.06.03-3.15,0-6.22-.23,1.43-1.02,3-1.84,4.49-2.75Z"/>
        <path class="uuid-336d3a28-f136-4394-b327-ce0d9639c9ce" d="M425.42,219.55c.88-.02,1.76-.03,2.64-.02,3.66.15,7.31.3,10.97.44.08,0,.17,0,.25-.01.8.09,1.2.11,1.94.08-.15-.29-.25-.59-.36-.88l-.54-1.23c-.15-.24-.32-.46-.56-.68-2.26-2.06-9.58-1.04-12.8-1.19-33.26-1.58-66.6-3.49-99.9-5.04-7.55-.35-15.2-.29-22.76-.48.36,4.94,2.62,3.22,6.24,3.5,31.25,2.44,65.52,3.53,96.95,4.97.09.02.18.04.27.05,4.85.41,9.57.19,14.44.41l3.21.06Z"/>
        <path class="uuid-336d3a28-f136-4394-b327-ce0d9639c9ce" d="M383.26,152.29c.6-.14,1.22-.44,1.82-.61.17-11.22.46-22.46.65-33.71-1.25.22-2.5.44-3.76.69l1.28,33.64Z"/>
        <path class="uuid-336d3a28-f136-4394-b327-ce0d9639c9ce" d="M388.76,75.62c.24-.86,1.38-.73,2.21-1.53,1.72-1.67,1.63-8.31,1.26-10.68-.25-1.56-1.23-2.09-1.97-3.27,1.76-.02,4.06-.52,4.48,1.76.28,1.5.24,8.9-.09,10.37-.52,2.34-3.71,3.64-5.89,3.35Z"/>
      </g>
      <path d="M512.85,164.4c5.72,4.69,12.13,8.65,17.2,14.03,1.91,9.42,4.36,18.73,6.36,28.12.48,2.28.46,4.59.88,6.62.67,3.21,2.3,12.64,3.37,15,.16.35,4.55,2.86,5.6,5.01.97,1.99,1.26,8.06,1.39,10.61.35,7.3.11,15.14-.59,22.38-.22.71-4.93,3.89-5.95,4.55-.75.49-2.07.47-2.49,1.12-1.07,1.64-1.56,7.74-2.21,10.16-2.65,9.84-7.65,19.29-14.24,26.98,4.58.13,33.02.94,34.76,3.48,1.92,2.81-5.93,5.77-7.65,6.4-5.17,1.88-11.61,3.47-17.01,4.98-47.98,13.42-96.79,22.83-146.34,28.55l-51.14,6.06,102.7.48c47.38,1.68,95.02,1.08,142.41,3.5,8.68.44,23.8.67,31.73,2.75,6.18,1.62-1.14,2.91-3.77,3.26-22.48,3.01-49.44,1.86-72.47,2.48-141.6,3.82-284.09,3.8-425.69,0-22.99-.62-49.49.46-71.97-2.48-.94-.12-6.49-1.23-6.75-1.5-.66-.67.11-.87.63-1.11,1.49-.68,4.46-1.08,6.18-1.32,12.18-1.7,24.68-1.5,36.93-2.04,24.75-1.1,49.62-1.99,74.41-2.54,11.1-.25,22.18.13,33.25-.48l-38.08-5.64c-15.09-3.11-30.39-5.4-45.48-8.49-6.01-1.23-39.5-8.07-41.89-11.2-.21-.28-.62-1.39-.46-1.62,4.39-1.61,9.16-2.28,13.79-2.96,16.84-2.46,34.9-3.97,51.91-5.56,10.72-1,21.49-1.67,32.22-2.51l-5.23-3.51c-3.29-3.12-6.59-6.63-8.98-10.51-.83-1.35-1.91-5.28-3.17-5.96-2.36-1.28-11.35-.18-14.8-.56-6.59-.74-17.45-3.6-24.41-5.07-5.05-1.07-10.15-2.48-15.14-3.85l.32-75.43,11.92-2.57-.41-14.9c10.62-3.7,21.91-4.57,33.07-5.5,1.98.96,8.79,11.91,9.58,11.92,2.07-2.58,3.12-5.59,5.26-8.23,11.12-13.74,26.12-23.32,43.77-26.19l105.13-10.55.48-30.75c.77-4.61.61-9.33,1.02-13.97.29-3.35,1.63-8.45,1.54-11.5-.07-2.2-1.89-1.61-3.57-2.46-2.14-1.08-2.52-2.73-2.51-5.03,0-3.99,2.87-18.43,4.6-21.92,2.11-4.24,7.5-4.79,7.87-5.37.2-.32.47-6.16.71-7.53.86-4.75,3.11-11.44,7.84-13.65,3.95-1.84,11.45-2.64,16.1-3.88,16.72-4.47,33.3-9.54,50.1-13.75,5.56-.14,9.84,1.99,14.27,3.54,12.59,4.4,25.96,8.49,39.35,12.71,5.16,1.63,15.95,4.96,19.08,8.9,4.26,8.01,6.2,20.67,7.75,34.41.67,8.78,2.25,20.2,3.25,28.55.08.69.14,1.35.56,1.94,9.8,7.99,19.4,16.28,29.19,24.28,7.91,6.46,16.06,12.9,23.9,19.33ZM377.99,40.26c-1.63-.3-3.92-.06-5.85.52-19.45,5.54-39.49,9.27-58.68,15.52-1.38,1.55-1.92,3-2.66,4.84-.81,2.01-1.81,3.96-1.51,6.25.1.72-.26.86.74.74,10.82-3.39,21.68-6.91,32.64-9.84,10.2-2.73,24.39-6.9,34.59-8.14.8-.1,1.66-.28,2.47-.34.03,1.53.07,2.57.03,3.7-.03.72-.1,1.58-.1,1.64-.03.84-.1,1.95.12,2.53.15.38,1.91.63,2.65,1.05s.81,1.5,1.07,1.41c.45-.16,1.46-1.33,2.3-1.69,2.92-1.27,3.93.41,3.45-3.8-.19-1.66-.16-2.38-1-4,4.71-.2,3.88.51,4.49,4,.89,5.05,1.42,1.94,3.84,4.16,1.1,1.01.87,3,1.94,3.8,11.03,3.55,21.82,7.87,33.07,10.65.34.84.49,1.73.61,2.63,1.87,14.13,2.77,27.81.93,41.9-.86,6.62-2.12,13.29-3.23,19.86l-22.89,3.94c-5.61-3.5-10.01-8.73-15.28-12.74v-51.22l-3.5.5.44,76.64c-.45,1.31-10.47,2.6-12.42,2.82.27,1.93-.44,4.91.09,6.65.21.68,8.85,7.73,10.39,9.6,2.57,3.14,5.69,8.07,7.91,11.58,1.71,2.71,4.17,8.64,5.85,10.64.64.76,1.25,1.07,2.2,1.29,9.86.38,19.8,1.38,29.55,1.5,1.36-6.06,2.8-12.18,3.96-18.27,2.22-11.64,3.62-23.46,6.5-34.98.94-.1.4,1.05.35,1.6-.55,5.97-1.37,11.91-1.85,17.89-.15,1.89-.72,3.73-.52,5.67.14.59,1.32.61,1.83.76,4.83,1.36,22.05,4.9,26.37,4.51,10.21-.94,16.21-2.45,26.79.06,13.44,3.2,22.82,11.21,28.98,23.49,1.19,2.38,2.09,4.99,3,7.49.88.13.49-1.12.38-1.63-.19-.89-.77-3.76-1.28-5.51-.9-3.5-1.81-6.8-2.85-10.03-.65-2.03-1.61-4.33-2.5-6.31-1.26-2.81-13.14-11.26-16.2-13.78-10.23-8.43-20.59-16.77-30.76-25.21-8.73-7.25-17.19-14.81-25.99-21.98-1.06-16.1-.21-33.23-4-48.97-.53-2.2-2.4-9.4-3.72-10.77-1.11-1.15-7.01-3.37-8.89-4.1-14.52-5.63-26.69-10-41.35-14.61-4.44-1.48-8.2-3.09-12.51-3.89ZM376.76,54.64l-38.97,8.5,4.24.49,30.49-2.51,1.21.83c-2.35,23.73-3.22,47.59-3.48,71.41.04,6.05.41,10.66.5,15.99.04,2.55.18,6.37-.06,9.4-.14,1.76-9.24,2.09-11.42,2.33,2.17,2.82,10.23,1.97,12.87.63,1.13-.57,1.6-1.74,1.57-2.93-.18-6.78-.31-18.15-.42-24.92-.16-10.53,0-20.67.48-31.7l2.99-47.53ZM388.76,75.62c2.17.29,5.36-1.01,5.89-3.35.33-1.48.37-8.87.09-10.37-.43-2.28-2.72-1.78-4.48-1.76.74,1.18,1.72,1.71,1.97,3.27.38,2.37.47,9.01-1.26,10.68-.83.8-1.97.67-2.21,1.53ZM376.27,118.6c-.25,11.31.19,22.67,0,33.98.25.25,6.19-.77,7-1,.47-.14.95-.41,1.41-.58.31-24.24,1.1-48.62.33-72.87-4.69-2.59-.91-11.62-2.31-15.68-.33-.96-2.48-1.04-3.43-1.31-1.02,9.01-1.09,18.15-1.51,27.23-.46,10-1.27,20.29-1.49,30.24ZM412.25,112.97c0-10.11,0-20.36-.39-30.42-.1-2.52-.08-8.82-.68-10.6-.5-1.5-9.86-2.73-11.57-3.79-.88-.55-.83-2.31-1.85-2.52v8.25c0,1.71-3.27,2.85-3.88,3.38-.29.25-.05.73-.12.86v38.48l-.03,11.27,12.04,10.45c1.67.86,2.8.51,4.19.21.44-.09,1.35-.35,1.79-.44.32-.07.49-.13.5-.5.02-3.49-.03-7,0-10.49v-14.13ZM416.24,113.11c.14,8,.24,15.99.5,23.99,2.89-.01,5.75-.7,8.5-1.5.42-.12,1.49-.78,1.68-1.46l4.27-30.83-3.03-27.09-12.41-3.58c.04,13.49.27,26.99.5,40.47ZM303.31,76.13c-6.05.31-6.89,4.16-8.06,9.17-.47,2-1.7,7.83-1.44,9.53.28,1.84,2.77,2.28,4.26,2.78,2.07-.25-1.05-.98-1.29-1.33-1.21-1.75,1.62-15.1,3.19-16.52,1.46-1.32,3.19-.31,3.35-3.65ZM313.31,78.13h-3.5c-4.11,26.92-6.17,54.15-5.5,81.46l9-.5v-80.95ZM339.79,85.12l-18.49-3.5c-.77,4.62-.91,9.83-1.02,14.72-.19,8.12-.77,16-.62,23.88.11,5.94.37,11.98,1.4,17.86,2.31,2.18,9.85,10.04,12.39,10.71,1.3.35,4.31.02,6.34-.21v-63.46ZM344.29,148.58c1.99-1.17,8.7.27,9.75-.99l5.62-19.87-1.12-37.61c-.24-.49-.65-.67-1.13-.87-1.47-.59-11.8-2.66-13.36-2.64l.25,61.98ZM164.4,192.06c-.9-.06-11.67,8.78-11.99,10.99-3.04,2.7-3.93,4.8-6,8-.59.91-5.36,7.18-4.49,7.99,8.07-.29,16.19-.2,24.25-.48,26.12-.89,52.3-2.31,78.41-3.54,3.89-.18,8.8.52,12.48,0,1.06-.15,11.71-4.24,12.27-4.71.87-.73.46-2.66.5-3.75.16-4.53-.12-9.1,0-13.64,8.66-5.96,20.42-6.18,30.49-4.6.68,1.39,1.85,2.95,2.5,4.25.37.74.41,3.11,1.49,3.78s4.4-5.07,5.31-6.22c24.14-30.71,57.4-30.13,78.15,3.69,1.14,1.87,5.89,12.12,6.47,12.52,1.04.7,4.58-.03,6.02.22-9.26-21.6-25.46-42.19-50.71-44.01-53.4,6.34-106.87,11.38-160.28,17.66-8.69,2.56-18.07,5.67-24.86,11.86ZM319.8,184.06c-4.06,3.86-7.76,8.26-10.91,12.81-1.41,2.03-2.92,4.17-1.1,6.45,9.89.9,19.83.78,29.74,1.23,6.1.28,12.12.81,18.24.99,3.91.12,10.28.96,13.75.5.58-.08,1.01.2.73-.74-.43-1.45-3.15-6.36-4.07-7.93-7.99-13.59-20-22.33-36.66-20.33-3.48.42-7.33,4.72-9.73,7.01ZM485.2,184.07c.6.64,4.7-2.13,5.48-2.75.02-.83-5.09-1.4-5.98-1.25l.5,3.99ZM480.65,180.62c-.65-.57-6.13.32-7.43.46-.35,2.48,1.36,4.56,1.49,6.98.52.45,6.41-2.79,6.77-3.5.19-.37-.68-3.81-.83-3.94ZM469.7,182.06c-.3-.23-6.91,2.43-7.01,2.84-.58,2.33,1.84,6.67,2.53,9.16.39.29,6.3-3.9,6.44-4.34.51-1.59-1.76-5.84-1.95-7.66ZM460.21,186.57c-.5-.46-7.25,4.76-7.44,5.33-.55,1.67,2.82,6.6,2.57,8.77,3.34-1.65,4.32-3.59,6.91-4.93l-2.04-9.17ZM438.23,187.06c.1,2.77-1.93,8.29,2.27,9,1.32.23,5.51-1.91,5.72-2.76.27-1.1-6.73-5.41-7.99-6.24ZM483.66,189.6c-.54-.39-5.4,1.93-5.74,2.46-.76,1.2,1.51,4.39,1.28,6,.27.24,6.25-2.77,6.45-3.06.42-.61-1.88-4.37-2-5.4ZM295.82,195.56c-.32-.56-.24-1.9-.74-2.5-1.35-1.61-16.17.21-18.66,2.09l-.15,20.34-9.96,2.87-.98,79.81c.26.76,13.53,3.35,15.5,3.84,7.07,1.75,16.42,5.13,23.49,5,13.45-.26,28.65-2.84,42.23-4,30.52-2.61,61.24-4.4,91.69-7.5,1.14-.12,2.35.09,3.5,0-.28-1.49.4-2.88.49-4.26,1.43-20.91-.56-43.62.5-64.71.46-2.89-.35-4.18-1.5-6.5-.48-.97-.56-1.97-1.46-2.79-2.26-2.06-9.58-1.04-12.8-1.19-33.26-1.58-66.6-3.49-99.9-5.04-7.55-.35-15.2-.29-22.76-.48-.58-.21-1.12-.33-1.52-.85-1.8-2.31-4.1-9.51-5.71-12.67-.42-.82-1.12-1.22-1.26-1.47ZM475.63,198.49c.6-.95-1.45-5.72-2.22-5.9l-6.17,3.51,1.98,5.46c.29.21,6.22-2.77,6.41-3.07ZM447.23,209.05c.32.24,4.82-5.96,4.91-6.35.34-1.43-1.97-5.56-2.43-7.14-.75-.53-4.72,4.82-4.91,5.86-.4,2.17,2.07,5.38,2.43,7.63ZM460.22,209.55c.6.44,5.81-4.79,5.91-5.32.07-.36-2.8-6.67-3.17-6.67l-5.69,5.23,2.95,6.76ZM473.71,210.05c.36.26,5.34-3.96,5.42-4.3.12-.5-1.76-5.11-2.19-5.2-1.08.72-5.46,2.87-5.64,3.81-.28,1.45,2.42,4,2.41,5.68ZM122.43,205.55c-.1-.17.3-.91-.31-1.02-2.74-.39-13.72.48-14.93,3.02-1.07,2.24.41,14.61-.3,15.44l-11.44,2.05-1.03,59.17c.12.69,4.27.64,5.03.79,8.48,1.63,15.42,1.92,23.98,2.5,38.97,2.64,78.15,4.97,117.18,6.99,5.56.29,11.18.33,16.74.51.05-5.49-.08-11.01,0-16.49.23-17,1.83-34.6,1.5-51.47-.03-1.49.02-3.01,0-4.5-8.92.23-17.84.2-26.76.48-30.81.98-61.66,2.58-92.4,3.54-8.9.28-17.85.26-26.75.48,4.82-2.95,8.67-4.6,13.99-6.5.64-.23,1.34-.32,1.99-.52-1.54-4.69-3.88-10.19-6.48-14.47ZM454.66,205.49c-.94.58-.91.87-1.36,1.39-.59.69-3.73,5.1-3.86,5.65-.46,1.88,1.63,4.6,1.79,6.51.34.27,5.81-5.89,5.89-6.31.31-1.55-2.22-5.34-2.46-7.24ZM467.92,214.76c.75-.72,2.25-1.22,2.28-2.44.01-.65-2.39-5.25-2.74-5.25-1.1,1.5-4.86,3.87-4.76,5.69.08,1.47,2,2.67,2.02,4.29.64.5,2.7-1.81,3.2-2.29ZM446.21,221.04c.13-.11,1.01-2.16.94-2.62-.09-.67-2.85-7.14-3.92-6.36-1.79,2.86-.27,2.24.6,4.14.6,1.31.81,2.96,1.35,4.15.21.46.15,1.44,1.04.7ZM487.7,244.53c-.83,1.84-.62,4.76-.52,6.77.49,10.45,2.19,24.82,11.28,31.7,14.99,11.34,23.57-16.89,24.22-27.47.68-11.08-.85-25.01-7.49-34.23-8.84-12.26-19.54-4.84-24.22,6.27-2.39,5.66-3.4,10.83-3.27,16.97ZM459.21,216.05c-.76-.55-5.27,4.74-5.43,5.35-.21.8,2.17,6.14,2.69,6.13.78-1.5,4.52-4.92,4.64-6.31.1-1.14-1.85-3.76-1.9-5.17ZM447.23,236.03c.81.56,5.28-5.74,5.39-6.33.07-.43-3.75-7.06-4.15-7.15-2.97-.71-2.89,12.34-1.23,13.49ZM164.27,301.64c-1.12-1.27-8.73-.62-10.62-1.63-.11,2.13,2.93,5.19,4.5,6.99,3.68,4.22,9.58,10.36,14.3,13.18,14.37,8.6,30.76,9.11,46.91,11.79l-18.47-5.75c-13.42-5.21-26.11-11.78-35.77-22.7-.57-.65-.57-1.57-.85-1.88ZM446.72,310.49c-1.49-1.37-4-5.34-5.73-5.54l-25.49,1.55c-4.25,2.92-4.84,3.83,1.01,3.51,7.6-.41,17.54-1.7,24.98-1.04,2.12.19,3.31.98,5.23,1.51ZM388.26,322.99c1.13.08,1.29-.78,1.82-1.43,2.35-2.87,7.86-11.95,8.62-15.37.31-1.42-3.81-.47-4.31-.06-.53.44-3.83,7.51-4.63,8.87-18.23,30.94-49.81,40.28-75.45,10.74-1.15-1.32-2.96-5.72-5-5.75-1.98-4.41-2.87-7.92-8.49-5.99-.35.34,2.07,4.12,2.49,4.75.67,1.02,1.63,1.69,2.01,2.24,14.03,20.06,31.92,31.86,57.57,24.34,7.5-2.2,22.44-13.35,24.88-20.84.31-.27.44-.61.5-1,.03-.16-.04-.35,0-.5ZM336.29,335.98c16.52,2.71,28.06-10.96,33.22-25,.36-.97.85-1.9.76-2.98l-58.46,5c.36,2.57,2.07,4.55,3.5,6.49,4.74,6.42,12.97,15.18,20.99,16.49Z"/>
      <path d="M66.96,103.61l237.35-59.46c-5.74,4.25-7.8,9.39-8.94,16.29-.18,1.08.14,5.27-.91,5.7l-208,49.98-.02,91.68c-.02.66-.24.92-.85,1.15-2.45.91-6.94,1.08-9.65,1.6l-.53,85.66,10.97,2.84.05,20.69-.82,1.18c-5.3-.22-11.96,2.58-16.94,2.59-.56,0-1.72-.26-1.72-.77V103.61Z"/>
      <path d="M580.14,87.53v263.44l-18.49-1.5v-27.48c7.25-1.46,12.68-8.33,4.67-13.41-1.73-1.09-4.67-1.04-4.69-3.3V100.04s-98.46-25.87-98.46-25.87c-.35-2.72-1.01-6.03-2.25-9.68-1.14-3.37-2.5-6.21-3.77-8.47,41,10.5,82,21.01,123,31.51Z"/>
      <path d="M289.68,199.65c6.15-1.84,8.04,9.83,4.4,13.91-6.62,7.42-11.14-11.89-4.4-13.91ZM290.31,202.06c-3.08-2.01-3.26,9.32-.74,10.49,1.01.47,1.72-3.19,1.76-3.76.07-.92-.73-6.54-1.02-6.73Z"/>
      <path d="M114.43,211.55c-.62,1.49-.03,6.12,2.49,5.99.64-1.45,1-5.9-.82-6.44-.5-.15-1.56.19-1.67.45.33-.74-.75-1.48,1.36-1.87,7.85-1.46,7.55,10.82.51,9.27-1.83-.4-2.88-3.45-2.89-5.16,0-1.48.72-1.56,1.02-2.24Z"/>
      <path d="M517.18,237.53c2.52,11.82,1.63,28.92-5.79,38.93-4.07,5.49-10.4,5.4-14.96.55-7.13-7.57-8.29-21.1-7.73-30.99.48-8.61,3.88-25.85,14.81-26.45,8.08-.45,12.31,11.56,13.67,17.96ZM494.19,242.53c-1.6,5.83-1.22,22.17,6.35,23.88,9.26,2.09,11.81-12.68,11.16-19.18-.07-.67-.51-1.09-.52-1.21-1.96-13.97-12.62-19.44-16.99-3.5ZM496.19,273.52c3.85,3.82,9.07-1.17,8.99-5.5-2.5,1.47-4.83,2.1-7.49.5-.43,1.73,2.57.98,2.44,2.66-.13,1.62-2.46,2.58-3.94,2.34Z"/>
      <polygon points="548.41 544.16 326.93 544.16 326.71 544.16 105.23 544.16 105.23 633.36 326.79 685.46 326.79 685.48 326.82 685.47 326.85 685.48 326.85 685.46 548.41 633.36 548.41 544.16"/>
      <polygon points="564.93 544.16 564.93 645.6 326.82 702.61 88.71 645.6 88.71 544.16 31.25 544.16 70.25 555.99 70.74 658.34 326.82 720.06 582.9 658.34 583.39 555.99 622.39 544.16 564.93 544.16"/>
      <g>
        <path class="uuid-5a47895d-7c20-4809-8051-ef2047336e33" d="M267.1,398.94l11.24,79.96,11.24-79.96h25.48v113.43h-16.99v-82.95l-12.57,82.13c-.16.66-.61.72-1.18.82-3.91.73-9.8-.56-13.95.03l-13.28-83.48v83.45h-15.99v-113.43h25.98Z"/>
        <polygon class="uuid-5a47895d-7c20-4809-8051-ef2047336e33" points="409.26 398.94 427 466.41 427 398.94 442.99 398.94 442.99 512.38 424.5 512.38 403.02 429.93 403.02 512.38 387.03 512.38 387.03 398.94 409.26 398.94"/>
        <path class="uuid-5a47895d-7c20-4809-8051-ef2047336e33" d="M520.62,507.21c-5.06-5-6.95-12.18-7.66-19.07,1.01-21.12-1.36-43.51-.03-64.48.89-14.06,8.4-25.06,23.24-26.23,15.78-1.24,27.86,4.98,30.69,21.32-.08,22.35,2,46.67.58,68.92-.53,8.34-3.57,17.45-10.85,22.13-9.8,6.29-27.46,5.81-35.96-2.58ZM539.34,413.55c-5.88.41-8.19,4.8-8.4,10.14-.76,20.24.21,43.21-.03,63.47.46,5.86,2.61,10.72,9.26,10.72,6.17,0,8.94-4.2,9.18-9.8.89-20.55-.18-43.66.08-63.92-.5-6.35-2.92-11.12-10.1-10.61Z"/>
        <path class="uuid-5a47895d-7c20-4809-8051-ef2047336e33" d="M83.72,512.38l18.07-112.6.38-.62,23.71-.25,18.79,113.46h-17.99l-3-21.99-20.02.22-3.46,21.77h-16.49ZM121.19,474.9l-7.75-55.47-7.75,55.47h15.49Z"/>
        <path class="uuid-5a47895d-7c20-4809-8051-ef2047336e33" d="M628.87,430.43h-16.99v-9.24c0-1.93-2.36-5.37-4.14-6.35-6.28-3.45-12.64.36-13.34,7.36-1.9,19.07,23.32,28.93,31.07,44.88,7.56,15.56,5.33,41.02-14.19,45.96-17.48,4.42-35.37-4.24-35.37-23.88v-10.24h16.99v9.24c0,.82.99,4.14,1.41,5.09,2.77,6.34,13.99,5.86,16.24-1.43,7.18-23.29-28.75-34.45-33.41-57.86-4.55-22.88,7.1-39.41,31.37-36.37,10.74,1.35,20.37,11.66,20.37,22.61v10.24Z"/>
        <path class="uuid-5a47895d-7c20-4809-8051-ef2047336e33" d="M162.17,398.94l11,85.45c1.05-.36,1.29-1.86,1.45-2.79,4.04-23.1,6.23-48.05,9.47-71.48.51-3.69.93-7.45,1.07-11.17h16.99l-16.99,113.44-24.02-.22-17.45-113.22h18.49Z"/>
        <path class="uuid-5a47895d-7c20-4809-8051-ef2047336e33" d="M49.24,466.41v45.97h-17.99v-113.43h31.23c7.09,0,15.71,5.89,18.83,12.15,4.2,8.42,4.45,29.91,1.66,38.82-2.9,9.26-11.5,16.49-21.49,16.49h-12.24ZM49.24,449.92h10.74c2.11,0,5.36-3.51,5.9-5.59.78-3.01.78-19.19.22-22.53-.18-1.05-1.15-3.36-1.87-4.13-.37-.39-3.54-2.24-3.76-2.24h-11.24v34.48Z"/>
        <path class="uuid-5a47895d-7c20-4809-8051-ef2047336e33" d="M377.03,398.94v16.49h-30.48v29.48h23.74c.05,0,.75.7.75.75v14.99c0,.05-.7.75-.75.75h-23.74v34.48h30.48v16.49h-48.47v-113.43h48.47Z"/>
        <path class="uuid-5a47895d-7c20-4809-8051-ef2047336e33" d="M506.95,398.94v15.74c0,.05-.7.75-.75.75h-18.24v96.94h-17.99v-96.94h-18.49v-16.49h55.47Z"/>
        <rect class="uuid-5a47895d-7c20-4809-8051-ef2047336e33" x="210.14" y="398.94" width="17.99" height="113.43"/>
      </g>
      <g>
        <path class="uuid-d92d161f-6635-450e-a0a4-3e0234a3d80a" d="M176.94,555.86c0,1.86,0,3.65,0,5.39,0,1.74,0,3.42,0,5.05,0,1.63,0,3.22,0,4.76s0,3.06,0,4.54,0,2.93,0,4.36,0,2.85,0,4.25,0,2.8,0,4.19c0,1.39,0,2.79,0,4.19,0,1.4,0,2.82,0,4.25,0,1.43,0,2.88,0,4.36,0,1.48,0,2.99,0,4.54,0,1.55,0,3.13,0,4.76,0,1.63,0,3.31,0,5.05,0,1.74,0,3.53,0,5.39,0,1.38-.14,2.67-.42,3.89-.28,1.21-.7,2.35-1.27,3.39-.56,1.04-1.25,2-2.05,2.86-.8.86-1.72,1.62-2.76,2.29-1.04.67-2.16,1.22-3.35,1.65-1.2.43-2.47.74-3.83.93-1.36.19-2.76.24-4.2.16-1.45-.08-2.94-.3-4.47-.64-1.54-.35-3.02-.8-4.45-1.36-1.43-.56-2.82-1.22-4.15-1.99-1.33-.76-2.59-1.6-3.78-2.5-1.19-.9-2.3-1.87-3.33-2.9-1.04-1.03-1.97-2.09-2.78-3.17-.81-1.09-1.51-2.2-2.1-3.34-.59-1.14-1.03-2.3-1.32-3.47-.29-1.17-.44-2.36-.44-3.58v-57.39c1.84,0,3.38,0,4.81,0,1.43,0,2.76,0,4.2,0,1.43,0,2.97,0,4.81,0,0,1.96,0,3.83,0,5.64v5.23c0,1.68,0,3.31,0,4.9v9.16c0,1.48,0,2.95,0,4.41v8.91c0,1.52,0,3.07,0,4.66v10.13c0,1.81,0,3.68,0,5.64,0,1.37.2,2.6.61,3.68s1.02,2.03,1.83,2.84c.81.81,1.73,1.48,2.74,2,1.02.53,2.13.91,3.35,1.15s2.34.29,3.35.15c1.02-.14,1.93-.47,2.74-.99.81-.52,1.42-1.28,1.83-2.26.41-.98.61-2.2.61-3.64v-5.48c0-1.76,0-3.46,0-5.11,0-1.65,0-3.25,0-4.8s0-3.08,0-4.57v-4.4c0-1.45,0-2.88,0-4.3s0-2.84,0-4.27v-4.3c0-1.45,0-2.91,0-4.4s0-3.01,0-4.57,0-3.16,0-4.8v-5.11c0-1.76,0-3.58,0-5.48,1.84,0,3.38,0,4.81,0,1.43,0,2.76,0,4.2,0s2.97,0,4.81,0Z"/>
        <path class="uuid-d92d161f-6635-450e-a0a4-3e0234a3d80a" d="M189.94,642.72c0-1.93,0-3.81,0-5.63,0-1.83,0-3.61,0-5.35,0-1.74,0-3.44,0-5.1,0-1.66,0-3.29,0-4.88,0-1.6,0-3.16,0-4.71,0-1.54,0-3.06,0-4.56,0-1.5,0-2.98,0-4.46,0-1.47,0-2.93,0-4.38s0-2.9,0-4.35c0-1.45,0-2.89,0-4.35,0-1.45,0-2.91,0-4.38,0-1.47,0-2.95,0-4.46,0-1.5,0-3.02,0-4.56s0-3.11,0-4.71c0-1.6,0-3.22,0-4.88,0-1.66,0-3.36,0-5.1,0-1.74,0-3.52,0-5.35,0-1.83,0-3.7,0-5.63,1.78,0,3.38,0,4.87,0,1.49,0,2.88,0,4.23,0,1.35,0,2.67,0,4.02,0,1.35,0,2.74,0,4.23,0s3.09,0,4.87,0c1.81,0,3.51.12,5.12.35s3.11.57,4.52,1.03,2.71,1.04,3.91,1.74c1.2.7,2.31,1.52,3.31,2.45,1,.94,1.91,2,2.71,3.18.8,1.18,1.51,2.48,2.11,3.9.6,1.42,1.1,2.96,1.51,4.61.4,1.66.7,3.43.9,5.32.2,1.89.3,3.89.3,6,0,1.91-.1,3.72-.29,5.42-.2,1.7-.49,3.3-.88,4.79-.39,1.49-.88,2.87-1.47,4.13-.59,1.27-1.32,2.43-2.21,3.48-.88,1.05-1.91,2-3.09,2.83-1.18.84-2.51,1.56-3.98,2.18.6,1.8,1.16,3.52,1.7,5.17.54,1.65,1.06,3.23,1.56,4.77.5,1.53.98,3.02,1.45,4.47.47,1.45.93,2.87,1.38,4.28.45,1.41.9,2.8,1.35,4.19.45,1.39.89,2.79,1.35,4.22.45,1.42.91,2.87,1.38,4.35s.95,3.02,1.45,4.61c.5,1.59,1.02,3.24,1.56,4.98.54,1.73,1.11,3.55,1.71,5.47-1.95-.44-3.58-.8-5.09-1.14-1.52-.34-2.93-.66-4.44-1-1.52-.34-3.14-.7-5.09-1.14-.57-1.92-1.11-3.73-1.63-5.45-.52-1.72-1.01-3.35-1.48-4.92-.47-1.57-.93-3.08-1.37-4.54-.44-1.47-.88-2.89-1.31-4.31-.43-1.41-.86-2.81-1.29-4.21-.43-1.4-.87-2.81-1.31-4.26s-.9-2.91-1.37-4.44c-.47-1.52-.96-3.1-1.48-4.75s-1.06-3.37-1.63-5.18c-1.65-.21-2.89-.37-4.13-.53-1.24-.16-2.48-.32-4.13-.53,0,1.92,0,3.72,0,5.43s0,3.33,0,4.89c0,1.56,0,3.06,0,4.53,0,1.47,0,2.91,0,4.35,0,1.44,0,2.88,0,4.35,0,1.47,0,2.97,0,4.53,0,1.56,0,3.18,0,4.89,0,1.71,0,3.51,0,5.43-1.84-.41-3.38-.76-4.81-1.08s-2.76-.62-4.2-.94c-1.43-.32-2.97-.67-4.81-1.08ZM203.76,568.03c0,1.87,0,3.58,0,5.19,0,1.61,0,3.11,0,4.57,0,1.45,0,2.86,0,4.26,0,1.4,0,2.8,0,4.26,0,1.45,0,2.96,0,4.57,0,1.61,0,3.32,0,5.19,1.57.16,2.75.28,3.93.4,1.18.12,2.36.24,3.93.4,1.22.12,2.32.15,3.29.09.97-.06,1.82-.22,2.54-.48,1.44-.51,2.63-1.35,3.39-2.49.73-1.11,1.22-2.64,1.49-4.42.14-.89.24-1.86.3-2.9.07-1.04.1-2.16.1-3.35,0-1.19-.03-2.31-.1-3.36-.07-1.05-.17-2.03-.3-2.94-.14-.91-.34-1.76-.61-2.55s-.61-1.53-1.02-2.2c-.57-.84-1.31-1.55-2.23-2.13-.91-.58-2-1.02-3.25-1.33-1.25-.31-2.68-.49-4.27-.54-1.44-.05-2.51-.08-3.59-.11s-2.15-.07-3.59-.11Z"/>
        <path class="uuid-d92d161f-6635-450e-a0a4-3e0234a3d80a" d="M247.65,655.66c0-1.99,0-3.94,0-5.84s0-3.75,0-5.57c0-1.81,0-3.59,0-5.33,0-1.74,0-3.44,0-5.12,0-1.67,0-3.32,0-4.94s0-3.21,0-4.79,0-3.13,0-4.67c0-1.54,0-3.06,0-4.58,0-1.51,0-3.02,0-4.52s0-3,0-4.49,0-2.99,0-4.49c0-1.5,0-3.01,0-4.52,0-1.52,0-3.04,0-4.58,0-1.54,0-3.09,0-4.67,0-1.57,0-3.17,0-4.79,0-1.62,0-3.26,0-4.94,0-1.67,0-3.38,0-5.12s0-3.51,0-5.33c0-1.81,0-3.67,0-5.57,0-1.9,0-3.84,0-5.84,1.61,0,3.07,0,4.42,0,1.36,0,2.62,0,3.84,0,1.23,0,2.42,0,3.65,0,1.23,0,2.49,0,3.84,0,1.36,0,2.81,0,4.42,0,1.47,0,2.88.09,4.21.25,1.33.17,2.59.42,3.77.75,1.18.34,2.3.76,3.33,1.26,1.56.76,2.97,1.65,4.25,2.67,1.28,1.02,2.41,2.18,3.4,3.46.99,1.29,1.85,2.67,2.56,4.16s1.28,3.07,1.71,4.75c.29,1.12.52,2.25.71,3.4s.33,2.31.43,3.48c.1,1.17.14,2.36.14,3.56,0,1.6,0,2.4,0,4,0,1.49-.05,2.86-.15,4.11-.1,1.25-.25,2.38-.46,3.38-.2,1.01-.46,1.95-.76,2.82-.3.87-.66,1.67-1.07,2.4-.77,1.36-1.74,2.59-2.91,3.69-1.17,1.1-2.55,2.07-4.13,2.91,1.08.69,2.07,1.46,2.97,2.31.89.85,1.69,1.79,2.39,2.81.7,1.02,1.31,2.12,1.82,3.31.51,1.19.94,2.5,1.28,3.95.34,1.44.6,3.02.77,4.72.17,1.7.26,3.53.26,5.48,0,1.23,0,2.16,0,3.08,0,.92,0,1.85,0,3.08,0,1.93-.08,3.75-.25,5.47s-.41,3.33-.74,4.84-.74,2.9-1.23,4.19c-.49,1.29-1.07,2.46-1.73,3.53-.66,1.06-1.4,2.02-2.22,2.86-.82.84-1.74,1.56-2.76,2.14-1.02.59-2.14,1.05-3.35,1.38-1.22.33-2.53.54-3.94.63-1.41.08-2.92.04-4.53-.12-1.61-.16-3.32-.45-5.12-.85-1.88-.42-3.53-.79-5.06-1.13-1.53-.34-2.94-.66-4.35-.98-1.41-.32-2.82-.63-4.35-.98-1.53-.34-3.18-.71-5.06-1.13ZM261.46,569.87c0,1.89,0,3.61,0,5.24,0,1.62,0,3.14,0,4.61,0,1.47,0,2.88,0,4.29,0,1.41,0,2.83,0,4.29s0,2.99,0,4.61c0,1.62,0,3.35,0,5.24,1.25.12,2.18.2,3.12.29.93.09,1.87.17,3.12.29,1.53.14,2.9.13,4.1-.04,1.2-.17,2.23-.49,3.09-.98.86-.48,1.56-1.13,2.08-1.93.53-.8.96-1.74,1.32-2.82.35-1.08.61-2.3.79-3.66.18-1.36.26-2.85.26-4.49,0-1.6-.1-3.07-.29-4.41-.2-1.34-.49-2.55-.88-3.63-.39-1.08-.88-2.03-1.47-2.85-.59-.82-1.33-1.51-2.24-2.07s-1.96-.99-3.18-1.29-2.6-.48-4.13-.52c-1.14-.04-1.99-.06-2.84-.09-.85-.03-1.71-.05-2.84-.09ZM261.47,611.14c0,1.88,0,3.63,0,5.28,0,1.65,0,3.2,0,4.7,0,1.5,0,2.94,0,4.35,0,1.42,0,2.82,0,4.24,0,1.42,0,2.86,0,4.35,0,1.5,0,3.05,0,4.7,0,1.65,0,3.4,0,5.28,1.19.23,2.09.4,2.98.57.89.17,1.79.34,2.98.57,1.4.27,2.65.4,3.74.39,1.09-.01,2.04-.16,2.83-.46,1.58-.59,2.78-1.61,3.59-3.05.41-.72.73-1.54.98-2.44.25-.9.42-1.9.51-2.98.09-1.08.16-2.22.2-3.41s.07-2.44.07-3.74c0-1.35-.03-2.61-.1-3.8-.07-1.18-.17-2.28-.31-3.3-.14-1.02-.34-1.97-.61-2.85-.27-.88-.6-1.73-1.02-2.45-.43-.75-.98-1.42-1.59-2.01-.61-.58-1.3-1.09-2.06-1.5-.77-.42-1.66-.76-2.68-1.05-1.02-.28-2.16-.5-3.42-.65-1.22-.15-2.13-.26-3.05-.37-.91-.11-1.83-.22-3.05-.37Z"/>
        <path class="uuid-d92d161f-6635-450e-a0a4-3e0234a3d80a" d="M297.5,666.83c.37-1.84.74-3.65,1.1-5.42.36-1.77.71-3.51,1.06-5.23.34-1.71.68-3.39,1.01-5.05.33-1.65.66-3.28.98-4.89.32-1.6.64-3.19.95-4.75.31-1.56.62-3.1.92-4.63s.6-3.03.9-4.53c.3-1.49.59-2.98.88-4.45.29-1.47.58-2.93.86-4.39.29-1.45.57-2.9.85-4.35.28-1.44.56-2.89.84-4.33.28-1.44.56-2.89.84-4.33s.56-2.9.84-4.36c.28-1.46.57-2.93.85-4.41.29-1.48.57-2.97.86-4.48.29-1.51.58-3.03.88-4.57.3-1.54.59-3.1.9-4.69.3-1.58.61-3.19.92-4.82.31-1.63.63-3.3.95-4.99.32-1.69.65-3.42.98-5.18.33-1.76.67-3.55,1.01-5.39.34-1.83.7-3.71,1.05-5.62.36-1.92.72-3.88,1.1-5.89,1.54,0,2.81,0,4.01,0,1.19,0,2.3,0,3.5,0,1.19,0,2.47,0,4.01,0,.37,2.02.74,4,1.1,5.93s.71,3.82,1.05,5.67c.34,1.85.68,3.66,1.01,5.43.33,1.77.66,3.51.98,5.22.32,1.71.64,3.38.95,5.03.31,1.65.62,3.27.92,4.86.3,1.6.6,3.17.9,4.72s.59,3.09.88,4.61.58,3.02.86,4.51c.29,1.49.57,2.97.85,4.44s.56,2.93.84,4.39.56,2.91.84,4.37c.28,1.45.56,2.91.84,4.36.28,1.46.57,2.92.85,4.38s.57,2.94.86,4.42c.29,1.48.58,2.98.88,4.48s.59,3.03.9,4.56.61,3.09.92,4.67.63,3.17.95,4.79c.32,1.62.65,3.26.98,4.93.33,1.67.67,3.36,1.01,5.09.34,1.73.7,3.48,1.05,5.27s.73,3.61,1.1,5.47c-1.84.41-3.38.76-4.81,1.08s-2.76.62-4.2.94c-1.43.32-2.97.67-4.81,1.08-.32-1.9-.62-3.61-.89-5.21-.27-1.6-.53-3.09-.77-4.54-.25-1.45-.49-2.87-.73-4.33-.25-1.46-.5-2.96-.77-4.57-.27-1.62-.57-3.35-.89-5.28-1.88.33-3.53.62-5.06.89-1.53.27-2.93.3-4.34.05s-2.82-.5-4.35-.77c-1.53-.27-3.18-.56-5.06-.89-.33,1.91-.62,3.63-.89,5.24s-.53,3.09-.77,4.53c-.25,1.45-.49,2.85-.73,4.29-.25,1.44-.5,2.92-.77,4.51-.27,1.59-.57,3.29-.89,5.17-1.84-.41-3.38-.76-4.81-1.08s-2.76-.62-4.2-.94c-1.43-.32-2.97-.67-4.81-1.08ZM331.62,631.69c-.3-1.83-.58-3.56-.86-5.21s-.53-3.23-.78-4.75c-.25-1.52-.49-2.99-.72-4.42-.23-1.43-.46-2.84-.69-4.23-.23-1.39-.45-2.78-.68-4.17-.23-1.4-.45-2.81-.69-4.25-.23-1.45-.47-2.94-.71-4.53-.25-1.58-.51-3.22-.78-4.94s-.56-3.52-.86-5.42c-.11,0-.16-.01-.27-.02-.3,1.86-.58,3.61-.86,5.29-.27,1.67-.53,3.26-.78,4.79-.25,1.53-.49,3-.72,4.43-.23,1.43-.46,2.83-.69,4.22s-.45,2.76-.68,4.14-.45,2.77-.69,4.19c-.23,1.42-.47,2.88-.72,4.39s-.51,3.07-.78,4.71c-.27,1.64-.56,3.35-.86,5.17,1.84.27,3.38.49,4.81.7,1.43.21,2.76.4,4.19.61,1.43.21,2.96-.43,4.8-.7Z"/>
        <path class="uuid-d92d161f-6635-450e-a0a4-3e0234a3d80a" d="M358.3,666.34c0-1.92,0-3.79,0-5.63,0-1.84,0-3.64,0-5.4s0-3.5,0-5.2c0-1.7,0-3.37,0-5.01,0-1.64,0-3.26,0-4.85,0-1.59,0-3.16,0-4.71,0-1.55,0-3.08,0-4.59s0-3.01,0-4.49,0-2.95,0-4.41c0-1.46,0-2.91,0-4.36,0-1.45,0-2.89,0-4.33,0-1.44,0-2.88,0-4.32,0-1.44,0-2.88,0-4.33,0-1.45,0-2.9,0-4.36,0-1.46,0-2.93,0-4.41s0-2.98,0-4.49,0-3.04,0-4.59c0-1.55,0-3.12,0-4.71,0-1.59,0-3.21,0-4.85,0-1.64,0-3.31,0-5.01,0-1.7,0-3.43,0-5.2,0-1.77,0-3.57,0-5.4s0-3.71,0-5.63c1.77,0,3.24,0,4.62,0,1.38,0,2.65,0,4.03,0,1.38,0,2.85,0,4.62,0,.6,1.85,1.17,3.62,1.73,5.33s1.09,3.36,1.62,4.96c.52,1.6,1.03,3.14,1.53,4.65.5,1.5.98,2.97,1.45,4.4.47,1.43.94,2.83,1.4,4.21.46,1.38.91,2.73,1.36,4.07.45,1.34.9,2.67,1.34,4s.89,2.65,1.34,3.97c.45,1.33.9,2.66,1.36,4,.46,1.34.92,2.7,1.4,4.08.47,1.38.96,2.78,1.45,4.22s1,2.9,1.53,4.4c.52,1.5,1.06,3.04,1.62,4.63.56,1.59,1.13,3.22,1.73,4.91l.27-.04c0-1.9,0-3.73,0-5.5,0-1.77,0-3.47,0-5.13,0-1.65,0-3.26,0-4.82,0-1.56,0-3.09,0-4.59,0-1.5,0-2.97,0-4.42,0-1.45,0-2.89,0-4.32,0-1.43,0-2.85,0-4.28,0-1.43,0-2.86,0-4.32,0-1.45,0-2.92,0-4.42,0-1.5,0-3.02,0-4.59s0-3.17,0-4.82c0-1.65,0-3.36,0-5.13s0-3.6,0-5.5c1.84,0,3.38,0,4.81,0,1.43,0,2.76,0,4.2,0,1.43,0,2.97,0,4.81,0,0,1.99,0,3.93,0,5.83,0,1.9,0,3.75,0,5.56,0,1.81,0,3.58,0,5.32s0,3.44,0,5.11c0,1.67,0,3.31,0,4.93,0,1.62,0,3.21,0,4.78s0,3.13,0,4.66c0,1.54,0,3.06,0,4.57,0,1.51,0,3.02,0,4.51s0,2.99,0,4.48c0,1.49,0,2.99,0,4.48s0,3,0,4.51c0,1.51,0,3.04,0,4.57,0,1.54,0,3.09,0,4.66,0,1.57,0,3.17,0,4.78,0,1.62,0,3.26,0,4.93,0,1.67,0,3.37,0,5.11s0,3.51,0,5.32c0,1.81,0,3.66,0,5.56,0,1.9,0,3.84,0,5.83-1.73.39-3.18.71-4.53,1.01-1.35.3-2.6.58-3.95.89s-2.79.63-4.53,1.01c-.65-1.75-1.28-3.44-1.88-5.08-.6-1.64-1.19-3.23-1.75-4.77s-1.11-3.05-1.65-4.53-1.06-2.92-1.57-4.34c-.51-1.42-1.01-2.82-1.51-4.21-.5-1.39-.99-2.76-1.48-4.14s-.98-2.75-1.46-4.13-.98-2.78-1.48-4.19-1-2.85-1.51-4.32c-.51-1.47-1.03-2.97-1.57-4.52s-1.08-3.14-1.65-4.78c-.57-1.65-1.15-3.35-1.75-5.12s-1.23-3.61-1.88-5.54c-.11,0-.16.01-.27.02,0,1.98,0,3.89,0,5.73s0,3.62,0,5.34,0,3.4,0,5.03,0,3.22,0,4.78c0,1.56,0,3.09,0,4.6,0,1.51,0,3.01,0,4.5s0,2.97,0,4.46c0,1.49,0,2.99,0,4.5s0,3.04,0,4.6c0,1.56,0,3.15,0,4.78,0,1.63,0,3.3,0,5.03s0,3.5,0,5.34c0,1.84,0,3.75,0,5.73-1.84.41-3.38.76-4.81,1.08-1.43.32-2.76.62-4.2.94-1.43.32-2.97.67-4.81,1.08Z"/>
        <path class="uuid-d92d161f-6635-450e-a0a4-3e0234a3d80a" d="M418.18,578.84c0-1.3.08-2.56.23-3.76s.38-2.36.68-3.47c.3-1.11.68-2.17,1.13-3.18.68-1.51,1.47-2.9,2.37-4.15.9-1.25,1.92-2.38,3.05-3.38,1.08-.95,2.24-1.79,3.47-2.5s2.53-1.32,3.91-1.81c1.38-.49,2.76-.85,4.15-1.09,1.39-.24,2.78-.36,4.18-.36s2.79.12,4.18.35c1.39.23,2.77.58,4.15,1.04,1.38.46,2.69,1.02,3.95,1.68,1.25.66,2.49,1.41,3.57,2.27,1.08.85,2.07,1.9,2.95,3.01s1.66,2.33,2.34,3.65c.68,1.33,1.18,2.75,1.52,4.28s.51,3.16.51,4.91c0,1.83,0,3.57,0,5.24,0,1.67,0,3.26,0,4.8s0,3.02,0,4.47c0,1.45,0,2.86,0,4.25,0,1.39,0,2.76,0,4.14,0,1.37,0,2.75,0,4.14,0,1.39,0,2.8,0,4.25,0,1.45,0,2.93,0,4.47s0,3.13,0,4.8c0,1.67,0,3.41,0,5.24,0,1.22-.08,2.39-.23,3.52s-.38,2.21-.68,3.25c-.3,1.04-.68,2.04-1.13,3-.68,1.44-1.46,2.79-2.34,4.06-.88,1.27-1.87,2.45-2.95,3.55-1.13,1.15-2.32,2.21-3.57,3.17-1.25.96-2.57,1.83-3.95,2.6-1.38.77-2.76,1.43-4.15,1.98s-2.78.98-4.18,1.3c-1.4.32-2.79.51-4.18.59-1.39.07-2.77.02-4.15-.15-1.38-.18-2.68-.49-3.91-.95-1.23-.46-2.4-1.12-3.47-1.82-1.08-.71-2.15-1.55-3.05-2.55-.9-1.01-1.69-2.17-2.37-3.48-.45-.88-.83-1.83-1.13-2.87-.3-1.04-.53-2.16-.68-3.37s-.23-2.49-.23-3.85c0-1.86,0-3.64,0-5.35,0-1.71,0-3.35,0-4.93,0-1.59,0-3.12,0-4.61,0-1.49,0-2.95,0-4.38,0-1.43,0-2.84,0-4.24,0-1.4,0-2.79,0-4.19,0-1.4,0-2.81,0-4.24,0-1.43,0-2.89,0-4.38s0-3.02,0-4.61c0-1.58,0-3.22,0-4.93,0-1.71,0-3.49,0-5.35ZM432,627.68c0,1.63.23,3,.69,4.11.46,1.11,1.16,1.96,2.08,2.55.93.59,1.94.97,3.03,1.13,1.1.17,2.28.13,3.54-.12,1.26-.25,2.44-.66,3.54-1.25,1.1-.58,2.11-1.33,3.03-2.25.93-.91,1.62-1.99,2.08-3.22.46-1.23.69-2.62.69-4.17,0-1.9,0-3.7,0-5.42,0-1.72,0-3.37,0-4.97,0-1.59,0-3.13,0-4.63,0-1.5,0-2.96,0-4.4,0-1.44,0-2.86,0-4.28,0-1.42,0-2.84,0-4.28,0-1.44,0-2.9,0-4.4,0-1.5,0-3.03,0-4.63,0-1.59,0-3.24,0-4.97,0-1.72,0-3.53,0-5.42,0-1.55-.23-2.89-.69-4.02-.46-1.13-1.16-2.04-2.08-2.75-.93-.71-1.94-1.23-3.03-1.56-1.1-.34-2.27-.49-3.54-.45-1.26.04-2.45.27-3.54.68-1.1.42-2.11,1.02-3.03,1.82-.93.8-1.62,1.81-2.08,3.02s-.69,2.64-.69,4.27c0,1.98,0,3.87,0,5.67s0,3.53,0,5.2c0,1.67,0,3.27,0,4.84s0,3.09,0,4.6c0,1.51,0,2.99,0,4.48,0,1.49,0,2.98,0,4.48,0,1.51,0,3.03,0,4.6s0,3.17,0,4.84,0,3.39,0,5.2,0,3.69,0,5.67Z"/>
        <path class="uuid-d92d161f-6635-450e-a0a4-3e0234a3d80a" d="M521.4,577.08c-1.84.12-3.38.22-4.81.32-1.43.09-2.76.18-4.2.28s-2.97.2-4.81.32v-2.49c0-1.26-.19-2.43-.56-3.5-.37-1.08-.93-2.06-1.68-2.96-.74-.9-1.74-1.56-3-1.98-1.25-.42-2.76-.61-4.52-.56-1.9.06-3.43.41-4.61,1.05-1.18.64-2.15,1.44-2.85,2.37-.73.98-1.22,2.16-1.49,3.43-.27,1.27-.41,2.59-.41,3.96,0,1.6.07,2.93.2,3.98.14,1.06.47,1.98,1.02,2.77.54.79,1.33,1.45,2.37,1.96,1.04.51,2.46.99,4.27,1.43,1.41.33,2.58.61,3.68.86,1.1.25,2.11.49,3.21.73,1.1.25,2.27.51,3.68.82,1.54.32,2.92.68,4.17,1.1,1.24.42,2.34.88,3.28,1.39.95.52,1.8,1.09,2.54,1.71.75.63,1.43,1.31,1.93,2.04.5.74.91,1.62,1.25,2.52.34.9.6,1.87.78,2.91.18,1.03.32,2.15.41,3.34s.14,2.46.14,3.81c0,1.56-.1,3.08-.3,4.56-.2,1.48-.51,2.93-.91,4.35-.41,1.41-.94,2.76-1.59,4.03s-1.43,2.49-2.34,3.62c-.94,1.18-2.04,2.3-3.29,3.35-1.24,1.05-2.63,2.03-4.17,2.95-1.02.61-2.12,1.17-3.3,1.7-1.17.52-2.42,1-3.75,1.43-1.32.43-2.72.81-4.2,1.14-1.67.38-3.29.62-4.84.73-1.56.11-3.06.07-4.5-.1-1.45-.17-2.79-.47-4.03-.9-1.24-.42-2.38-.97-3.42-1.65-1.04-.68-1.97-1.45-2.79-2.33s-1.54-1.86-2.15-2.95c-.61-1.08-1.07-2.26-1.37-3.51s-.46-2.6-.46-4.03c0-1.8,0-2.71,0-4.51,1.84-.3,3.38-.55,4.81-.78,1.43-.23,2.76-.45,4.2-.68,1.43-.23,2.97-.48,4.81-.78v3.66c0,1.07.19,2.05.56,2.95.37.89.93,1.7,1.68,2.41.74.71,1.74,1.16,3,1.34s2.76.1,4.52-.24c1.17-.23,2.22-.5,3.13-.81.91-.32,1.7-.67,2.35-1.07,1.31-.8,2.32-1.77,3.05-2.92.72-1.15,1.15-2.44,1.29-3.87.13-1.43.2-3.01.2-4.75,0-2.02-.09-3.67-.27-4.94-.18-1.27-.53-2.32-1.08-2.99-.58-.7-1.47-1.25-2.51-1.63-1.04-.37-2.42-.74-4.13-1.12-1.32-.28-2.42-.51-3.44-.73-1.03-.22-1.98-.43-3-.65-1.03-.23-2.12-.47-3.44-.77-1.99-.45-3.76-1.01-5.31-1.68s-2.88-1.45-4-2.34-2.01-1.88-2.69-2.98c-.68-1.1-1.24-2.31-1.69-3.64-.45-1.33-.79-2.77-1.02-4.32-.23-1.55-.34-3.21-.34-4.97,0-1.58.12-3.13.37-4.64.25-1.51.62-2.99,1.12-4.42.5-1.44,1.12-2.77,1.86-4s1.64-2.37,2.61-3.4c.95-1.01,2.03-1.95,3.23-2.76,1.21-.81,2.55-1.52,4.01-2.12.98-.4,2.02-.73,3.12-.99s2.27-.46,3.5-.59c1.23-.13,2.52-.19,3.87-.19,1.72,0,3.36.13,4.93.38,1.57.25,3.07.63,4.49,1.13,1.42.5,2.75,1.07,3.98,1.72,1.23.65,2.36,1.37,3.4,2.16,1.38,1.11,2.54,2.26,3.46,3.46.92,1.2,1.62,2.46,2.08,3.77.46,1.31.69,2.68.69,4.11v5.2Z"/>
      </g>
    </g>
  </g>
</svg>