<?xml version="1.0" encoding="UTF-8"?>
<svg id="uuid-b18e615f-779f-43bc-8a5d-dd0586e88f22" data-name="Layer 2" xmlns="http://www.w3.org/2000/svg" viewBox="0 0 653.64 740.92">
  <defs>
    <style>
      .uuid-51ad7484-541d-44d0-9a11-cb55cd63ceee {
        fill: #fff;
      }

      .uuid-6caffa71-68ee-4934-9f1f-e7be09e6ad01 {
        fill: #060709;
      }
    </style>
  </defs>
  <g id="uuid-df86714c-252f-47f9-b91f-cb180c609341" data-name="Output">
    <polygon class="uuid-51ad7484-541d-44d0-9a11-cb55cd63ceee" points="46.55 86.84 371.63 0 598.48 75.59 598.48 325.87 653.54 349.72 653.64 540.7 598.48 565.4 598.48 672.82 326.82 740.92 46.53 672.43 46.53 565.13 0 552.72 .14 356.74 46.51 320.53 46.55 86.84"/>
    <path d="M512.85,164.4c5.72,4.69,12.13,8.65,17.2,14.03,1.91,9.42,4.36,18.73,6.36,28.12.48,2.28.46,4.59.88,6.62.67,3.21,2.3,12.64,3.37,15,.16.35,4.55,2.86,5.6,5.01.97,1.99,1.26,8.06,1.39,10.61.35,7.3.11,15.14-.59,22.38-.22.71-4.93,3.89-5.95,4.55-.75.49-2.07.47-2.49,1.12-1.07,1.64-1.56,7.74-2.21,10.16-2.65,9.84-7.65,19.29-14.24,26.98,4.58.13,33.02.94,34.76,3.48,1.92,2.81-5.93,5.77-7.65,6.4-5.17,1.88-11.61,3.47-17.01,4.98-47.98,13.42-96.79,22.83-146.34,28.55l-51.14,6.06,102.7.48c47.38,1.68,95.02,1.08,142.41,3.5,8.68.44,23.8.67,31.73,2.75,6.18,1.62-1.14,2.91-3.77,3.26-22.48,3.01-49.44,1.86-72.47,2.48-141.6,3.82-284.09,3.8-425.69,0-22.99-.62-49.49.46-71.97-2.48-.94-.12-6.49-1.23-6.75-1.5-.66-.67.11-.87.63-1.11,1.49-.68,4.46-1.08,6.18-1.32,12.18-1.7,24.68-1.5,36.93-2.04,24.75-1.1,49.62-1.99,74.41-2.54,11.1-.25,22.18.13,33.25-.48l-38.08-5.64c-15.09-3.11-30.39-5.4-45.48-8.49-6.01-1.23-39.5-8.07-41.89-11.2-.21-.28-.62-1.39-.46-1.62,4.39-1.61,9.16-2.28,13.79-2.96,16.84-2.46,34.9-3.97,51.91-5.56,10.72-1,21.49-1.67,32.22-2.51l-5.23-3.51c-3.29-3.12-6.59-6.63-8.98-10.51-.83-1.35-1.91-5.28-3.17-5.96-2.36-1.28-11.35-.18-14.8-.56-6.59-.74-17.45-3.6-24.41-5.07-5.05-1.07-10.15-2.48-15.14-3.85l.32-75.43,11.92-2.57-.41-14.9c10.62-3.7,21.91-4.57,33.07-5.5,1.98.96,8.79,11.91,9.58,11.92,2.07-2.58,3.12-5.59,5.26-8.23,11.12-13.74,26.12-23.32,43.77-26.19l105.13-10.55.48-30.75c.77-4.61.61-9.33,1.02-13.97.29-3.35,1.63-8.45,1.54-11.5-.07-2.2-1.89-1.61-3.57-2.46-2.14-1.08-2.52-2.73-2.51-5.03,0-3.99,2.87-18.43,4.6-21.92,2.11-4.24,7.5-4.79,7.87-5.37.2-.32.47-6.16.71-7.53.86-4.75,3.11-11.44,7.84-13.65,3.95-1.84,11.45-2.64,16.1-3.88,16.72-4.47,33.3-9.54,50.1-13.75,5.56-.14,9.84,1.99,14.27,3.54,12.59,4.4,25.96,8.49,39.35,12.71,5.16,1.63,15.95,4.96,19.08,8.9,4.26,8.01,6.2,20.67,7.75,34.41.67,8.78,2.25,20.2,3.25,28.55.08.69.14,1.35.56,1.94,9.8,7.99,19.4,16.28,29.19,24.28,7.91,6.46,16.06,12.9,23.9,19.33ZM377.99,40.26c-1.63-.3-3.92-.06-5.85.52-19.45,5.54-39.49,9.27-58.68,15.52-1.38,1.55-1.92,3-2.66,4.84-.81,2.01-1.81,3.96-1.51,6.25.1.72-.26.86.74.74,10.82-3.39,21.68-6.91,32.64-9.84,10.2-2.73,24.39-6.9,34.59-8.14.8-.1,1.66-.28,2.47-.34.03,1.53.07,2.57.03,3.7-.03.72-.1,1.58-.1,1.64-.03.84-.1,1.95.12,2.53.15.38,1.91.63,2.65,1.05s.81,1.5,1.07,1.41c.45-.16,1.46-1.33,2.3-1.69,2.92-1.27,3.93.41,3.45-3.8-.19-1.66-.16-2.38-1-4,4.71-.2,3.88.51,4.49,4,.89,5.05,1.42,1.94,3.84,4.16,1.1,1.01.87,3,1.94,3.8,11.03,3.55,21.82,7.87,33.07,10.65.34.84.49,1.73.61,2.63,1.87,14.13,2.77,27.81.93,41.9-.86,6.62-2.12,13.29-3.23,19.86l-22.89,3.94c-5.61-3.5-10.01-8.73-15.28-12.74v-51.22l-3.5.5.44,76.64c-.45,1.31-10.47,2.6-12.42,2.82.27,1.93-.44,4.91.09,6.65.21.68,8.85,7.73,10.39,9.6,2.57,3.14,5.69,8.07,7.91,11.58,1.71,2.71,4.17,8.64,5.85,10.64.64.76,1.25,1.07,2.2,1.29,9.86.38,19.8,1.38,29.55,1.5,1.36-6.06,2.8-12.18,3.96-18.27,2.22-11.64,3.62-23.46,6.5-34.98.94-.1.4,1.05.35,1.6-.55,5.97-1.37,11.91-1.85,17.89-.15,1.89-.72,3.73-.52,5.67.14.59,1.32.61,1.83.76,4.83,1.36,22.05,4.9,26.37,4.51,10.21-.94,16.21-2.45,26.79.06,13.44,3.2,22.82,11.21,28.98,23.49,1.19,2.38,2.09,4.99,3,7.49.88.13.49-1.12.38-1.63-.19-.89-.77-3.76-1.28-5.51-.9-3.5-1.81-6.8-2.85-10.03-.65-2.03-1.61-4.33-2.5-6.31-1.26-2.81-13.14-11.26-16.2-13.78-10.23-8.43-20.59-16.77-30.76-25.21-8.73-7.25-17.19-14.81-25.99-21.98-1.06-16.1-.21-33.23-4-48.97-.53-2.2-2.4-9.4-3.72-10.77-1.11-1.15-7.01-3.37-8.89-4.1-14.52-5.63-26.69-10-41.35-14.61-4.44-1.48-8.2-3.09-12.51-3.89ZM376.76,54.64l-38.97,8.5,4.24.49,30.49-2.51,1.21.83c-2.35,23.73-3.22,47.59-3.48,71.41.04,6.05.41,10.66.5,15.99.04,2.55.18,6.37-.06,9.4-.14,1.76-9.24,2.09-11.42,2.33,2.17,2.82,10.23,1.97,12.87.63,1.13-.57,1.6-1.74,1.57-2.93-.18-6.78-.31-18.15-.42-24.92-.16-10.53,0-20.67.48-31.7l2.99-47.53ZM388.76,75.62c2.17.29,5.36-1.01,5.89-3.35.33-1.48.37-8.87.09-10.37-.43-2.28-2.72-1.78-4.48-1.76.74,1.18,1.72,1.71,1.97,3.27.38,2.37.47,9.01-1.26,10.68-.83.8-1.97.67-2.21,1.53ZM376.27,118.6c-.25,11.31.19,22.67,0,33.98.25.25,6.19-.77,7-1,.47-.14.95-.41,1.41-.58.31-24.24,1.1-48.62.33-72.87-4.69-2.59-.91-11.62-2.31-15.68-.33-.96-2.48-1.04-3.43-1.31-1.02,9.01-1.09,18.15-1.51,27.23-.46,10-1.27,20.29-1.49,30.24ZM412.25,112.97c0-10.11,0-20.36-.39-30.42-.1-2.52-.08-8.82-.68-10.6-.5-1.5-9.86-2.73-11.57-3.79-.88-.55-.83-2.31-1.85-2.52v8.25c0,1.71-3.27,2.85-3.88,3.38-.29.25-.05.73-.12.86v38.48l-.03,11.27,12.04,10.45c1.67.86,2.8.51,4.19.21.44-.09,1.35-.35,1.79-.44.32-.07.49-.13.5-.5.02-3.49-.03-7,0-10.49v-14.13ZM416.24,113.11c.14,8,.24,15.99.5,23.99,2.89-.01,5.75-.7,8.5-1.5.42-.12,1.49-.78,1.68-1.46l4.27-30.83-3.03-27.09-12.41-3.58c.04,13.49.27,26.99.5,40.47ZM303.31,76.13c-6.05.31-6.89,4.16-8.06,9.17-.47,2-1.7,7.83-1.44,9.53.28,1.84,2.77,2.28,4.26,2.78,2.07-.25-1.05-.98-1.29-1.33-1.21-1.75,1.62-15.1,3.19-16.52,1.46-1.32,3.19-.31,3.35-3.65ZM313.31,78.13h-3.5c-4.11,26.92-6.17,54.15-5.5,81.46l9-.5v-80.95ZM339.79,85.12l-18.49-3.5c-.77,4.62-.91,9.83-1.02,14.72-.19,8.12-.77,16-.62,23.88.11,5.94.37,11.98,1.4,17.86,2.31,2.18,9.85,10.04,12.39,10.71,1.3.35,4.31.02,6.34-.21v-63.46ZM344.29,148.58c1.99-1.17,8.7.27,9.75-.99l5.62-19.87-1.12-37.61c-.24-.49-.65-.67-1.13-.87-1.47-.59-11.8-2.66-13.36-2.64l.25,61.98ZM164.4,192.06c-.9-.06-11.67,8.78-11.99,10.99-3.04,2.7-3.93,4.8-6,8-.59.91-5.36,7.18-4.49,7.99,8.07-.29,16.19-.2,24.25-.48,26.12-.89,52.3-2.31,78.41-3.54,3.89-.18,8.8.52,12.48,0,1.06-.15,11.71-4.24,12.27-4.71.87-.73.46-2.66.5-3.75.16-4.53-.12-9.1,0-13.64,8.66-5.96,20.42-6.18,30.49-4.6.68,1.39,1.85,2.95,2.5,4.25.37.74.41,3.11,1.49,3.78s4.4-5.07,5.31-6.22c24.14-30.71,57.4-30.13,78.15,3.69,1.14,1.87,5.89,12.12,6.47,12.52,1.04.7,4.58-.03,6.02.22-9.26-21.6-25.46-42.19-50.71-44.01-53.4,6.34-106.87,11.38-160.28,17.66-8.69,2.56-18.07,5.67-24.86,11.86ZM319.8,184.06c-4.06,3.86-7.76,8.26-10.91,12.81-1.41,2.03-2.92,4.17-1.1,6.45,9.89.9,19.83.78,29.74,1.23,6.1.28,12.12.81,18.24.99,3.91.12,10.28.96,13.75.5.58-.08,1.01.2.73-.74-.43-1.45-3.15-6.36-4.07-7.93-7.99-13.59-20-22.33-36.66-20.33-3.48.42-7.33,4.72-9.73,7.01ZM485.2,184.07c.6.64,4.7-2.13,5.48-2.75.02-.83-5.09-1.4-5.98-1.25l.5,3.99ZM480.65,180.62c-.65-.57-6.13.32-7.43.46-.35,2.48,1.36,4.56,1.49,6.98.52.45,6.41-2.79,6.77-3.5.19-.37-.68-3.81-.83-3.94ZM469.7,182.06c-.3-.23-6.91,2.43-7.01,2.84-.58,2.33,1.84,6.67,2.53,9.16.39.29,6.3-3.9,6.44-4.34.51-1.59-1.76-5.84-1.95-7.66ZM460.21,186.57c-.5-.46-7.25,4.76-7.44,5.33-.55,1.67,2.82,6.6,2.57,8.77,3.34-1.65,4.32-3.59,6.91-4.93l-2.04-9.17ZM438.23,187.06c.1,2.77-1.93,8.29,2.27,9,1.32.23,5.51-1.91,5.72-2.76.27-1.1-6.73-5.41-7.99-6.24ZM483.66,189.6c-.54-.39-5.4,1.93-5.74,2.46-.76,1.2,1.51,4.39,1.28,6,.27.24,6.25-2.77,6.45-3.06.42-.61-1.88-4.37-2-5.4ZM295.82,195.56c-.32-.56-.24-1.9-.74-2.5-1.35-1.61-16.17.21-18.66,2.09l-.15,20.34-9.96,2.87-.98,79.81c.26.76,13.53,3.35,15.5,3.84,7.07,1.75,16.42,5.13,23.49,5,13.45-.26,28.65-2.84,42.23-4,30.52-2.61,61.24-4.4,91.69-7.5,1.14-.12,2.35.09,3.5,0-.28-1.49.4-2.88.49-4.26,1.43-20.91-.56-43.62.5-64.71.46-2.89-.35-4.18-1.5-6.5-.48-.97-.56-1.97-1.46-2.79-2.26-2.06-9.58-1.04-12.8-1.19-33.26-1.58-66.6-3.49-99.9-5.04-7.55-.35-15.2-.29-22.76-.48-.58-.21-1.12-.33-1.52-.85-1.8-2.31-4.1-9.51-5.71-12.67-.42-.82-1.12-1.22-1.26-1.47ZM475.63,198.49c.6-.95-1.45-5.72-2.22-5.9l-6.17,3.51,1.98,5.46c.29.21,6.22-2.77,6.41-3.07ZM447.23,209.05c.32.24,4.82-5.96,4.91-6.35.34-1.43-1.97-5.56-2.43-7.14-.75-.53-4.72,4.82-4.91,5.86-.4,2.17,2.07,5.38,2.43,7.63ZM460.22,209.55c.6.44,5.81-4.79,5.91-5.32.07-.36-2.8-6.67-3.17-6.67l-5.69,5.23,2.95,6.76ZM473.71,210.05c.36.26,5.34-3.96,5.42-4.3.12-.5-1.76-5.11-2.19-5.2-1.08.72-5.46,2.87-5.64,3.81-.28,1.45,2.42,4,2.41,5.68ZM122.43,205.55c-.1-.17.3-.91-.31-1.02-2.74-.39-13.72.48-14.93,3.02-1.07,2.24.41,14.61-.3,15.44l-11.44,2.05-1.03,59.17c.12.69,4.27.64,5.03.79,8.48,1.63,15.42,1.92,23.98,2.5,38.97,2.64,78.15,4.97,117.18,6.99,5.56.29,11.18.33,16.74.51.05-5.49-.08-11.01,0-16.49.23-17,1.83-34.6,1.5-51.47-.03-1.49.02-3.01,0-4.5-8.92.23-17.84.2-26.76.48-30.81.98-61.66,2.58-92.4,3.54-8.9.28-17.85.26-26.75.48,4.82-2.95,8.67-4.6,13.99-6.5.64-.23,1.34-.32,1.99-.52-1.54-4.69-3.88-10.19-6.48-14.47ZM454.66,205.49c-.94.58-.91.87-1.36,1.39-.59.69-3.73,5.1-3.86,5.65-.46,1.88,1.63,4.6,1.79,6.51.34.27,5.81-5.89,5.89-6.31.31-1.55-2.22-5.34-2.46-7.24ZM467.92,214.76c.75-.72,2.25-1.22,2.28-2.44.01-.65-2.39-5.25-2.74-5.25-1.1,1.5-4.86,3.87-4.76,5.69.08,1.47,2,2.67,2.02,4.29.64.5,2.7-1.81,3.2-2.29ZM446.21,221.04c.13-.11,1.01-2.16.94-2.62-.09-.67-2.85-7.14-3.92-6.36-1.79,2.86-.27,2.24.6,4.14.6,1.31.81,2.96,1.35,4.15.21.46.15,1.44,1.04.7ZM487.7,244.53c-.83,1.84-.62,4.76-.52,6.77.49,10.45,2.19,24.82,11.28,31.7,14.99,11.34,23.57-16.89,24.22-27.47.68-11.08-.85-25.01-7.49-34.23-8.84-12.26-19.54-4.84-24.22,6.27-2.39,5.66-3.4,10.83-3.27,16.97ZM459.21,216.05c-.76-.55-5.27,4.74-5.43,5.35-.21.8,2.17,6.14,2.69,6.13.78-1.5,4.52-4.92,4.64-6.31.1-1.14-1.85-3.76-1.9-5.17ZM447.23,236.03c.81.56,5.28-5.74,5.39-6.33.07-.43-3.75-7.06-4.15-7.15-2.97-.71-2.89,12.34-1.23,13.49ZM164.27,301.64c-1.12-1.27-8.73-.62-10.62-1.63-.11,2.13,2.93,5.19,4.5,6.99,3.68,4.22,9.58,10.36,14.3,13.18,14.37,8.6,30.76,9.11,46.91,11.79l-18.47-5.75c-13.42-5.21-26.11-11.78-35.77-22.7-.57-.65-.57-1.57-.85-1.88ZM446.72,310.49c-1.49-1.37-4-5.34-5.73-5.54l-25.49,1.55c-4.25,2.92-4.84,3.83,1.01,3.51,7.6-.41,17.54-1.7,24.98-1.04,2.12.19,3.31.98,5.23,1.51ZM388.26,322.99c1.13.08,1.29-.78,1.82-1.43,2.35-2.87,7.86-11.95,8.62-15.37.31-1.42-3.81-.47-4.31-.06-.53.44-3.83,7.51-4.63,8.87-18.23,30.94-49.81,40.28-75.45,10.74-1.15-1.32-2.96-5.72-5-5.75-1.98-4.41-2.87-7.92-8.49-5.99-.35.34,2.07,4.12,2.49,4.75.67,1.02,1.63,1.69,2.01,2.24,14.03,20.06,31.92,31.86,57.57,24.34,7.5-2.2,22.44-13.35,24.88-20.84.31-.27.44-.61.5-1,.03-.16-.04-.35,0-.5ZM336.29,335.98c16.52,2.71,28.06-10.96,33.22-25,.36-.97.85-1.9.76-2.98l-58.46,5c.36,2.57,2.07,4.55,3.5,6.49,4.74,6.42,12.97,15.18,20.99,16.49Z"/>
    <path d="M66.96,103.61l237.35-59.46c-5.74,4.25-7.8,9.39-8.94,16.29-.18,1.08.14,5.27-.91,5.7l-208,49.98-.02,91.68c-.02.66-.24.92-.85,1.15-2.45.91-6.94,1.08-9.65,1.6l-.53,85.66,10.97,2.84.05,20.69-.82,1.18c-5.3-.22-11.96,2.58-16.94,2.59-.56,0-1.72-.26-1.72-.77V103.61Z"/>
    <path d="M580.14,87.53v263.44l-18.49-1.5v-27.48c7.25-1.46,12.68-8.33,4.67-13.41-1.73-1.09-4.67-1.04-4.69-3.3V100.04s-98.46-25.87-98.46-25.87c-.35-2.72-1.01-6.03-2.25-9.68-1.14-3.37-2.5-6.21-3.77-8.47,41,10.5,82,21.01,123,31.51Z"/>
    <path d="M289.68,199.65c6.15-1.84,8.04,9.83,4.4,13.91-6.62,7.42-11.14-11.89-4.4-13.91ZM290.31,202.06c-3.08-2.01-3.26,9.32-.74,10.49,1.01.47,1.72-3.19,1.76-3.76.07-.92-.73-6.54-1.02-6.73Z"/>
    <path d="M114.43,211.55c-.62,1.49-.03,6.12,2.49,5.99.64-1.45,1-5.9-.82-6.44-.5-.15-1.56.19-1.67.45.33-.74-.75-1.48,1.36-1.87,7.85-1.46,7.55,10.82.51,9.27-1.83-.4-2.88-3.45-2.89-5.16,0-1.48.72-1.56,1.02-2.24Z"/>
    <path d="M517.18,237.53c2.52,11.82,1.63,28.92-5.79,38.93-4.07,5.49-10.4,5.4-14.96.55-7.13-7.57-8.29-21.1-7.73-30.99.48-8.61,3.88-25.85,14.81-26.45,8.08-.45,12.31,11.56,13.67,17.96ZM494.19,242.53c-1.6,5.83-1.22,22.17,6.35,23.88,9.26,2.09,11.81-12.68,11.16-19.18-.07-.67-.51-1.09-.52-1.21-1.96-13.97-12.62-19.44-16.99-3.5ZM496.19,273.52c3.85,3.82,9.07-1.17,8.99-5.5-2.5,1.47-4.83,2.1-7.49.5-.43,1.73,2.57.98,2.44,2.66-.13,1.62-2.46,2.58-3.94,2.34Z"/>
    <polygon points="548.41 544.16 326.93 544.16 326.71 544.16 105.23 544.16 105.23 633.36 326.79 685.46 326.79 685.48 326.82 685.47 326.85 685.48 326.85 685.46 548.41 633.36 548.41 544.16"/>
    <polygon points="564.93 544.16 564.93 645.6 326.82 702.61 88.71 645.6 88.71 544.16 31.25 544.16 70.25 555.99 70.74 658.34 326.82 720.06 582.9 658.34 583.39 555.99 622.39 544.16 564.93 544.16"/>
    <g>
      <path class="uuid-6caffa71-68ee-4934-9f1f-e7be09e6ad01" d="M267.1,398.94l11.24,79.96,11.24-79.96h25.48v113.43h-16.99v-82.95l-12.57,82.13c-.16.66-.61.72-1.18.82-3.91.73-9.8-.56-13.95.03l-13.28-83.48v83.45h-15.99v-113.43h25.98Z"/>
      <polygon class="uuid-6caffa71-68ee-4934-9f1f-e7be09e6ad01" points="409.26 398.94 427 466.41 427 398.94 442.99 398.94 442.99 512.38 424.5 512.38 403.02 429.93 403.02 512.38 387.03 512.38 387.03 398.94 409.26 398.94"/>
      <path class="uuid-6caffa71-68ee-4934-9f1f-e7be09e6ad01" d="M520.62,507.21c-5.06-5-6.95-12.18-7.66-19.07,1.01-21.12-1.36-43.51-.03-64.48.89-14.06,8.4-25.06,23.24-26.23,15.78-1.24,27.86,4.98,30.69,21.32-.08,22.35,2,46.67.58,68.92-.53,8.34-3.57,17.45-10.85,22.13-9.8,6.29-27.46,5.81-35.96-2.58ZM539.34,413.55c-5.88.41-8.19,4.8-8.4,10.14-.76,20.24.21,43.21-.03,63.47.46,5.86,2.61,10.72,9.26,10.72,6.17,0,8.94-4.2,9.18-9.8.89-20.55-.18-43.66.08-63.92-.5-6.35-2.92-11.12-10.1-10.61Z"/>
      <path class="uuid-6caffa71-68ee-4934-9f1f-e7be09e6ad01" d="M83.72,512.38l18.07-112.6.38-.62,23.71-.25,18.79,113.46h-17.99l-3-21.99-20.02.22-3.46,21.77h-16.49ZM121.19,474.9l-7.75-55.47-7.75,55.47h15.49Z"/>
      <path class="uuid-6caffa71-68ee-4934-9f1f-e7be09e6ad01" d="M628.87,430.43h-16.99v-9.24c0-1.93-2.36-5.37-4.14-6.35-6.28-3.45-12.64.36-13.34,7.36-1.9,19.07,23.32,28.93,31.07,44.88s5.33,41.02-14.19,45.96c-17.48,4.42-35.37-4.24-35.37-23.88v-10.24h16.99v9.24c0,.82.99,4.14,1.41,5.09,2.77,6.34,13.99,5.86,16.24-1.43,7.18-23.29-28.75-34.45-33.41-57.86-4.55-22.88,7.1-39.41,31.37-36.37,10.74,1.35,20.37,11.66,20.37,22.61v10.24Z"/>
      <path class="uuid-6caffa71-68ee-4934-9f1f-e7be09e6ad01" d="M162.17,398.94l11,85.45c1.05-.36,1.29-1.86,1.45-2.79,4.04-23.1,6.23-48.05,9.47-71.48.51-3.69.93-7.45,1.07-11.17h16.99l-16.99,113.44-24.02-.22-17.45-113.22h18.49Z"/>
      <path class="uuid-6caffa71-68ee-4934-9f1f-e7be09e6ad01" d="M49.24,466.41v45.97h-17.99v-113.43h31.23c7.09,0,15.71,5.89,18.83,12.15,4.2,8.42,4.45,29.91,1.66,38.82-2.9,9.26-11.5,16.49-21.49,16.49h-12.24ZM49.24,449.92h10.74c2.11,0,5.36-3.51,5.9-5.59.78-3.01.78-19.19.22-22.53-.18-1.05-1.15-3.36-1.87-4.13-.37-.39-3.54-2.24-3.76-2.24h-11.24v34.48Z"/>
      <path class="uuid-6caffa71-68ee-4934-9f1f-e7be09e6ad01" d="M377.03,398.94v16.49h-30.48v29.48h23.74c.05,0,.75.7.75.75v14.99c0,.05-.7.75-.75.75h-23.74v34.48h30.48v16.49h-48.47v-113.43h48.47Z"/>
      <path class="uuid-6caffa71-68ee-4934-9f1f-e7be09e6ad01" d="M506.95,398.94v15.74c0,.05-.7.75-.75.75h-18.24v96.94h-17.99v-96.94h-18.49v-16.49h55.47Z"/>
      <rect class="uuid-6caffa71-68ee-4934-9f1f-e7be09e6ad01" x="210.14" y="398.94" width="17.99" height="113.43"/>
    </g>
    <g>
      <path class="uuid-51ad7484-541d-44d0-9a11-cb55cd63ceee" d="M176.93,555.86c0,1.86,0,3.65,0,5.39,0,1.74,0,3.42,0,5.05,0,1.63,0,3.22,0,4.76,0,1.55,0,3.06,0,4.54,0,1.48,0,2.93,0,4.36,0,1.43,0,2.85,0,4.25,0,1.4,0,2.8,0,4.19,0,1.39,0,2.79,0,4.19s0,2.82,0,4.25,0,2.88,0,4.36,0,2.99,0,4.54,0,3.13,0,4.76,0,3.31,0,5.05c0,1.74,0,3.53,0,5.39,0,1.38-.14,2.67-.42,3.89s-.7,2.35-1.27,3.39c-.56,1.04-1.25,2-2.05,2.86-.8.86-1.72,1.62-2.76,2.29-1.04.67-2.16,1.22-3.35,1.65-1.2.43-2.47.74-3.83.93-1.36.19-2.76.24-4.2.16-1.45-.08-2.94-.3-4.47-.64-1.54-.35-3.02-.8-4.45-1.36-1.43-.56-2.82-1.22-4.15-1.99-1.33-.76-2.59-1.6-3.78-2.5s-2.3-1.87-3.33-2.9c-1.04-1.03-1.97-2.09-2.78-3.17-.81-1.09-1.51-2.2-2.1-3.34-.59-1.14-1.03-2.3-1.32-3.47s-.44-2.36-.44-3.58v-57.39c1.84,0,3.38,0,4.81,0,1.43,0,2.76,0,4.2,0s2.97,0,4.81,0v5.64c0,1.81,0,3.55,0,5.23v9.56c0,1.52,0,3.02,0,4.5v8.83c0,1.48,0,2.98,0,4.5v4.66c0,1.59,0,3.22,0,4.9v10.87c0,1.37.2,2.6.61,3.68.41,1.09,1.02,2.03,1.83,2.84.81.81,1.73,1.48,2.74,2s2.13.91,3.35,1.15c1.22.24,2.34.29,3.35.15s1.93-.47,2.74-.99c.81-.52,1.42-1.28,1.83-2.26.41-.98.61-2.2.61-3.64,0-1.89,0-3.72,0-5.48s0-3.46,0-5.11c0-1.65,0-3.25,0-4.8v-4.57c0-1.49,0-2.95,0-4.4s0-2.88,0-4.3v-4.27c0-1.42,0-2.85,0-4.3s0-2.91,0-4.4v-4.57c0-1.56,0-3.16,0-4.8s0-3.35,0-5.11,0-3.58,0-5.48c1.84,0,3.38,0,4.81,0s2.76,0,4.2,0c1.43,0,2.97,0,4.81,0Z"/>
      <path class="uuid-51ad7484-541d-44d0-9a11-cb55cd63ceee" d="M189.94,642.72c0-1.93,0-3.81,0-5.63,0-1.83,0-3.61,0-5.35,0-1.74,0-3.44,0-5.1,0-1.66,0-3.29,0-4.88,0-1.6,0-3.16,0-4.71,0-1.54,0-3.06,0-4.56s0-2.98,0-4.46c0-1.47,0-2.93,0-4.38,0-1.45,0-2.9,0-4.35,0-1.45,0-2.89,0-4.35,0-1.45,0-2.91,0-4.38s0-2.95,0-4.46c0-1.5,0-3.02,0-4.56,0-1.54,0-3.11,0-4.71,0-1.6,0-3.22,0-4.88,0-1.66,0-3.36,0-5.1,0-1.74,0-3.52,0-5.35,0-1.83,0-3.7,0-5.63,1.78,0,3.38,0,4.87,0,1.49,0,2.88,0,4.23,0,1.35,0,2.67,0,4.02,0,1.35,0,2.74,0,4.23,0,1.49,0,3.09,0,4.87,0,1.81,0,3.51.12,5.12.35,1.61.23,3.11.57,4.52,1.03,1.4.46,2.71,1.04,3.91,1.74,1.2.7,2.31,1.52,3.31,2.45,1,.94,1.91,2,2.71,3.18.8,1.18,1.51,2.48,2.11,3.9.6,1.42,1.1,2.96,1.51,4.61.4,1.66.7,3.43.9,5.32.2,1.89.3,3.89.3,6,0,1.91-.1,3.72-.29,5.42s-.49,3.3-.88,4.79c-.39,1.49-.88,2.87-1.47,4.13-.59,1.27-1.32,2.43-2.21,3.48-.88,1.05-1.91,2-3.09,2.83-1.18.84-2.51,1.56-3.98,2.18.6,1.8,1.16,3.52,1.71,5.17s1.06,3.23,1.56,4.77c.5,1.53.98,3.02,1.45,4.47.47,1.45.93,2.87,1.38,4.28s.9,2.8,1.35,4.19c.45,1.39.89,2.79,1.35,4.22s.91,2.87,1.38,4.35c.47,1.49.95,3.02,1.45,4.61.5,1.59,1.02,3.24,1.56,4.98.54,1.73,1.11,3.55,1.71,5.47-1.95-.44-3.58-.8-5.09-1.14-1.52-.34-2.93-.66-4.44-1-1.52-.34-3.14-.7-5.09-1.14-.57-1.92-1.11-3.73-1.63-5.45-.52-1.72-1.01-3.35-1.48-4.92-.47-1.57-.93-3.08-1.37-4.54-.44-1.47-.88-2.89-1.31-4.31-.43-1.41-.86-2.81-1.29-4.21s-.87-2.81-1.31-4.26c-.44-1.44-.9-2.91-1.37-4.44-.47-1.52-.96-3.1-1.48-4.75-.52-1.65-1.06-3.37-1.63-5.18-1.65-.21-2.89-.37-4.13-.53s-2.48-.32-4.13-.53c0,1.92,0,3.72,0,5.43,0,1.71,0,3.33,0,4.89,0,1.56,0,3.06,0,4.53,0,1.47,0,2.91,0,4.35,0,1.44,0,2.88,0,4.35,0,1.47,0,2.97,0,4.53,0,1.56,0,3.18,0,4.89,0,1.71,0,3.51,0,5.43-1.84-.41-3.38-.76-4.81-1.08-1.43-.32-2.76-.62-4.2-.94-1.43-.32-2.97-.67-4.81-1.08ZM203.76,568.03c0,1.87,0,3.58,0,5.19,0,1.61,0,3.11,0,4.57,0,1.45,0,2.86,0,4.26,0,1.4,0,2.8,0,4.26,0,1.45,0,2.96,0,4.57,0,1.61,0,3.32,0,5.19,1.57.16,2.75.28,3.93.4,1.18.12,2.36.24,3.93.4,1.22.12,2.32.15,3.29.09.97-.06,1.82-.22,2.54-.48,1.44-.51,2.63-1.35,3.39-2.49.73-1.11,1.22-2.64,1.49-4.42.14-.89.24-1.86.3-2.9.07-1.04.1-2.16.1-3.35,0-1.19-.03-2.31-.1-3.36-.07-1.05-.17-2.03-.3-2.94-.14-.91-.34-1.76-.61-2.55-.27-.79-.61-1.53-1.02-2.2-.57-.84-1.31-1.55-2.23-2.13-.91-.58-2-1.02-3.25-1.33-1.25-.31-2.68-.49-4.27-.54-1.44-.05-2.51-.08-3.59-.11-1.08-.03-2.15-.07-3.59-.11Z"/>
      <path class="uuid-51ad7484-541d-44d0-9a11-cb55cd63ceee" d="M247.65,655.66c0-1.99,0-3.94,0-5.84,0-1.9,0-3.75,0-5.57s0-3.59,0-5.33c0-1.74,0-3.44,0-5.12,0-1.67,0-3.32,0-4.94,0-1.62,0-3.21,0-4.79,0-1.57,0-3.13,0-4.67,0-1.54,0-3.06,0-4.58,0-1.52,0-3.02,0-4.52,0-1.5,0-3,0-4.49,0-1.5,0-2.99,0-4.49,0-1.5,0-3.01,0-4.52s0-3.04,0-4.58c0-1.54,0-3.09,0-4.67,0-1.57,0-3.17,0-4.79,0-1.62,0-3.26,0-4.94,0-1.67,0-3.38,0-5.12,0-1.74,0-3.51,0-5.33s0-3.67,0-5.57c0-1.9,0-3.84,0-5.84,1.61,0,3.07,0,4.42,0s2.62,0,3.84,0c1.23,0,2.42,0,3.65,0,1.23,0,2.49,0,3.84,0s2.81,0,4.42,0c1.47,0,2.88.09,4.21.25,1.33.17,2.59.42,3.77.75,1.18.34,2.3.76,3.33,1.26,1.56.76,2.97,1.65,4.25,2.67,1.28,1.02,2.41,2.18,3.4,3.46.99,1.29,1.85,2.68,2.56,4.16.71,1.49,1.28,3.07,1.71,4.75.29,1.12.52,2.25.71,3.4.19,1.15.33,2.31.43,3.48.1,1.17.14,2.36.14,3.56,0,1.6,0,2.4,0,4,0,1.49-.05,2.86-.15,4.11-.1,1.25-.25,2.38-.46,3.38-.2,1.01-.46,1.95-.76,2.82-.3.87-.66,1.67-1.07,2.4-.77,1.36-1.74,2.59-2.91,3.69s-2.55,2.07-4.13,2.91c1.08.69,2.07,1.46,2.97,2.31s1.69,1.79,2.39,2.81,1.31,2.12,1.82,3.31c.51,1.19.94,2.5,1.28,3.95.34,1.44.6,3.02.77,4.72.17,1.7.26,3.53.26,5.48,0,1.23,0,2.16,0,3.08,0,.92,0,1.85,0,3.08,0,1.93-.08,3.75-.25,5.47-.16,1.72-.41,3.33-.74,4.84-.33,1.5-.74,2.9-1.23,4.19-.49,1.29-1.07,2.46-1.73,3.53-.66,1.06-1.4,2.02-2.22,2.86-.82.84-1.74,1.56-2.76,2.14s-2.14,1.05-3.35,1.38c-1.22.33-2.53.54-3.94.63-1.41.08-2.92.04-4.53-.12-1.61-.16-3.32-.45-5.12-.85-1.88-.42-3.53-.79-5.06-1.13-1.53-.34-2.94-.66-4.35-.98-1.41-.32-2.82-.63-4.35-.98-1.53-.34-3.18-.71-5.06-1.13ZM261.46,569.87c0,1.89,0,3.61,0,5.24,0,1.62,0,3.14,0,4.61,0,1.47,0,2.88,0,4.29s0,2.83,0,4.29c0,1.47,0,2.99,0,4.61s0,3.35,0,5.24c1.25.12,2.18.2,3.12.29.93.09,1.87.17,3.12.29,1.53.14,2.9.13,4.1-.04s2.23-.49,3.09-.98c.86-.48,1.56-1.13,2.08-1.93.53-.8.96-1.74,1.32-2.82.35-1.08.61-2.3.79-3.66.18-1.36.26-2.85.26-4.49,0-1.6-.1-3.07-.29-4.41-.2-1.34-.49-2.55-.88-3.63s-.88-2.03-1.47-2.85c-.59-.82-1.33-1.51-2.24-2.07s-1.96-.99-3.18-1.29c-1.22-.3-2.6-.48-4.13-.52-1.14-.04-1.99-.06-2.84-.09-.85-.03-1.71-.05-2.84-.09ZM261.47,611.14c0,1.88,0,3.63,0,5.28s0,3.2,0,4.7c0,1.5,0,2.94,0,4.35,0,1.42,0,2.82,0,4.24,0,1.42,0,2.86,0,4.35,0,1.5,0,3.05,0,4.7,0,1.65,0,3.4,0,5.28,1.19.23,2.09.4,2.98.57.89.17,1.79.34,2.98.57,1.4.27,2.65.4,3.74.39s2.04-.16,2.83-.46c1.58-.59,2.78-1.61,3.59-3.05.41-.72.73-1.54.98-2.44.25-.9.42-1.9.51-2.98.09-1.08.16-2.22.2-3.41.05-1.19.07-2.44.07-3.74,0-1.35-.03-2.61-.1-3.8-.07-1.18-.17-2.28-.31-3.3-.14-1.02-.34-1.97-.61-2.85-.27-.88-.6-1.73-1.02-2.45-.43-.75-.98-1.42-1.59-2.01-.61-.58-1.3-1.09-2.06-1.5-.77-.42-1.66-.76-2.68-1.05-1.02-.28-2.16-.5-3.42-.65-1.22-.15-2.13-.26-3.05-.37-.91-.11-1.83-.22-3.05-.37Z"/>
      <path class="uuid-51ad7484-541d-44d0-9a11-cb55cd63ceee" d="M297.5,666.83c.37-1.84.74-3.65,1.1-5.42.36-1.77.71-3.51,1.05-5.23.34-1.71.68-3.39,1.01-5.05.33-1.66.66-3.28.98-4.89.32-1.6.64-3.19.95-4.75.31-1.56.62-3.1.92-4.63s.6-3.03.9-4.53c.3-1.49.59-2.98.88-4.45.29-1.47.58-2.93.86-4.39s.57-2.9.85-4.35c.28-1.44.56-2.89.84-4.33s.56-2.89.84-4.33c.28-1.45.56-2.9.84-4.36.28-1.46.57-2.93.85-4.41.29-1.48.57-2.97.86-4.48.29-1.51.58-3.03.88-4.57s.59-3.1.9-4.69.61-3.19.92-4.82c.31-1.63.63-3.3.95-4.99.32-1.69.65-3.42.98-5.18s.67-3.55,1.01-5.39c.34-1.83.7-3.71,1.05-5.62s.73-3.88,1.1-5.89c1.54,0,2.81,0,4.01,0s2.3,0,3.5,0c1.19,0,2.47,0,4.01,0,.37,2.02.74,4,1.1,5.93.36,1.93.71,3.82,1.05,5.67.34,1.85.68,3.66,1.01,5.43.33,1.77.66,3.51.98,5.22.32,1.71.64,3.38.95,5.03.31,1.65.62,3.27.92,4.86.3,1.6.6,3.17.9,4.72.3,1.55.59,3.09.88,4.61.29,1.52.58,3.02.86,4.51.29,1.49.57,2.97.85,4.44.28,1.47.56,2.93.84,4.39.28,1.46.56,2.91.84,4.37.28,1.45.56,2.91.84,4.36.28,1.46.57,2.92.85,4.38.29,1.47.57,2.94.86,4.42.29,1.48.58,2.98.88,4.48s.59,3.03.9,4.56c.3,1.54.61,3.09.92,4.67.31,1.57.63,3.17.95,4.79.32,1.62.65,3.26.98,4.93s.67,3.36,1.01,5.09.7,3.48,1.06,5.27c.36,1.79.73,3.61,1.1,5.47-1.84.41-3.38.76-4.81,1.08-1.43.32-2.76.62-4.2.94s-2.97.67-4.81,1.08c-.32-1.9-.62-3.61-.89-5.21s-.53-3.09-.77-4.54-.49-2.87-.73-4.33c-.25-1.46-.5-2.96-.77-4.57s-.57-3.35-.89-5.28c-1.88.33-3.53.62-5.06.89s-2.93.3-4.34.05c-1.41-.25-2.82-.5-4.35-.77s-3.18-.56-5.06-.89c-.32,1.91-.62,3.63-.89,5.24-.27,1.6-.53,3.09-.77,4.53-.25,1.45-.49,2.85-.73,4.29-.25,1.44-.5,2.92-.77,4.51-.27,1.59-.57,3.29-.89,5.17-1.84-.41-3.38-.76-4.81-1.08-1.43-.32-2.76-.62-4.2-.94-1.43-.32-2.97-.67-4.81-1.08ZM331.62,631.69c-.3-1.83-.58-3.56-.86-5.21s-.53-3.23-.78-4.75c-.25-1.52-.49-2.99-.72-4.42s-.46-2.84-.69-4.23c-.23-1.39-.45-2.78-.68-4.17-.23-1.4-.45-2.81-.69-4.25-.23-1.45-.47-2.94-.71-4.53-.25-1.58-.51-3.22-.78-4.94-.27-1.72-.56-3.52-.86-5.42-.11,0-.16-.01-.27-.02-.3,1.86-.58,3.61-.86,5.29s-.53,3.26-.78,4.79-.49,3-.72,4.43c-.23,1.43-.46,2.83-.69,4.22-.23,1.39-.45,2.76-.68,4.14-.23,1.38-.45,2.77-.69,4.19-.23,1.42-.47,2.88-.72,4.39-.25,1.51-.51,3.07-.78,4.71-.27,1.64-.56,3.35-.86,5.17,1.84.27,3.38.49,4.81.7s2.76.4,4.19.61c1.43.21,2.96-.43,4.8-.7Z"/>
      <path class="uuid-51ad7484-541d-44d0-9a11-cb55cd63ceee" d="M358.3,666.34c0-1.92,0-3.79,0-5.63,0-1.84,0-3.64,0-5.4,0-1.77,0-3.5,0-5.2,0-1.7,0-3.37,0-5.01s0-3.26,0-4.85,0-3.16,0-4.71c0-1.55,0-3.08,0-4.59s0-3.01,0-4.49,0-2.95,0-4.41c0-1.46,0-2.91,0-4.36,0-1.45,0-2.89,0-4.33,0-1.44,0-2.88,0-4.32,0-1.44,0-2.88,0-4.33,0-1.45,0-2.9,0-4.36,0-1.46,0-2.93,0-4.41s0-2.98,0-4.49,0-3.04,0-4.59c0-1.55,0-3.12,0-4.71s0-3.21,0-4.85,0-3.31,0-5.01c0-1.7,0-3.43,0-5.2,0-1.77,0-3.57,0-5.4,0-1.84,0-3.71,0-5.63,1.77,0,3.24,0,4.62,0,1.38,0,2.65,0,4.03,0,1.38,0,2.85,0,4.62,0,.6,1.85,1.17,3.62,1.73,5.33.56,1.71,1.09,3.36,1.62,4.96.52,1.6,1.03,3.14,1.53,4.65.5,1.5.98,2.97,1.45,4.4.47,1.43.94,2.83,1.4,4.21.46,1.38.91,2.73,1.36,4.07.45,1.34.9,2.67,1.34,4,.45,1.32.89,2.65,1.34,3.97s.9,2.66,1.36,4,.92,2.7,1.4,4.08c.47,1.38.96,2.78,1.45,4.22.5,1.43,1,2.9,1.53,4.4s1.06,3.04,1.62,4.63,1.13,3.22,1.73,4.91c.11-.01.16-.02.27-.04,0-1.9,0-3.73,0-5.5,0-1.77,0-3.47,0-5.13,0-1.65,0-3.26,0-4.82,0-1.56,0-3.09,0-4.59s0-2.97,0-4.42,0-2.89,0-4.32c0-1.43,0-2.85,0-4.28,0-1.43,0-2.86,0-4.32s0-2.92,0-4.42,0-3.02,0-4.59c0-1.56,0-3.17,0-4.82,0-1.65,0-3.36,0-5.13s0-3.6,0-5.5c1.84,0,3.38,0,4.81,0,1.43,0,2.76,0,4.2,0,1.43,0,2.97,0,4.81,0,0,1.99,0,3.93,0,5.83s0,3.75,0,5.56c0,1.81,0,3.58,0,5.32,0,1.74,0,3.44,0,5.11s0,3.31,0,4.93c0,1.62,0,3.21,0,4.78,0,1.57,0,3.13,0,4.66,0,1.54,0,3.06,0,4.57s0,3.02,0,4.51c0,1.5,0,2.99,0,4.48,0,1.49,0,2.99,0,4.48,0,1.5,0,3,0,4.51s0,3.04,0,4.57,0,3.09,0,4.66c0,1.57,0,3.17,0,4.78,0,1.62,0,3.26,0,4.93s0,3.37,0,5.11c0,1.74,0,3.51,0,5.32s0,3.66,0,5.56c0,1.9,0,3.84,0,5.83-1.73.39-3.18.71-4.53,1.01s-2.6.58-3.95.89c-1.35.3-2.79.63-4.53,1.01-.65-1.75-1.28-3.44-1.88-5.08-.6-1.64-1.19-3.23-1.75-4.77-.57-1.55-1.11-3.05-1.65-4.53-.53-1.47-1.06-2.92-1.57-4.34-.51-1.42-1.01-2.82-1.51-4.21s-.99-2.76-1.48-4.14c-.49-1.38-.98-2.75-1.46-4.13-.49-1.38-.98-2.78-1.48-4.19-.5-1.42-1-2.85-1.51-4.32-.51-1.47-1.03-2.97-1.57-4.52-.53-1.55-1.08-3.14-1.65-4.78s-1.15-3.35-1.75-5.12-1.23-3.61-1.88-5.54c-.11,0-.16.01-.27.02,0,1.98,0,3.89,0,5.73,0,1.84,0,3.62,0,5.34,0,1.72,0,3.4,0,5.03,0,1.63,0,3.22,0,4.78s0,3.09,0,4.6c0,1.51,0,3.01,0,4.5s0,2.97,0,4.46,0,2.99,0,4.5c0,1.51,0,3.04,0,4.6s0,3.15,0,4.78c0,1.63,0,3.3,0,5.03s0,3.5,0,5.34,0,3.75,0,5.73c-1.84.41-3.38.76-4.81,1.08-1.43.32-2.76.62-4.2.94-1.43.32-2.97.67-4.81,1.08Z"/>
      <path class="uuid-51ad7484-541d-44d0-9a11-cb55cd63ceee" d="M418.18,578.84c0-1.3.08-2.56.23-3.76s.38-2.36.68-3.47c.3-1.11.68-2.17,1.13-3.18.68-1.51,1.47-2.9,2.37-4.15.9-1.25,1.92-2.38,3.05-3.38,1.08-.95,2.24-1.79,3.47-2.5s2.54-1.32,3.91-1.81c1.38-.49,2.76-.85,4.15-1.09,1.39-.24,2.78-.36,4.18-.36s2.79.12,4.18.35c1.39.23,2.77.58,4.15,1.04,1.38.46,2.69,1.02,3.95,1.68,1.25.66,2.49,1.41,3.57,2.27,1.08.85,2.07,1.9,2.95,3.01s1.66,2.33,2.34,3.65c.68,1.32,1.18,2.75,1.52,4.28s.51,3.16.51,4.91c0,1.83,0,3.57,0,5.24,0,1.67,0,3.26,0,4.8,0,1.54,0,3.02,0,4.47,0,1.45,0,2.86,0,4.25s0,2.76,0,4.14,0,2.75,0,4.14c0,1.39,0,2.8,0,4.25,0,1.45,0,2.93,0,4.47,0,1.54,0,3.13,0,4.8,0,1.67,0,3.41,0,5.24,0,1.22-.08,2.39-.23,3.52-.15,1.13-.38,2.21-.68,3.25-.3,1.04-.68,2.04-1.13,3-.68,1.44-1.46,2.79-2.34,4.06s-1.87,2.45-2.95,3.55c-1.13,1.15-2.32,2.21-3.57,3.17-1.25.96-2.57,1.83-3.95,2.6-1.38.77-2.76,1.43-4.15,1.98-1.39.55-2.78.98-4.18,1.3-1.4.32-2.79.51-4.18.59-1.39.07-2.77.02-4.15-.15-1.38-.18-2.68-.49-3.91-.95s-2.4-1.12-3.47-1.82c-1.08-.71-2.15-1.55-3.05-2.55-.9-1.01-1.69-2.17-2.37-3.48-.45-.88-.83-1.83-1.13-2.87-.3-1.04-.53-2.16-.68-3.37s-.23-2.49-.23-3.85c0-1.86,0-3.64,0-5.35s0-3.35,0-4.93,0-3.12,0-4.61,0-2.95,0-4.38,0-2.84,0-4.24,0-2.79,0-4.19c0-1.4,0-2.81,0-4.24,0-1.43,0-2.89,0-4.38,0-1.49,0-3.02,0-4.61,0-1.58,0-3.22,0-4.93,0-1.71,0-3.49,0-5.35ZM432,627.68c0,1.63.23,3,.69,4.11.46,1.11,1.16,1.96,2.08,2.55.93.59,1.94.97,3.03,1.13,1.1.17,2.28.13,3.54-.12,1.26-.25,2.44-.66,3.54-1.25,1.1-.58,2.11-1.33,3.03-2.25.93-.91,1.62-1.99,2.08-3.22.46-1.23.69-2.62.69-4.18,0-1.9,0-3.7,0-5.42,0-1.72,0-3.37,0-4.97,0-1.59,0-3.13,0-4.63,0-1.5,0-2.96,0-4.4s0-2.86,0-4.28c0-1.42,0-2.84,0-4.28,0-1.44,0-2.9,0-4.4,0-1.5,0-3.03,0-4.63,0-1.59,0-3.24,0-4.97,0-1.73,0-3.53,0-5.42,0-1.55-.23-2.89-.69-4.02-.46-1.13-1.16-2.04-2.08-2.75-.93-.71-1.94-1.23-3.03-1.56-1.09-.34-2.27-.49-3.54-.45-1.27.04-2.45.27-3.54.68-1.1.42-2.11,1.02-3.03,1.82-.93.8-1.62,1.81-2.08,3.02-.46,1.22-.69,2.64-.69,4.27,0,1.98,0,3.87,0,5.67,0,1.8,0,3.53,0,5.2,0,1.67,0,3.27,0,4.84,0,1.57,0,3.09,0,4.6,0,1.51,0,2.99,0,4.48s0,2.98,0,4.48c0,1.51,0,3.03,0,4.6,0,1.57,0,3.17,0,4.84,0,1.67,0,3.39,0,5.2,0,1.8,0,3.69,0,5.67Z"/>
      <path class="uuid-51ad7484-541d-44d0-9a11-cb55cd63ceee" d="M521.4,577.08c-1.84.12-3.38.22-4.81.32-1.43.09-2.76.18-4.2.28-1.43.09-2.97.2-4.81.32,0-1,0-1.49,0-2.49,0-1.26-.19-2.43-.56-3.5-.37-1.08-.93-2.06-1.68-2.96-.74-.9-1.74-1.56-3-1.98-1.25-.42-2.76-.61-4.52-.56-1.9.06-3.43.41-4.61,1.05-1.18.64-2.15,1.44-2.85,2.37-.73.98-1.22,2.16-1.49,3.43-.27,1.27-.41,2.59-.41,3.96,0,1.6.07,2.93.2,3.98.14,1.06.47,1.98,1.02,2.77.54.79,1.33,1.45,2.37,1.96,1.04.51,2.46.99,4.27,1.43,1.41.33,2.58.61,3.68.86,1.1.25,2.11.49,3.21.73,1.1.25,2.27.51,3.68.82,1.54.32,2.92.68,4.17,1.1,1.24.42,2.34.88,3.28,1.39.95.52,1.8,1.09,2.54,1.71.74.63,1.43,1.31,1.93,2.04.5.74.91,1.62,1.25,2.52.34.9.6,1.87.78,2.91.18,1.03.32,2.15.41,3.34.09,1.19.14,2.46.14,3.81,0,1.56-.1,3.08-.3,4.56s-.51,2.93-.91,4.35c-.41,1.42-.94,2.76-1.59,4.03-.65,1.27-1.43,2.48-2.34,3.62-.94,1.18-2.04,2.3-3.29,3.35s-2.63,2.03-4.17,2.95c-1.02.61-2.12,1.17-3.3,1.7-1.17.52-2.42,1-3.75,1.43-1.32.43-2.72.81-4.2,1.14-1.67.38-3.29.62-4.84.73-1.56.11-3.06.07-4.5-.1-1.45-.17-2.79-.47-4.03-.9-1.24-.42-2.38-.97-3.42-1.65-1.04-.68-1.97-1.45-2.79-2.33-.82-.88-1.54-1.86-2.15-2.95-.61-1.08-1.07-2.26-1.37-3.51s-.46-2.6-.46-4.03c0-1.8,0-2.71,0-4.51,1.84-.3,3.38-.55,4.81-.78,1.43-.23,2.76-.45,4.2-.68s2.97-.48,4.81-.78c0,1.46,0,2.2,0,3.66,0,1.07.19,2.05.56,2.95.37.89.93,1.7,1.68,2.41s1.74,1.16,3,1.34c1.25.18,2.76.1,4.52-.24,1.17-.23,2.22-.5,3.13-.81.91-.31,1.7-.67,2.35-1.07,1.31-.8,2.32-1.77,3.05-2.92.72-1.15,1.15-2.44,1.29-3.87.13-1.43.2-3.01.2-4.75,0-2.02-.09-3.67-.27-4.94-.18-1.27-.53-2.32-1.08-2.99-.58-.7-1.47-1.25-2.51-1.63-1.04-.37-2.42-.74-4.13-1.12-1.32-.28-2.42-.51-3.44-.73-1.03-.22-1.98-.43-3-.66-1.03-.23-2.12-.47-3.44-.77-1.99-.45-3.76-1.01-5.31-1.68-1.55-.67-2.88-1.45-4-2.34-1.11-.89-2.01-1.88-2.69-2.98-.68-1.1-1.24-2.31-1.69-3.64-.45-1.33-.79-2.77-1.02-4.32s-.34-3.21-.34-4.97c0-1.58.12-3.13.37-4.64.25-1.51.62-2.99,1.12-4.42.5-1.44,1.12-2.77,1.86-4s1.64-2.37,2.61-3.4c.95-1.01,2.03-1.95,3.23-2.76,1.21-.81,2.55-1.52,4.01-2.12.98-.4,2.02-.73,3.12-.99,1.1-.26,2.27-.46,3.5-.59s2.52-.19,3.87-.19c1.72,0,3.36.13,4.93.38s3.07.63,4.49,1.13c1.42.5,2.75,1.07,3.98,1.72,1.23.65,2.36,1.37,3.4,2.16,1.38,1.11,2.54,2.26,3.46,3.46.92,1.2,1.62,2.46,2.08,3.77.46,1.31.69,2.68.69,4.11v5.2Z"/>
    </g>
  </g>
</svg>